<?xml version="1.0" encoding="UTF-8" standalone="no"?>
<svg
   width="2500"
   height="2500"
   viewBox="0 0 192.756 192.756"
   version="1.1"
   id="svg70"
   sodipodi:docname="Bradford City.svg"
   inkscape:version="1.1.1 (3bf5ae0d25, 2021-09-20)"
   xmlns:inkscape="http://www.inkscape.org/namespaces/inkscape"
   xmlns:sodipodi="http://sodipodi.sourceforge.net/DTD/sodipodi-0.dtd"
   xmlns="http://www.w3.org/2000/svg"
   xmlns:svg="http://www.w3.org/2000/svg">
  <defs
     id="defs74" />
  <sodipodi:namedview
     id="namedview72"
     pagecolor="#ffffff"
     bordercolor="#666666"
     borderopacity="1.0"
     inkscape:pageshadow="2"
     inkscape:pageopacity="0.0"
     inkscape:pagecheckerboard="0"
     showgrid="false"
     inkscape:zoom="0.2276"
     inkscape:cx="1250"
     inkscape:cy="1250"
     inkscape:window-width="1920"
     inkscape:window-height="1137"
     inkscape:window-x="1592"
     inkscape:window-y="-8"
     inkscape:window-maximized="1"
     inkscape:current-layer="svg70" />
  <path
     d="m 88.345,69.389 c -0.948,-1.103 0,-2.283 0.629,-2.598 -1.102,0.315 -0.994,-0.372 -1.915,0.483 -0.133,-1.507 -0.042,-1.823 1.409,-2.058 1.451,-0.236 4.127,-0.551 5.23,-0.395 1.103,0.158 1.566,0.158 1.969,0.315 L 95.195,62.459 C 95.43,61.12 94.88,55.844 94.88,55.844 c -2.285,-0.551 -4.961,-2.756 -6.222,-4.489 -1.259,-1.731 0,-0.865 -2.598,-1.338 -2.599,-0.473 -5.434,-0.236 -8.504,-1.89 -3.071,-1.653 -5.59,-2.834 -5.669,-9.528 -0.078,-6.693 0.236,-8.031 1.103,-8.897 0.078,-2.913 1.26,-7.008 1.732,-7.795 0.472,-0.788 1.574,-1.969 2.441,-2.914 -2.048,0.472 -4.646,0.315 -4.489,-1.811 0.158,-2.126 0.709,-3.543 1.89,-4.332 -1.497,-0.314 -2.416,-0.499 -3.386,0.158 0.21,-1.156 1.102,-2.336 1.837,-2.546 0.105,-1.259 0.84,-2.625 1.89,-3.045 -0.84,-1.154 -1.365,-3.15 0.104,-3.57 1.47,-0.419 0.972,-0.367 1.759,0.027 0.788,0.393 1.396,0.407 1.84,0.125 0.444,-0.282 0.837,-0.282 1.231,-0.125 0.394,0.157 0.763,-0.036 1.338,-0.394 2.914,-1.811 2.992,0.63 2.835,1.811 1.339,0.315 1.417,1.339 1.339,2.284 1.339,1.338 0.63,3.07 -0.552,1.968 -0.235,0.473 -0.63,1.024 -0.157,1.733 0.945,1.417 1.102,5.669 1.024,8.11 -0.079,2.441 1.928,6.653 3.149,7.874 1.732,1.732 5.591,1.969 8.583,1.811 2.992,-0.157 5.59,-1.023 7.559,-4.094 1.969,-3.071 3.148,-4.804 4.174,-6.537 1.023,-1.732 4.766,-6.733 6.93,-8.189 3.857,-2.598 11.943,-2.807 17.152,3.715 -0.617,-0.014 -0.381,0.301 -1.562,-0.328 0.236,1.574 -0.629,2.755 -1.969,2.282 -1.338,-0.472 -2.512,-0.676 -1.887,1.079 -2.68,-0.92 -4.334,-1.157 -3.389,0.732 0.838,1.675 1.182,2.362 1.023,3.858 7.561,4.96 7.244,14.017 0.709,18.11 -1.023,-1.103 -1.85,-1.511 -2.459,0.269 -1.084,-0.583 -1.598,-0.539 -2.168,-0.325 0.768,2.812 -1.088,5.385 -3.033,6.501 -0.213,-1.562 -1.188,-1.887 -1.842,-2.275 -0.971,1.58 -2.152,2.603 -2.939,3.232 -0.787,0.63 -1.336,1.386 -0.865,2.363 -1.26,-0.866 -1.26,-1.102 -1.498,-1.496 -1.258,0.629 -2.42,1.021 -2.824,1.967 -0.561,-0.078 -0.799,0.413 -1.623,-0.108 -1.062,1.37 -1.699,1.665 -2.602,1.951 l -0.975,-0.651 c -0.953,1.487 -2.055,2.352 -4.338,2.667 0.314,2.913 0.393,6.458 0.236,7.717 1.102,-0.866 1.889,-1.417 2.756,-0.787 -0.945,0.944 -3.123,3.611 -3.938,5.511 -0.236,0.552 -1.023,0.552 -1.81,0.552 -0.789,0 -2.993,1.024 -5.276,0.708 -0.709,0.63 -1.339,0.945 -2.126,1.417 -0.785,0.477 -0.469,0.162 -0.469,0.477 z"
     fill="#ffffff"
     id="path4"
     style="clip-rule:evenodd;fill-rule:evenodd" />
  <path
     d="m 96.377,176.705 c 33.371,0 43.339,-5.418 46.373,-6.502 1.518,-1.516 -1.084,-2.602 -3.252,-3.9 v -12.352 c 0,-4.984 13.436,-2.383 21.453,-7.367 0,0 -3.25,5.201 -6.934,7.801 2.816,2.602 6.934,8.451 7.584,9.752 0,0 -8.451,-4.553 -11.918,-3.469 2.168,0.867 5.201,3.035 5.201,4.768 v 11.918 c -8.451,7.584 -31.637,12.568 -58.507,12.568 -26.87,0 -50.056,-4.984 -58.507,-12.568 v -11.918 c 0,-1.732 3.034,-3.9 5.201,-4.768 -3.466,-1.084 -11.917,3.469 -11.917,3.469 0.649,-1.301 4.767,-7.15 7.584,-9.752 -3.684,-2.6 -6.935,-7.801 -6.935,-7.801 8.018,4.984 21.453,2.383 21.453,7.367 v 12.352 c -2.167,1.299 -4.767,2.385 -3.25,3.9 3.034,1.084 13.001,6.502 46.371,6.502 z"
     fill="#efc031"
     id="path6"
     style="clip-rule:evenodd;fill-rule:evenodd" />
  <path
     d="m 53.256,166.303 c -2.167,1.299 -4.767,2.385 -3.25,3.9 l 0.976,0.434 c -4.984,-1.734 -11.918,-4.117 -13.11,-5.201 0,-1.732 3.034,-3.9 5.201,-4.768 2.601,-1.299 10.185,-4.225 10.185,-7.367 v 13.002 z m 86.242,0 c 2.168,1.299 4.77,2.385 3.252,3.9 l -0.977,0.434 c 4.986,-1.734 11.918,-4.117 13.111,-5.201 0,-1.732 -3.033,-3.9 -5.201,-4.768 -2.6,-1.299 -10.186,-4.225 -10.186,-7.367 v 13.002 z m -85.293,15.967 -1.485,-0.432 1.7,-5.85 -2.148,-0.625 0.365,-1.256 5.781,1.68 -0.364,1.258 -2.149,-0.625 z m 7.401,-1.61 -0.64,3.258 -1.518,-0.299 1.429,-7.264 1.518,0.299 -0.541,2.752 2.833,0.557 0.542,-2.752 1.517,0.299 -1.43,7.263 -1.517,-0.298 0.641,-3.258 z m 13.553,-0.656 -3.896,-0.506 -0.2,1.543 3.579,0.465 -0.168,1.297 -3.579,-0.463 -0.247,1.902 4.07,0.528 -0.169,1.298 -5.572,-0.722 0.951,-7.34 5.4,0.701 z m 7.52,6.779 0.383,-7.393 1.417,1.354 -0.084,1.615 1.812,0.096 c 0.608,0.031 1.104,-0.182 1.134,-0.768 0.032,-0.609 -0.392,-0.816 -1.091,-0.852 l -1.771,-0.092 -1.417,-1.354 3.593,0.186 c 1.812,0.094 2.218,1.25 2.178,2.012 -0.055,1.061 -0.667,1.328 -0.984,1.467 0.889,0.387 1.087,1.121 1.05,1.852 a 2.15,2.15 0 0 1 -0.717,1.49 c -0.444,0.391 -0.858,0.627 -2.372,0.549 l -3.131,-0.162 1.549,-1.201 1.895,0.1 c 0.751,0.039 1.2,-0.27 1.24,-1.021 0.033,-0.648 -0.51,-0.924 -1.066,-0.953 l -1.966,-0.102 -0.102,1.977 z m 11.488,-2.385 1.887,0.012 -0.898,-2.933 h -0.022 l -0.967,2.921 -0.42,1.276 -0.525,1.521 -1.629,-0.009 2.687,-7.385 1.783,0.011 2.56,7.42 -1.679,-0.011 -0.465,-1.53 -2.732,-0.017 z m 11.749,-4.798 1.443,-0.055 0.286,7.396 -1.547,0.061 -3.221,-5.16 -0.022,0.002 0.204,5.275 -1.442,0.055 -0.285,-7.397 1.627,-0.064 3.135,5.039 h 0.021 z m 8.414,6.851 -1.541,0.129 -0.51,-6.07 -2.23,0.185 -0.11,-1.302 6,-0.506 0.11,1.306 -2.229,0.186 z m 6.815,-3.56 1.869,-0.256 -1.307,-2.778 -0.019,0.002 -0.543,3.032 -0.237,1.322 -0.303,1.58 -1.613,0.221 1.61,-7.692 1.767,-0.24 3.588,6.979 -1.664,0.228 -0.676,-1.447 -2.709,0.371 z m 14.904,0.154 -1.412,0.301 -1.293,-6.047 -0.02,0.004 -0.056,6.338 -1.483,0.316 -2.615,-5.766 -0.02,0.004 1.293,6.049 -1.41,0.303 -1.549,-7.238 2.209,-0.473 2.53,5.426 0.021,-0.006 0.07,-5.981 2.186,-0.466 z m 4.08,-3.535 c 0.139,0.387 0.582,1.066 1.865,0.641 0.693,-0.232 1.41,-0.654 1.164,-1.398 -0.182,-0.547 -0.76,-0.518 -1.561,-0.447 l -0.812,0.074 c -1.223,0.113 -2.402,0.223 -2.916,-1.324 -0.26,-0.783 -0.297,-2.303 1.982,-3.059 2.152,-0.715 3.197,0.502 3.492,1.359 l -1.408,0.469 c -0.145,-0.301 -0.508,-1.004 -1.789,-0.58 -0.559,0.186 -1.154,0.613 -0.943,1.248 0.182,0.547 0.67,0.516 0.986,0.488 l 1.854,-0.148 c 1.035,-0.084 2.045,0.014 2.465,1.275 0.703,2.113 -1.387,3.014 -2.004,3.219 -2.564,0.852 -3.494,-0.479 -3.783,-1.35 z m -22.082,-107.685 24.486,19.72 c -5.633,6.717 -10.186,14.952 -10.186,26.002 0,11.05 4.553,20.369 10.836,26.871 l -8.668,16.033 c -8.451,0 -25.57,5.418 -38.138,18.637 C 83.809,165.869 66.69,160.451 58.239,160.451 l -8.668,-16.033 c 6.285,-6.502 10.834,-15.82 10.834,-26.871 0,-11.051 -4.55,-19.285 -10.184,-26.002 l 24.487,-19.72 z"
     id="path8"
     style="clip-rule:evenodd;fill-rule:evenodd" />
  <path
     d="M 75.996,77.221 57.074,92.67 c 4.798,6.435 8.672,15.304 8.672,24.908 0,9.605 -4.369,20.781 -9.796,27.064 l 5.414,10.633 c 7.757,0 24.488,5.697 35.011,16.564 10.368,-10.867 27.252,-16.564 35.01,-16.564 l 5.414,-10.633 c -5.428,-6.283 -9.797,-17.459 -9.797,-27.064 0,-9.604 3.875,-18.473 8.672,-24.908 L 116.752,77.22 H 75.996 Z"
     fill="#ffffff"
     id="path10"
     style="clip-rule:evenodd;fill-rule:evenodd" />
  <path
     d="m 124.967,117.59 c 0,-9.051 3.617,-18.164 8.094,-24.491 L 116.26,79.276 H 76.486 L 59.684,93.099 c 4.479,6.327 8.096,15.44 8.096,24.491 0,9.055 -4.301,20.938 -9.401,27.141 l 4.174,8.572 c 7.494,0 24.077,5.805 33.82,15.775 9.531,-9.971 26.324,-15.775 33.82,-15.775 l 4.174,-8.572 c -5.101,-6.204 -9.4,-18.086 -9.4,-27.141 z"
     fill="#efc031"
     id="path12"
     style="clip-rule:evenodd;fill-rule:evenodd" />
  <path
     d="m 134.367,144.73 c -5.102,-6.203 -9.4,-18.086 -9.4,-27.141 0,-9.051 3.617,-18.164 8.094,-24.491 L 119.672,82.083 v 73.273 c 4.166,-1.338 7.912,-2.055 10.521,-2.055 z M 88.57,79.276 v 83.493 c 2.838,1.861 5.513,3.965 7.803,6.309 2.244,-2.348 4.9,-4.455 7.734,-6.322 V 79.276 Z M 59.684,93.099 c 4.479,6.327 8.096,15.44 8.096,24.491 0,9.055 -4.301,20.938 -9.401,27.141 l 4.174,8.572 c 2.601,0 6.307,0.715 10.431,2.043 V 82.159 Z"
     fill="#cd3529"
     id="path14"
     style="clip-rule:evenodd;fill-rule:evenodd" />
  <path
     d="m 87.494,112.346 c 4.767,-2.383 8.884,-4.551 8.884,-12.135 0,-11.05 -9.101,-12.135 -14.084,-12.135 H 69.291 v 1.518 h 3.25 v 48.972 h -3.25 v 1.299 h 13.002 c 6.717,0 14.734,-4.332 14.734,-14.084 0,-7.367 -4.549,-11.267 -9.533,-13.435 z m -1.084,23.836 c 0,2.059 -1.083,2.385 -4.117,2.385 v -24.92 c 3.034,0 4.117,0.326 4.117,2.383 z m 0,-26.653 c 0,2.059 -1.083,2.383 -4.117,2.383 V 89.594 c 3.034,0 4.117,0.324 4.117,2.384 z m 23.402,-19.502 c 0,-0.866 0.65,-1.246 1.408,-1.246 4.846,0 8.273,7.928 9.467,18.682 h 1.693 V 87.319 h -1.625 l -3.072,3.495 c -1.883,-2.514 -4.096,-3.962 -6.463,-3.962 -8.01,0 -12.41,12.143 -12.41,27.121 0,14.977 4.4,27.119 12.41,27.119 7.221,0 10.967,-9.816 11.742,-22.73 h -1.945 c -0.713,11.797 -3.775,20.801 -9.797,20.801 -0.758,0 -1.408,-0.596 -1.408,-1.572 z"
     fill="#ffffff"
     id="path16"
     style="clip-rule:evenodd;fill-rule:evenodd" />
  <path
     d="M 123.248,154.385 V 143.088 H 69.507 v 11.297 z"
     id="path18"
     style="clip-rule:evenodd;fill-rule:evenodd" />
  <path
     d="m 84.676,144.395 h -2.083 l -3.084,8.646 h 1.903 l 0.602,-1.781 h 3.191 l 0.554,1.781 h 1.963 z m -2.18,5.371 1.108,-3.42 h 0.025 l 1.071,3.42 z"
     fill="#e8eef3"
     id="path20"
     style="clip-rule:evenodd;fill-rule:evenodd" />
  <path
     fill="#eff4f7"
     d="M 96.466,153.041 H 94.66 v -8.646 h 6.152 v 1.529 h -4.346 v 1.951 h 3.805 v 1.529 h -3.805 z m 16.846,-5.816 c -0.145,-0.518 -0.422,-1.492 -1.914,-1.492 -0.869,0 -2.145,0.578 -2.145,3.021 0,1.555 0.615,2.951 2.145,2.951 1,0 1.697,-0.566 1.914,-1.625 h 1.807 c -0.361,1.879 -1.59,3.189 -3.758,3.189 -2.301,0 -3.949,-1.553 -3.949,-4.539 0,-3.023 1.746,-4.562 3.973,-4.562 2.59,0 3.637,1.781 3.734,3.057 z"
     id="path22"
     style="clip-rule:evenodd;fill-rule:evenodd" />
  <path
     d="m 74.383,8.009 c 0.65,-0.649 1.95,-0.867 3.792,-0.867 2.601,0 7.584,2.06 7.584,10.185 0,2.601 -0.975,5.526 3.684,10.943 -0.323,0.65 -1.949,-0.109 -3.358,-2.059 -0.325,1.408 -0.434,2.817 0.975,4.117 -1.409,0 -2.925,-0.108 -3.792,-1.518 -0.867,0.758 -2.384,0.976 -3.359,0.109 -0.65,0.542 -2.383,3.142 -2.492,-0.217 -0.109,-2.166 -3.142,-1.408 -3.142,-4.226 0,-4.116 4.55,-5.634 4.55,-8.018 0,-0.541 -0.867,-0.866 -0.867,-1.408 0,-2.383 2.059,-0.867 2.059,-3.792 0,-2.383 -1.95,-2.491 -5.308,-2.709 C 74.275,8.55 73.95,8.334 74.383,8.009 Z"
     id="path24"
     style="clip-rule:evenodd;fill-rule:evenodd" />
  <path
     d="m 75.358,11.693 c 0,0 -0.434,-1.191 -1.625,-1.191 -0.976,0.217 -2.06,0.541 -2.167,2.167 1.03,-1.085 2.384,0.107 3.792,-0.976 z M 77.2,11.299 a 0.69000018,0.69000018 0 1 0 -0.001,-1.38 0.69000018,0.69000018 0 0 0 0.001,1.38 z m -1.625,1.369 c -0.975,0 -2.6,1.517 -2.6,4.443 0,1.191 0.975,1.95 2.059,0.324 0.866,-1.624 2.492,-4.767 0.541,-4.767 z"
     id="path26"
     style="clip-rule:evenodd;fill-rule:evenodd" />
  <path
     d="M 72.758,30.221 C 71.892,32.062 72,35.529 72,39.538 c 0,11.377 14.519,9.535 16.253,11.051 1.408,1.517 2.816,4.334 5.958,4.551 -1.192,-1.625 -3.575,-6.068 -6.392,-6.501 -7.26,-1.083 -14.194,-3.467 -14.194,-9.209 0,-1.842 -0.217,-5.958 0.217,-8.993 0.216,-1.192 -0.759,-0.65 -1.084,-0.216 z"
     fill="#677179"
     id="path28"
     style="clip-rule:evenodd;fill-rule:evenodd" />
  <path
     d="m 91.114,29.618 c 0.007,-0.227 -0.036,-0.523 -0.153,-0.915 4.116,0.542 9.426,1.084 11.592,-0.866 6.176,-5.201 8.885,-19.177 19.178,-19.177 3.684,0 7.908,1.192 11.484,5.309 -1.949,0 -6.5,-3.9 -11.375,-3.9 -9.102,0 -13.219,16.685 -18.637,19.068 -1.949,0.976 -8.342,1.951 -11.051,1.192 z"
     id="path30"
     style="clip-rule:evenodd;fill-rule:evenodd" />
  <path
     d="m 74.6,4.325 c 2.384,-1.3 2.167,0.434 4.009,-0.324 1.408,-0.542 1.083,0.65 3.143,-0.65 0.975,-0.542 2.6,-0.975 2.166,2.167 1.192,-0.109 1.41,0.867 1.41,2.275 0.758,0.649 1.083,3.033 -0.976,1.191 C 83.161,7.793 82.186,5.951 75.359,5.951 74.491,5.951 73.516,4.976 74.6,4.325 Z m 0.542,25.029 c -0.433,3.033 -0.542,8.884 -0.217,10.292 1.734,5.959 8.018,4.983 9.318,6.609 0.542,0.867 3.034,1.408 2.275,-0.325 -2.383,-4.659 -6.609,-1.083 -8.56,-6.393 -1.084,-3.033 0.109,-4.983 0.109,-6.825 0,-1.842 -1.842,0 -1.842,-2.925 -0.325,-0.326 -1.083,-0.976 -1.083,-0.433 z m 15.707,0.881 c -0.323,0.262 -0.816,0.206 -0.755,0.635 0.65,1.625 3.793,1.409 4.55,4.442 0.542,1.3 2.276,3.359 3.575,2.492 -1.082,-1.734 -0.758,-3.901 1.734,-3.901 1.084,0 3.467,2.384 3.359,0.542 -0.109,-1.518 2.6,0.542 2.49,-1.084 -0.107,-1.95 2.168,-0.758 2.385,-2.275 0.217,-1.518 2.383,-2.708 3.9,-2.6 -2.385,-2.601 -7.693,3.25 -14.303,3.25 -1.625,0 -3.924,-0.253 -5.188,-1.058 10e-4,10e-4 -1.219,-0.099 -1.747,-0.443 z m 17.229,-3.265 c 2.275,-4.551 7.477,-14.736 12.461,-15.493 0.65,1.191 -0.109,1.95 -2.275,3.25 -2.816,1.842 -6.285,6.068 -8.992,11.376 -0.001,0 -0.543,0.434 -1.194,0.867 z"
     fill="#efc031"
     id="path32"
     style="clip-rule:evenodd;fill-rule:evenodd" />
  <path
     d="m 112.521,22.96 c 2.275,-3.792 7.908,-12.676 19.176,-8.451 -0.215,1.083 -0.648,2.059 -3.033,1.083 -0.758,-0.324 -1.408,0.542 -0.867,1.408 -0.541,0.218 -4.225,-1.842 -3.684,0.109 0.543,1.191 1.951,3.575 0.76,5.85 -2.602,-1.842 -4.01,-1.733 -7.369,-1.733 -1.516,0.001 -3.358,1.734 -4.983,1.734 z M 85.327,38.996 c 0.108,3.034 2.274,3.684 3.793,4.335 2.383,1.191 8.558,3.9 8.558,6.283 0,1.192 0.217,3.792 0.217,4.118 0.434,0.216 3.576,0.216 5.418,-2.601 l 0.975,0.651 c 0,0 1.949,-0.651 2.602,-1.951 l 1.623,0.108 c 0.217,-0.758 2.059,-2.059 3.035,-1.95 0,0 0.107,0.649 0.975,0.975 0,-1.734 3.684,-3.684 4.117,-5.092 0.758,0.216 2.492,1.191 1.842,2.275 0.865,-0.542 4.01,-3.25 3.033,-6.501 0,0 1.734,-0.651 2.168,0.325 0,0 0.541,-1.083 0.865,-1.191 0,0 1.518,0.108 1.408,0.867 1.408,-0.867 1.734,-2.926 1.734,-6.285 0,-3.033 -2.709,-8.342 -12.135,-8.018 -0.217,0.65 0.541,1.193 1.734,1.301 1.191,0.108 3.684,1.083 4.766,2.924 -2.924,-1.516 -9.209,-1.841 -10.293,0.867 0.76,-0.108 3.576,0.217 4.768,2.059 0,0 -2.057,-0.325 -2.49,-0.65 0,0 -0.219,1.192 0.758,2.059 -0.977,-0.109 -1.842,-0.758 -3.143,-1.517 -0.324,-0.216 -0.758,0.759 0,1.408 1.191,0.975 3.143,3.143 3.793,5.201 0,0 -0.434,1.301 -1.301,0 -0.107,-0.434 -2.816,-3.575 -4.01,-4.441 -1.191,-0.867 -1.949,0.434 -0.758,1.408 0.543,0.434 3.25,2.925 3.143,4.441 0,0 -0.109,1.951 -1.518,0.109 -1.191,-1.625 -3.143,-3.142 -4.225,-3.684 -1.625,-0.867 -1.408,0.434 -0.543,1.301 0,0 2.385,2.707 2.818,4.008 0.324,0.65 -0.76,1.192 -1.625,0.217 -1.086,-1.409 -4.117,-4.225 -5.635,-5.201 -1.625,-0.975 -2.168,0.109 -0.975,1.3 1.084,1.192 3.467,4.117 3.467,4.984 0,0.758 -2.059,1.3 -3.467,1.3 -4.009,0 -9.86,-2.493 -13.543,-5.092 -0.541,-0.325 -1.192,-0.65 -1.949,-0.65 z m 42.362,-15.385 c -1.191,0.65 -0.975,1.518 -0.217,2.384 0.977,1.191 2.816,4.55 1.625,10.726 2.493,-2.384 2.71,-9.535 -1.408,-13.11 z M 95.077,56.007 c 0,1.3 0.651,4.549 0.434,5.742 -0.434,0.65 -0.325,1.409 1.192,0.975 0,0 0.217,-3.9 -0.325,-6.934 z"
     id="path34"
     style="clip-rule:evenodd;fill-rule:evenodd" />
  <path
     d="m 97.137,55.681 c 0,0 0.648,6.935 0.324,8.451 l -1.408,1.084 c -2.492,-0.542 -5.201,0 -7.584,0 -1.083,0 -1.95,0.975 -1.409,2.058 0,0 1.193,-0.975 2.167,-0.433 -0.433,0.216 -1.733,1.083 -0.867,2.383 0.325,-0.759 1.192,-0.434 2.276,-1.734 2.058,0 4.875,-0.866 6.392,-0.758 0.758,0 1.408,-1.408 1.518,-1.95 0,0 1.732,-2.817 2.816,-3.576 1.191,-0.651 -0.541,-0.542 -1.191,-0.217 l -1.191,0.975 c 0.217,-1.3 0,-4.659 -0.326,-6.501 -0.002,10e-4 -1.843,-0.756 -1.517,0.218 z m 42.361,110.622 c 2.168,1.299 4.77,2.385 3.252,3.9 l -0.977,0.434 c 4.986,-1.734 11.918,-4.117 13.111,-5.201 0,-1.732 -3.033,-3.9 -5.201,-4.768 -2.6,-1.299 -10.186,-4.225 -10.186,-7.367 v 13.002 z"
     id="path36"
     style="clip-rule:evenodd;fill-rule:evenodd" />
  <path
     d="M 88.252,50.589 C 86.518,49.072 72,50.915 72,39.538 c 0,-4.009 -0.107,-7.476 0.759,-9.317 0.325,-0.434 1.299,-0.976 1.083,0.216 -0.434,3.035 -0.217,7.151 -0.217,8.993 0,5.742 6.934,8.126 14.194,9.209 2.817,0.434 5.2,4.876 6.392,6.501 -3.142,-0.217 -4.55,-3.034 -5.959,-4.551 z"
     fill="#677179"
     id="path38"
     style="clip-rule:evenodd;fill-rule:evenodd" />
  <path
     d="m 87.819,48.639 c -7.26,-1.083 -14.194,-3.467 -14.194,-9.209 0,-1.842 -0.217,-5.958 0.217,-8.993 0.216,-1.192 -0.759,-0.649 -1.083,-0.216 C 71.892,32.062 72,35.529 72,39.538 c 0,11.377 14.519,9.535 16.253,11.051 1.408,1.517 2.816,4.334 5.958,4.551 -1.192,-1.625 -3.575,-6.068 -6.392,-6.501 z"
     fill="#677179"
     id="path40"
     style="clip-rule:evenodd;fill-rule:evenodd" />
  <path
     d="M 88.252,50.589 C 86.518,49.072 72,50.915 72,39.538 c 0,-4.009 -0.107,-7.476 0.759,-9.317 0.325,-0.434 1.299,-0.976 1.083,0.216 -0.434,3.035 -0.217,7.151 -0.217,8.993 0,5.742 6.934,8.126 14.194,9.209 2.817,0.434 5.2,4.876 6.392,6.501 -3.142,-0.217 -4.55,-3.034 -5.959,-4.551 z"
     fill="#626a71"
     id="path42"
     style="clip-rule:evenodd;fill-rule:evenodd" />
  <path
     d="m 87.819,48.639 c -7.26,-1.083 -14.194,-3.467 -14.194,-9.209 0,-1.842 -0.217,-5.958 0.217,-8.993 0.216,-1.192 -0.759,-0.649 -1.083,-0.216 C 71.892,32.062 72,35.529 72,39.538 c 0,11.377 14.519,9.535 16.253,11.051 1.408,1.517 2.816,4.334 5.958,4.551 -1.192,-1.625 -3.575,-6.068 -6.392,-6.501 z"
     fill="#626a71"
     id="path44"
     style="clip-rule:evenodd;fill-rule:evenodd" />
  <path
     d="M 88.252,50.589 C 86.518,49.072 72,50.915 72,39.538 c 0,-4.009 -0.107,-7.476 0.759,-9.317 0.325,-0.434 1.299,-0.976 1.083,0.216 -0.434,3.035 -0.217,7.151 -0.217,8.993 0,5.742 6.934,8.126 14.194,9.209 2.817,0.434 5.2,4.876 6.392,6.501 -3.142,-0.217 -4.55,-3.034 -5.959,-4.551 z"
     fill="#5d6469"
     id="path46"
     style="clip-rule:evenodd;fill-rule:evenodd" />
  <path
     d="m 87.819,48.639 c -7.26,-1.083 -14.194,-3.467 -14.194,-9.209 0,-1.842 -0.217,-5.958 0.217,-8.993 0.216,-1.192 -0.759,-0.649 -1.083,-0.216 C 71.892,32.062 72,35.529 72,39.538 c 0,11.377 14.519,9.535 16.253,11.051 1.408,1.517 2.816,4.334 5.958,4.551 -1.192,-1.625 -3.575,-6.068 -6.392,-6.501 z"
     fill="#5d6469"
     id="path48"
     style="clip-rule:evenodd;fill-rule:evenodd" />
  <path
     d="M 88.252,50.589 C 86.518,49.072 72,50.915 72,39.538 c 0,-4.009 -0.107,-7.476 0.759,-9.317 0.325,-0.434 1.299,-0.976 1.083,0.216 -0.434,3.035 -0.217,7.151 -0.217,8.993 0,5.742 6.934,8.126 14.194,9.209 2.817,0.434 5.2,4.876 6.392,6.501 -3.142,-0.217 -4.55,-3.034 -5.959,-4.551 z"
     fill="#585e63"
     id="path50"
     style="clip-rule:evenodd;fill-rule:evenodd" />
  <path
     d="m 87.819,48.639 c -7.26,-1.083 -14.194,-3.467 -14.194,-9.209 0,-1.842 -0.217,-5.958 0.217,-8.993 0.216,-1.192 -0.759,-0.649 -1.083,-0.216 C 71.892,32.062 72,35.529 72,39.538 c 0,11.377 14.519,9.535 16.253,11.051 1.408,1.517 2.816,4.334 5.958,4.551 -1.192,-1.625 -3.575,-6.068 -6.392,-6.501 z"
     fill="#585e63"
     id="path52"
     style="clip-rule:evenodd;fill-rule:evenodd" />
  <path
     d="m 87.819,48.639 c 2.817,0.434 5.2,4.876 6.392,6.501 -3.142,-0.217 -4.55,-3.034 -5.958,-4.551 C 86.518,49.072 72,50.915 72,39.538 c 0,-4.009 -0.107,-7.476 0.759,-9.317 0.325,-0.434 1.299,-0.976 1.083,0.216 -0.434,3.035 -0.217,7.151 -0.217,8.993 0,5.741 6.934,8.126 14.194,9.209 z"
     fill="#52565b"
     id="path54"
     style="clip-rule:evenodd;fill-rule:evenodd" />
  <path
     d="m 73.625,39.43 c 0,-1.842 -0.217,-5.958 0.217,-8.993 0.216,-1.192 -0.759,-0.649 -1.083,-0.216 C 71.892,32.062 72,35.529 72,39.538 c 0,11.377 14.519,9.535 16.253,11.051 1.408,1.517 2.816,4.334 5.958,4.551 -1.192,-1.625 -3.575,-6.068 -6.392,-6.501 -7.26,-1.083 -14.194,-3.468 -14.194,-9.209 z"
     id="path56"
     style="clip-rule:evenodd;fill-rule:evenodd" />
  <path
     d="m 73.625,39.43 c 0,-1.842 -0.217,-5.958 0.217,-8.993 0.216,-1.192 -0.759,-0.649 -1.083,-0.216 C 71.892,32.062 72,35.529 72,39.538 c 0,7.871 6.945,9.414 11.802,10.12 0.577,-0.497 1.145,-0.96 1.712,-1.417 C 79.159,47.004 73.625,44.559 73.625,39.43 Z"
     fill="#434549"
     id="path58"
     style="clip-rule:evenodd;fill-rule:evenodd" />
  <path
     d="m 73.625,39.43 c 0,-1.842 -0.217,-5.958 0.217,-8.993 0.216,-1.192 -0.759,-0.649 -1.083,-0.216 C 71.892,32.062 72,35.529 72,39.538 c 0,4.726 2.514,7.153 5.567,8.506 0.581,-0.536 1.164,-1.076 1.75,-1.625 -3.363,-1.473 -5.692,-3.667 -5.692,-6.989 z"
     fill="#393a3c"
     id="path60"
     style="clip-rule:evenodd;fill-rule:evenodd" />
  <path
     d="M 73.842,30.437 C 74.058,29.245 73.083,29.788 72.759,30.221 71.892,32.062 72,35.529 72,39.538 c 0,2.002 0.467,3.575 1.217,4.848 0.501,-0.463 1.004,-0.931 1.509,-1.402 A 6.122,6.122 0 0 1 73.625,39.43 c 0,-1.842 -0.217,-5.959 0.217,-8.993 z"
     fill="#262728"
     id="path62"
     style="clip-rule:evenodd;fill-rule:evenodd" />
  <path
     d="m 73.842,30.437 c 0.216,-1.192 -0.759,-0.649 -1.083,-0.216 -0.722,1.534 -0.767,4.204 -0.761,7.368 l 1.579,-1.542 c -0.016,-1.811 0.018,-3.881 0.265,-5.61 z"
     id="path64"
     style="clip-rule:evenodd;fill-rule:evenodd" />
  <path
     d="m 98.979,61.965 c 0.217,-1.3 0,-4.659 -0.326,-6.501 z"
     fill="#585e63"
     id="path66"
     style="clip-rule:evenodd;fill-rule:evenodd" />
</svg>
