<?xml version="1.0" encoding="UTF-8" standalone="no"?>
<svg
   width="2500"
   height="2500"
   viewBox="0 0 192.756 192.756"
   version="1.1"
   id="svg14"
   sodipodi:docname="Charlton Athletic.svg"
   inkscape:version="1.1.1 (3bf5ae0d25, 2021-09-20)"
   xmlns:inkscape="http://www.inkscape.org/namespaces/inkscape"
   xmlns:sodipodi="http://sodipodi.sourceforge.net/DTD/sodipodi-0.dtd"
   xmlns="http://www.w3.org/2000/svg"
   xmlns:svg="http://www.w3.org/2000/svg">
  <defs
     id="defs18" />
  <sodipodi:namedview
     id="namedview16"
     pagecolor="#ffffff"
     bordercolor="#666666"
     borderopacity="1.0"
     inkscape:pageshadow="2"
     inkscape:pageopacity="0.0"
     inkscape:pagecheckerboard="0"
     showgrid="false"
     inkscape:zoom="0.2276"
     inkscape:cx="1250"
     inkscape:cy="1250"
     inkscape:window-width="1920"
     inkscape:window-height="1137"
     inkscape:window-x="1592"
     inkscape:window-y="-8"
     inkscape:window-maximized="1"
     inkscape:current-layer="svg14" />
  <path
     d="m 96.378,9.046 c 48.101,0 87.333,39.231 87.333,87.332 0,48.101 -39.232,87.333 -87.333,87.333 -48.101,0 -87.333,-39.232 -87.333,-87.333 0,-48.101 39.232,-87.332 87.333,-87.332 z"
     id="path4"
     style="clip-rule:evenodd;fill-rule:evenodd" />
  <path
     d="m 54.717,161.049 3.086,1.975 1.69,-6.055 z m -9.184,1.781 14.905,-11.592 4.269,2.746 -4.576,18.182 -4.12,-2.637 0.531,-2.025 -5.311,-3.396 -1.648,1.311 z m 25.871,-0.848 -4.609,12.807 -4.102,-1.664 4.525,-12.83 -3.021,-1.25 1.76,-4.113 9.963,4 -1.491,4.301 z m 1.068,14.608 4.275,-17.391 4.102,0.867 -1.252,6.104 3.805,0.779 1.253,-6.102 4.279,0.809 -3.346,17.754 -4.516,-0.928 1.393,-6.969 -3.805,-0.779 -1.671,6.781 z m 27.516,-1.303 -0.115,4.783 -11.141,-0.533 1.211,-17.777 4.424,0.289 -0.634,12.885 z m 11.893,-1.631 0.75,4.68 -10.824,1.322 -1.986,-17.703 9.617,-1.041 0.848,4.453 -5.41,0.559 0.256,2.02 3.99,-0.447 0.525,4.68 -3.99,0.447 0.186,1.758 z m 7.129,-10.717 3.537,12.834 -4.469,1.23 -3.535,-12.834 -3.209,0.904 -1.014,-4.41 10.408,-3.078 1.4,4.316 z m 14.09,8.303 -4.23,1.832 -7.074,-16.35 4.23,-1.83 z m 12.505,-7.527 a 6.638,6.638 0 0 1 -0.793,0.799 9.877,9.877 0 0 1 -1.02,0.762 c -2.344,1.545 -4.703,2.094 -7.074,1.646 -2.373,-0.445 -4.301,-1.791 -5.783,-4.041 -1.488,-2.254 -1.963,-4.613 -1.434,-7.076 0.533,-2.465 1.961,-4.465 4.283,-5.996 0.27,-0.178 0.734,-0.43 1.057,-0.594 0.32,-0.162 0.918,-0.316 1.293,-0.455 l 2.688,4.361 a 6.543,6.543 0 0 0 -1.268,0.34 c -0.391,0.15 -0.746,0.332 -1.064,0.543 -1.166,0.768 -1.896,1.721 -2.197,2.861 -0.303,1.143 -0.119,2.221 0.549,3.234 0.666,1.01 1.588,1.615 2.766,1.816 1.174,0.199 2.223,0.025 3.314,-0.695 0.393,-0.26 0.746,-0.566 1.066,-0.924 a 6.85,6.85 0 0 0 0.854,-1.201 z M 96.378,35.429 c 33.569,0 60.95,27.379 60.95,60.949 0,33.569 -27.381,60.95 -60.95,60.95 -33.57,0 -60.949,-27.381 -60.949,-60.95 0,-33.57 27.379,-60.949 60.949,-60.949 z"
     fill="#ffffff"
     id="path6"
     style="clip-rule:evenodd;fill-rule:evenodd" />
  <path
     d="m 96.378,38.332 c 31.972,0 58.046,26.075 58.046,58.046 0,31.97 -26.074,58.046 -58.046,58.046 -31.971,0 -58.046,-26.076 -58.046,-58.046 0,-31.971 26.075,-58.046 58.046,-58.046 z"
     fill="#cd3529"
     id="path8"
     style="clip-rule:evenodd;fill-rule:evenodd" />
  <path
     d="m 102.975,112.453 h 14.734 c 2.115,0.021 6.473,2.75 6.473,5.273 0,1.205 -0.908,2.164 -2.113,2.164 -0.82,0 -1.535,-0.453 -1.91,-1.123 -1.582,-2.027 -2.51,-2.551 -3.58,-2.551 H 80.605 c -3.788,0 -7.154,-1.393 -7.89,-3.764 -0.753,-1.592 -0.762,-5.6 2.458,-6.168 4.89,-0.754 3.478,6.168 7.996,6.168 h 6.612 V 60.116 c 0,-4.79 3.08,-10.124 6.597,-17.353 3.601,7.385 6.61,12.718 6.61,17.508 z m 37.312,15.442 a 54.551,54.551 0 0 1 -19.68,16.816 c -7.793,-7.369 -16.57,-11.496 -17.633,-11.344 v 4.513 h -0.01 c -0.186,3.469 -3.074,6.24 -6.587,6.24 -3.609,0 -6.558,-2.926 -6.595,-6.525 h -10e-4 v -0.039 -0.031 c 0,-0.758 0.129,-1.484 0.365,-2.162 0.356,-1.311 0.817,-2.586 0.621,-3.855 -1.811,-1.092 -1.468,-2.75 -1.521,-4.068 -1.22,-1.406 -1.345,-2.994 -0.797,-4.266 -1.355,-1.061 -1.82,-2.467 -1.07,-4.301 h 15.686 c 0.926,0 4.369,1.104 5.217,1.471 4.333,2.406 15.079,-0.559 32.005,7.551 z M 53.89,47.167 a 6.316,6.316 0 0 1 -0.617,0.942 9.713,9.713 0 0 1 -0.845,0.951 c -1.985,1.985 -4.186,2.996 -6.6,3.036 -2.414,0.04 -4.572,-0.89 -6.477,-2.795 -1.91,-1.909 -2.851,-4.125 -2.826,-6.645 0.025,-2.522 1.2,-4.944 3.167,-6.911 0.229,-0.229 0.484,-0.454 0.767,-0.679 0.281,-0.224 1.123,-0.71 1.461,-0.921 l 3.373,3.831 c -0.43,0.165 -0.819,0.362 -1.174,0.588 a 5.516,5.516 0 0 0 -0.934,0.745 c -0.987,0.986 -1.689,2.246 -1.755,3.424 -0.066,1.178 0.33,2.198 1.189,3.057 0.855,0.855 1.879,1.264 3.073,1.223 1.192,-0.041 2.249,-0.344 3.174,-1.269 0.333,-0.333 0.617,-0.705 0.859,-1.119 0.24,-0.411 0.438,-0.861 0.594,-1.348 z m 1.169,-1.303 -9.961,-14.768 3.822,-2.578 3.483,5.165 3.22,-2.172 -3.483,-5.165 3.822,-2.578 9.961,14.768 -3.823,2.578 -3.872,-5.741 -3.22,2.172 3.872,5.74 z m 15.514,-16.218 3.443,-1.252 -3.783,-5.021 z m -4.163,8.377 -0.108,-18.913 4.653,-1.738 11.737,14.726 -4.595,1.672 -1.288,-1.653 -5.924,2.156 0.041,2.106 z m 20.507,-15.782 0.449,-0.047 c 0.824,-0.087 1.43,-0.341 1.824,-0.762 0.392,-0.419 0.551,-0.988 0.476,-1.707 -0.077,-0.728 -0.342,-1.26 -0.798,-1.598 -0.458,-0.34 -1.073,-0.47 -1.848,-0.388 l -0.57,0.06 z m -3.598,9.872 -1.861,-17.716 5.009,-0.526 c 2.333,-0.245 4.164,0.044 5.494,0.872 1.33,0.828 2.093,2.151 2.285,3.976 0.11,1.047 -0.045,1.984 -0.463,2.808 a 3.902,3.902 0 0 1 -1.889,1.818 l 4.715,7.372 -5.034,0.529 -4.379,-6.755 0.708,7.141 z m 24.058,-5.154 -0.416,4.835 -9.648,-0.867 1.107,-17.746 4.592,0.402 -0.857,12.862 z m 9.664,-6.63 -2.727,13.061 -4.516,-1.042 2.727,-13.061 -3.197,-0.725 0.824,-4.367 10.73,2.479 -0.668,4.41 z m 14.035,5.483 c -1.088,-0.508 -2.18,-0.549 -3.271,-0.124 -1.096,0.424 -1.906,1.204 -2.432,2.333 -0.527,1.132 -0.604,2.252 -0.229,3.358 0.373,1.105 1.107,1.912 2.205,2.424 1.088,0.507 2.178,0.548 3.27,0.123 1.096,-0.424 1.904,-1.199 2.43,-2.325 0.523,-1.124 0.598,-2.243 0.221,-3.357 -0.375,-1.114 -1.106,-1.926 -2.194,-2.432 z m 2.072,-4.5 a 9.057,9.057 0 0 1 2.668,1.876 7.926,7.926 0 0 1 1.719,2.613 9.52,9.52 0 0 1 0.756,3.937 9.57,9.57 0 0 1 -0.91,3.885 9.602,9.602 0 0 1 -2.4,3.201 9.65,9.65 0 0 1 -3.502,1.966 8.204,8.204 0 0 1 -3.123,0.354 8.909,8.909 0 0 1 -3.137,-0.83 8.837,8.837 0 0 1 -2.643,-1.865 8.33,8.33 0 0 1 -1.736,-2.62 9.561,9.561 0 0 1 -0.734,-3.927 9.669,9.669 0 0 1 0.922,-3.904 9.65,9.65 0 0 1 2.389,-3.209 9.424,9.424 0 0 1 3.48,-1.948 8.17,8.17 0 0 1 3.127,-0.36 8.96,8.96 0 0 1 3.124,0.831 z m 0.903,21.113 11.688,-13.444 1.879,1.591 -0.467,10.594 5.473,-6.243 3.383,3.018 -11.688,13.444 -1.846,-1.73 0.662,-10.751 -5.604,6.545 z"
     fill="#ffffff"
     id="path10"
     style="clip-rule:evenodd;fill-rule:evenodd" />
</svg>
