<?xml version="1.0" encoding="UTF-8" standalone="no"?>
<svg
   width="2500"
   height="2500"
   viewBox="0 0 192.756 192.756"
   version="1.1"
   id="svg30"
   sodipodi:docname="Derby County.svg"
   inkscape:version="1.1.1 (3bf5ae0d25, 2021-09-20)"
   xmlns:inkscape="http://www.inkscape.org/namespaces/inkscape"
   xmlns:sodipodi="http://sodipodi.sourceforge.net/DTD/sodipodi-0.dtd"
   xmlns="http://www.w3.org/2000/svg"
   xmlns:svg="http://www.w3.org/2000/svg">
  <defs
     id="defs34" />
  <sodipodi:namedview
     id="namedview32"
     pagecolor="#ffffff"
     bordercolor="#666666"
     borderopacity="1.0"
     inkscape:pageshadow="2"
     inkscape:pageopacity="0.0"
     inkscape:pagecheckerboard="0"
     showgrid="false"
     inkscape:zoom="0.2276"
     inkscape:cx="1250"
     inkscape:cy="1250"
     inkscape:window-width="1920"
     inkscape:window-height="1137"
     inkscape:window-x="1592"
     inkscape:window-y="-8"
     inkscape:window-maximized="1"
     inkscape:current-layer="svg30" />
  <path
     d="m 2.834,134.762 20.841,-1.898 -8.496,-18.832 c 11.984,6.098 24.022,12.029 36.006,17.512 l -1.802,16.16 -16.43,2.58 C 22.952,145.455 12.836,140.205 2.834,134.762 Z"
     id="path4"
     style="clip-rule:evenodd;fill-rule:evenodd" />
  <path
     d="m 56.632,35.737 c 0.859,0.042 3.743,0.008 5.402,0.919 0.299,0.164 1.149,2.478 1.487,2.549 22.646,4.746 56.07,7.914 69.17,6.769 l 6.066,10.167 -3.082,4.238 14.592,24.779 c -4.596,10.257 -3.873,17.502 -0.727,31.123 -4.83,-7.859 -21.906,-18.008 -29.734,-20.347 -14.498,-4.334 -28.6,-1.467 -40.748,5.634 l 4.566,15.162 -5.582,3.25 c -3.37,-9.611 -5.593,-14.209 -17.164,-13.197 L 42.932,66.858 Z"
     fill="#ffffff"
     id="path6"
     style="clip-rule:evenodd;fill-rule:evenodd" />
  <path
     d="m 151.971,122.252 c -5.451,-15.125 -6.992,-24.396 0.822,-34.134 -7.045,-9.112 -9.549,-17.841 -14.605,-27.069 l 3.963,-4.799 -7.666,-12.345 c -22.486,-0.182 -46.433,-1.322 -68.438,-6.514 -1.056,-1.22 -1.228,-1.393 -2.36,-1.906 -0.578,-0.262 -2.53,-1.011 -4.516,-0.862 4.158,5.089 6.226,12.261 6.304,19.168 0.117,10.431 -6.049,20.264 -15.603,24.302 L 44.237,66.744 c 6.848,-1.682 13.858,-3.327 16.462,-10.706 1.117,-3.164 2.081,-6.583 1.565,-9.921 -0.966,-6.242 -4.521,-12.208 -9.66,-15.717 -4.215,-2.877 -9.401,-4.442 -14.743,-4.599 -6.426,-0.19 -15.716,2.394 -21.212,10.907 -4.959,1 -8.818,4.8 -8.689,9.983 0.146,5.838 8.725,7.047 8.759,13.926 0.021,4.552 -3.32,4.566 -6.064,4.422 2.447,1.947 5.9,3.189 8.194,-1.212 0.878,0.221 3.295,4.324 4.202,4.942 3.854,2.627 6.815,6.909 9.214,10.472 l 6.725,0.495 1.803,-0.665 0.207,-1.108 1.263,-0.647 0.118,-5.75 0.57,-0.05 3.458,7.687 c -0.874,2.012 0.262,4.031 1.744,4.416 2.866,6.403 7.874,20.541 10.077,25.869 6.242,-1.434 10.105,-0.652 12.576,1.684 2.8,2.646 3.813,7.291 4.476,12.973 l 4.291,-2.93 c -1.011,-6.152 -2.853,-10.91 -6.29,-13.783 -2.849,-2.383 -6.791,-3.473 -12.261,-2.99 L 51.483,81.57 C 62.579,75.75 68.866,66.112 68.914,53.6 c 0.015,-3.903 -0.746,-8.258 -2.008,-11.793 22.057,4.375 38.954,5.623 65.209,6.396 l 5.012,7.668 -3.246,4.461 c 4.295,8.673 8.105,19.405 14.123,27.673 -2.689,5.449 -6.311,10.834 -3.096,23.137 -4.547,-4.666 -8.734,-9.17 -14.316,-12.348 -9.377,-5.338 -15.965,-6.677 -25.215,-6.674 -7.012,0.003 -14.135,1.021 -23.206,4.7 -2.624,1.064 -5.816,2.457 -6.078,5.58 -0.101,1.199 -0.134,2.076 0.897,4.389 2.346,5.92 4.832,12.676 5.074,18.541 l 4.351,-2.797 c -0.732,-7.799 -5.044,-14.914 -5.28,-20.221 4.079,-3.398 11.494,-5.311 17.665,-5.987 7.936,-0.87 16.471,-0.994 23.293,2.341 17.059,8.338 22.02,17.25 26.852,26.254 z"
     id="path8"
     style="clip-rule:evenodd;fill-rule:evenodd" />
  <path
     d="m 137.598,115.672 -2.916,-7.133 c -2.629,-1.857 -5.246,-3.607 -7.797,-4.588 2.734,4.633 5.232,9.289 7.381,13.975 z"
     id="path10"
     style="clip-rule:evenodd;fill-rule:evenodd" />
  <path
     d="M 59.093,49.136 C 59.138,37.663 49.649,29.47 38.558,29.396 30.097,29.34 17.833,35.158 17.881,45.002 c 0.014,2.934 1.218,5.722 4.157,6.937 3.682,-1.482 4.247,-4.114 5.083,-6.895 1.598,-5.314 6.016,-9.714 11.902,-9.668 3.219,0.025 6.581,1.506 9.449,3.755 2.269,1.779 3.789,5.269 3.711,8.479 -0.054,2.197 -1.342,4.263 -2.675,5.562 -0.205,4.179 -0.79,7.974 -4.708,11.2 8.392,-0.058 14.262,-7.346 14.293,-15.236 z"
     fill="#ffffff"
     id="path12"
     style="clip-rule:evenodd;fill-rule:evenodd" />
  <path
     d="m 45.699,54.535 c -0.295,-3.146 -2.964,-5.544 -6.056,-5.536 -3.438,0.01 -5.741,2.888 -5.749,6.267 -0.007,3.333 3.109,7.146 5.502,8.079 l -4.11,1.092 c -2.995,-2.295 -4.858,-5.911 -5.088,-9.228 -0.381,-5.489 4.311,-10.114 9.697,-10.354 3.05,-0.136 6.676,1.655 8.43,4.824 2.013,-5.962 -3.402,-10.259 -8.863,-10.169 -7.302,0.12 -8.059,6.132 -11.103,11.131 -1.263,2.847 -2.312,3.259 -3.836,3.863 0.695,2.838 0.076,6.169 -1.174,9.104 1.277,2.314 3.31,3.67 5,5.364 l 4.938,7.317 5.371,0.275 c -0.107,-0.354 -0.319,-0.584 -0.636,-0.689 -0.793,-0.277 -1.049,-0.321 -1.254,-0.648 -0.259,-0.416 -0.404,-0.813 -0.315,-1.149 0.115,-0.432 0.583,-0.74 1.316,-0.623 0.561,0.09 0.975,1.291 1.761,1.475 l 0.319,-6.798 c -1.402,0.349 -6.941,0.652 -11.343,-2.947 5.606,1.001 9.68,0.146 12.698,-2.382 2.325,-1.947 4.79,-5.139 4.495,-8.268 z m -24.272,7.337 c 0.555,-1.693 0.812,-4.549 0.094,-5.87 -2.23,-4.1 -7.378,-4.496 -7.343,-10.854 0.015,-2.541 0.828,-5.408 2.134,-7.215 -2.683,1.643 -5.057,4.258 -5.168,6.968 -0.229,5.535 4.312,7.666 6.52,10.745 1.678,2.339 1.934,4.621 1.665,6.247 0.238,0.855 1.847,1.486 2.098,-0.021 z"
     fill="#ffffff"
     id="path14"
     style="clip-rule:evenodd;fill-rule:evenodd" />
  <path
     d="m 50.001,133.324 c -0.958,0.641 -1.67,0.738 -3.39,0.582 -3.755,-0.422 -6.25,-2.152 -9.25,-2.504 -0.857,-0.1 -1.602,0.312 -1.677,0.807 a 0.651,0.651 0 0 0 0.14,0.264 c 2.344,2.266 9.399,4.443 13.547,5.566 z"
     fill="#f8d930"
     id="path16"
     style="clip-rule:evenodd;fill-rule:evenodd" />
  <path
     d="m 189.922,134.762 -20.84,-1.898 8.494,-18.832 c -11.982,6.098 -24.021,12.029 -36.006,17.512 l 1.803,16.158 16.43,2.582 c 10.002,-4.829 20.117,-10.079 30.119,-15.522 z"
     id="path18"
     style="clip-rule:evenodd;fill-rule:evenodd" />
  <path
     d="m 142.756,133.322 c 0.957,0.643 1.67,0.74 3.389,0.584 3.756,-0.422 6.252,-2.152 9.25,-2.504 0.857,-0.1 1.602,0.312 1.678,0.807 a 0.651,0.651 0 0 1 -0.141,0.264 c -2.344,2.266 -9.398,4.441 -13.547,5.566 z"
     fill="#f8d930"
     id="path20"
     style="clip-rule:evenodd;fill-rule:evenodd" />
  <path
     d="m 96.378,166.961 c 16.737,0.074 34.944,-0.846 51.128,-5.359 6.473,-1.805 12.49,-4.457 17.172,-8.225 1.068,-5.691 -1.012,-14.307 -4.451,-19.361 -0.803,-1.18 -2.152,-2.674 -3.08,-3.385 0.102,0.277 0.074,1.562 -0.215,1.842 -3.018,2.916 -13.838,5.686 -16.221,6.25 -14.678,3.488 -30.055,3.77 -44.333,3.77 -14.278,0 -29.655,-0.281 -44.333,-3.768 -2.381,-0.566 -13.204,-3.336 -16.221,-6.252 -0.288,-0.279 -0.316,-1.564 -0.213,-1.842 -0.929,0.711 -2.278,2.205 -3.081,3.385 -3.439,5.055 -5.52,13.67 -4.451,19.363 4.681,3.766 10.698,6.418 17.171,8.225 16.184,4.511 34.391,5.433 51.128,5.357 z"
     id="path22"
     style="clip-rule:evenodd;fill-rule:evenodd" />
  <path
     d="m 96.378,165.793 c 17.298,0.002 50.95,-0.898 67.284,-13.029 0.795,-5.889 -1.564,-15.26 -5.844,-19.812 -0.531,1.062 -2.859,2.23 -5.041,3.166 -5.162,2.217 -12.35,3.805 -13.814,4.152 -13.979,3.322 -29.037,3.312 -42.585,3.398 -13.547,-0.086 -28.606,-0.076 -42.584,-3.398 -1.465,-0.348 -8.652,-1.936 -13.815,-4.152 -2.18,-0.936 -4.51,-2.104 -5.041,-3.166 -4.279,4.553 -6.638,13.924 -5.843,19.812 16.334,12.131 49.986,13.031 67.283,13.029 z m 89.808,-30.266 -18.855,-1.566 8.199,-17.795 c -10.602,5.465 -21.205,10.682 -31.807,15.533 -0.273,0.135 -0.723,0.299 -0.938,0.529 0.711,0.52 1.912,0.76 3.414,0.562 2.072,-0.27 4.107,-1.037 5.811,-1.643 1.121,-0.398 2.539,-0.936 3.762,-0.91 0.664,0.014 1.287,0.227 1.615,0.588 0.91,0.764 2.104,2.109 2.84,3.189 2.205,3.242 3.852,7.945 4.469,12.404 7.161,-3.281 14.325,-6.99 21.49,-10.891 z m -179.616,0 18.856,-1.566 -8.2,-17.795 c 10.603,5.467 21.206,10.684 31.808,15.533 0.274,0.135 0.723,0.299 0.937,0.529 -0.711,0.52 -1.911,0.76 -3.414,0.564 -2.073,-0.271 -4.106,-1.039 -5.81,-1.645 -1.121,-0.398 -2.539,-0.936 -3.762,-0.91 -0.663,0.014 -1.287,0.227 -1.615,0.588 -0.91,0.764 -2.104,2.109 -2.84,3.189 -2.205,3.242 -3.852,7.945 -4.468,12.406 -7.164,-3.283 -14.328,-6.992 -21.492,-10.893 z"
     fill="#f8d930"
     id="path24"
     style="clip-rule:evenodd;fill-rule:evenodd" />
  <path
     d="m 40.447,143.318 a 6.67,6.67 0 0 1 1.475,0.361 c 2.615,0.992 3.627,2.953 2.587,5.693 -1.028,2.709 -3.573,3.141 -5.907,2.256 a 5.908,5.908 0 0 1 -1.101,-0.545 z m -4.157,6.143 c -0.35,0.924 -0.541,1.711 -1.526,1.947 l -0.018,0.047 3.758,1.426 c 3.508,1.33 6.691,0.066 7.862,-3.02 1.182,-3.115 -0.305,-5.9 -3.875,-7.254 l -3.836,-1.457 -0.018,0.049 c 0.709,0.537 0.166,1.639 -0.107,2.359 z m 13.64,5.437 2.035,0.652 c 1.058,0.334 2.262,0.238 3.237,-0.303 l 0.049,0.012 -1.206,1.982 -6.821,-1.496 0.011,-0.049 c 0.899,-0.113 1.066,-1.346 1.228,-2.08 l 1.352,-6.168 c 0.166,-0.752 0.525,-1.926 -0.241,-2.418 l 0.011,-0.049 5.235,1.146 c 0.278,0.061 0.549,0.154 0.787,0.088 l 0.049,0.01 -0.42,1.914 -0.049,-0.01 c -0.378,-0.701 -1.034,-0.914 -1.787,-1.078 -0.573,-0.125 -1.148,-0.234 -1.694,-0.252 l -0.667,3.043 1.947,0.426 c 0.262,0.059 0.523,0.115 0.742,0.061 l 0.049,0.012 -0.381,1.732 -0.049,-0.01 c -0.157,-0.531 -0.847,-0.666 -1.355,-0.777 l -1.21,-0.266 z m 12.382,-7.482 c 2.22,0.328 3.257,1.668 3.033,3.176 -0.217,1.457 -1.662,2.41 -3.066,2.523 l 1.939,3.354 c 0.567,0.965 1.483,1.98 2.339,2.717 l -1.524,-0.227 c -0.877,-0.129 -1.392,-0.428 -1.798,-1.113 l -1.649,-2.803 -1.177,-2.561 c 1.355,-0.002 2.987,-0.387 3.218,-1.943 0.177,-1.193 -0.746,-2.041 -1.864,-2.156 a 8.564,8.564 0 0 0 -1.146,-0.035 l -1.103,7.422 c -0.114,0.762 -0.393,1.955 0.408,2.379 l -0.007,0.051 -3.164,-0.471 0.007,-0.049 c 0.889,-0.174 0.955,-1.416 1.065,-2.162 l 0.928,-6.244 c 0.113,-0.762 0.409,-1.955 -0.389,-2.395 l 0.008,-0.051 z m 6.855,10.625 0.407,-4.115 1.173,0.047 c 1.475,0.062 2.972,0.918 2.812,2.535 -0.157,1.582 -1.603,2.078 -2.956,1.811 z m -1.599,-1.184 c -0.076,0.766 -0.097,1.992 -0.961,2.227 l -0.005,0.051 2.75,0.271 c 1.25,0.123 2.562,0.303 3.785,-0.148 1.169,-0.422 2.161,-1.434 2.288,-2.719 0.162,-1.633 -0.956,-2.752 -2.425,-3.217 0.992,-0.324 1.771,-0.887 1.881,-2.002 0.147,-1.484 -1.044,-2.545 -3.244,-2.762 l -3.95,-0.391 -0.005,0.049 c 0.818,0.4 0.582,1.607 0.507,2.355 z m 2.115,-4.031 0.323,-3.268 1.128,-0.006 c 1.009,-0.002 2.017,0.703 1.903,1.854 -0.135,1.367 -1.721,1.58 -2.805,1.473 z m 12.409,5.414 c -0.06,1.004 -0.091,1.504 0.724,2.174 l -0.002,0.051 -3.26,-0.197 0.003,-0.049 c 0.844,-0.369 0.793,-1.463 0.841,-2.248 l 0.149,-2.475 -2.505,-4.631 c -0.407,-0.764 -0.708,-1.336 -1.483,-1.818 l 1.521,0.092 c 0.535,0.031 1.029,0.18 1.226,0.545 l 2.411,4.523 2.261,-2.984 c 0.31,-0.4 0.743,-1.178 -0.167,-1.686 l 0.003,-0.053 2.925,0.178 -4.486,5.938 z m 18.859,-6.347 c -0.924,-0.582 -1.998,-0.945 -3.104,-0.939 -2.31,0.01 -3.91,1.709 -3.899,4.137 0.012,2.463 1.696,4.648 4.276,4.637 1.256,-0.006 2.51,-0.463 3.561,-1.072 h 0.051 l -0.846,1.947 c -0.785,0.371 -1.654,0.51 -2.525,0.514 -3.953,0.018 -6.408,-2.182 -6.424,-5.766 -0.016,-3.467 2.419,-5.771 5.852,-5.787 1.021,-0.006 2.061,0.174 3.049,0.404 z m 7.785,-1.512 c 2.645,-0.141 4.324,2.135 4.455,4.576 0.133,2.492 -1.389,4.436 -3.932,4.57 -2.625,0.141 -4.408,-2.18 -4.535,-4.52 -0.134,-2.525 1.421,-4.487 4.012,-4.626 z m 0.055,-1.211 c -3.518,0.105 -6.135,2.912 -5.965,6.09 0.184,3.428 3.104,5.652 6.414,5.477 3.328,-0.178 6.023,-2.805 5.84,-6.217 -0.16,-3.01 -2.779,-5.553 -6.289,-5.35 z m 16.068,8.916 c -0.633,1.041 -1.959,1.582 -3.123,1.701 -1.102,0.113 -2.303,-0.115 -3.137,-0.855 -0.982,-0.875 -1.064,-1.994 -1.188,-3.193 l -0.457,-4.449 c -0.076,-0.748 -0.086,-1.977 -0.969,-2.207 l -0.004,-0.049 3.164,-0.326 0.006,0.049 c -0.801,0.402 -0.576,1.609 -0.498,2.359 l 0.457,4.447 c 0.229,2.217 1.268,3.152 2.984,2.977 0.932,-0.096 1.842,-0.578 2.311,-1.416 0.316,-0.539 0.256,-0.953 0.195,-1.553 l -0.516,-5.014 c -0.078,-0.75 -0.104,-1.977 -0.969,-2.207 l -0.006,-0.051 3.166,-0.326 0.021,0.049 c -0.816,0.404 -0.592,1.609 -0.514,2.375 l 0.646,6.281 c 0.078,0.75 0.104,1.977 0.984,2.205 l 0.006,0.049 -2.449,0.254 z m 6.473,-1.908 c 0.156,0.924 0.252,1.588 1.213,1.951 l 0.008,0.051 -2.922,0.494 -0.008,-0.049 c 0.787,-0.66 0.676,-1.322 0.52,-2.246 l -1.115,-6.588 c -0.156,-0.926 -0.27,-1.586 -1.211,-1.936 l -0.008,-0.049 2.41,-0.408 0.002,0.016 c 0.1,0.188 0.18,0.258 0.318,0.371 l 0.287,0.291 7.334,6.605 -1.059,-6.258 c -0.156,-0.926 -0.252,-1.588 -1.211,-1.936 l -0.008,-0.049 2.906,-0.492 0.008,0.049 c -0.775,0.641 -0.664,1.301 -0.506,2.227 l 1.568,9.264 c -1.24,-0.199 -1.844,-0.656 -2.73,-1.475 l -6.881,-6.225 z m 14.797,-3.055 c 0.248,0.922 0.402,1.557 1.395,1.826 l 0.014,0.047 -3.201,0.867 -0.014,-0.049 c 0.725,-0.527 0.311,-1.68 0.113,-2.408 l -1.949,-7.211 -1.422,0.385 c -0.695,0.188 -1.375,0.562 -1.75,1.168 l -0.049,0.012 0.047,-2.076 0.049,-0.014 c 0.215,0.029 0.426,-0.027 0.645,-0.053 l 6.434,-1.738 c 0.275,-0.074 0.529,-0.16 0.715,-0.314 l 0.047,-0.014 0.002,2.064 -0.047,0.014 c -0.363,-0.51 -1.033,-0.416 -1.566,-0.271 l -1.455,0.393 z m 9.5,-3.453 c 0.412,0.918 0.619,1.375 1.65,1.592 l 0.021,0.045 -2.979,1.338 -0.021,-0.047 c 0.578,-0.717 0.025,-1.662 -0.299,-2.381 l -1.014,-2.262 -4.369,-2.939 c -0.713,-0.488 -1.244,-0.855 -2.156,-0.922 l 1.391,-0.625 c 0.488,-0.219 0.994,-0.318 1.338,-0.086 l 4.234,2.889 0.619,-3.691 c 0.088,-0.498 0.109,-1.389 -0.932,-1.418 l -0.02,-0.045 2.674,-1.201 -1.221,7.34 z"
     id="path26"
     style="clip-rule:evenodd;fill-rule:evenodd" />
</svg>
