<?xml version="1.0" encoding="UTF-8"?>
<svg xmlns="http://www.w3.org/2000/svg" xmlns:xlink="http://www.w3.org/1999/xlink" width="456.6pt" height="567.3pt" viewBox="0 0 456.6 567.3" version="1.1">
<defs>
<clipPath id="clip1">
  <path d="M 6 0 L 453 0 L 453 567.300781 L 6 567.300781 Z M 6 0 "/>
</clipPath>
</defs>
<g id="surface1">
<g clip-path="url(#clip1)" clip-rule="nonzero">
<path style=" stroke:none;fill-rule:evenodd;fill:rgb(10.594177%,18.041992%,19.993591%);fill-opacity:1;" d="M 18.703125 41.710938 C 82.914063 11.792969 157.714844 0.554688 226.460938 0.28125 C 298.09375 -0.00390625 376.40625 11.792969 440.214844 41.710938 C 456.304688 145.769531 456.640625 243.886719 441.761719 318.589844 C 437.007813 342.464844 431.042969 363.949219 423.003906 382.472656 C 410.796875 410.582031 387.011719 442.300781 356.945313 471.753906 C 320.339844 507.613281 273.554688 541.238281 229.667969 567.210938 C 185.304688 540.800781 133.25 505.078125 93.109375 462.894531 C 74.886719 443.75 58.089844 422.90625 45.609375 401.402344 C 38.605469 389.339844 33.53125 377.351563 28.929688 364.644531 C 25.515625 355.226563 22.578125 344.417969 19.878906 332.429688 C 4.03125 262.050781 0.03125 155.019531 18.703125 41.710938 Z M 18.703125 41.710938 "/>
</g>
<path style=" stroke:none;fill-rule:evenodd;fill:rgb(94.921875%,53.709412%,0%);fill-opacity:1;" d="M 229.683594 547.785156 C 270.707031 522.855469 311.734375 493.742188 345.796875 460.371094 C 369.460938 437.191406 395.097656 406.738281 408.390625 376.125 C 416.714844 356.953125 422.0625 335.933594 426.136719 315.476563 C 437.75 257.171875 438.925781 192.25 434.304688 129.664063 C 373.917969 95.433594 297.683594 82.132813 228.003906 82.40625 C 161.675781 82.664063 86.660156 94.445313 24.417969 129.40625 C 22.691406 153.921875 21.957031 178.5 22.277344 202.960938 C 22.820313 244.554688 26.269531 288.28125 35.421875 328.929688 C 37.714844 339.101563 40.351563 349.40625 43.90625 359.21875 C 48.203125 371.074219 53.042969 382.476563 59.386719 393.40625 C 71.6875 414.589844 87.785156 434.191406 104.648438 451.914063 C 140.363281 489.441406 185.191406 520.730469 229.683594 547.785156 Z M 229.683594 547.785156 "/>
<path style=" stroke:none;fill-rule:evenodd;fill:rgb(10.594177%,18.041992%,19.993591%);fill-opacity:1;" d="M 179.351563 451.003906 L 179.351563 446.925781 C 182.820313 446.253906 185.890625 444.535156 187.488281 441.339844 L 192.085938 441.339844 L 192.085938 489.253906 L 184.445313 489.253906 L 184.445313 451.003906 Z M 179.351563 451.003906 "/>
<path style=" stroke:none;fill-rule:evenodd;fill:rgb(10.594177%,18.041992%,19.993591%);fill-opacity:1;" d="M 200.53125 451.183594 C 200.53125 450.800781 200.554688 450.292969 200.613281 449.640625 C 200.6875 448.988281 200.828125 448.269531 201.039063 447.488281 C 201.253906 446.707031 201.582031 445.914063 202.019531 445.121094 C 202.453125 444.347656 203.042969 443.640625 203.765625 442.992188 C 204.484375 442.339844 205.402344 441.816406 206.5 441.425781 C 207.597656 441.035156 208.941406 440.828125 210.507813 440.816406 C 212.042969 440.828125 213.351563 441.035156 214.460938 441.425781 C 215.558594 441.816406 216.476563 442.339844 217.21875 442.992188 C 217.960938 443.640625 218.550781 444.347656 219 445.121094 C 219.4375 445.914063 219.765625 446.707031 219.980469 447.488281 C 220.191406 448.269531 220.332031 448.988281 220.402344 449.640625 C 220.460938 450.292969 220.496094 450.800781 220.484375 451.183594 L 220.484375 478.433594 C 220.496094 479.03125 220.472656 479.714844 220.414063 480.488281 C 220.367188 481.257813 220.238281 482.0625 220.039063 482.898438 C 219.835938 483.734375 219.507813 484.550781 219.070313 485.34375 C 218.632813 486.160156 218.042969 486.898438 217.324219 487.558594 C 216.59375 488.234375 215.675781 488.765625 214.566406 489.15625 C 213.457031 489.558594 212.101563 489.765625 210.507813 489.777344 C 208.917969 489.765625 207.5625 489.558594 206.453125 489.15625 C 205.34375 488.765625 204.425781 488.234375 203.691406 487.558594 C 202.972656 486.898438 202.382813 486.160156 201.949219 485.34375 C 201.511719 484.550781 201.179688 483.734375 200.980469 482.898438 C 200.78125 482.0625 200.652344 481.257813 200.601563 480.488281 C 200.542969 479.714844 200.519531 479.03125 200.53125 478.433594 L 200.53125 475.433594 L 208.175781 475.433594 C 208.175781 477.019531 208.199219 478.355469 208.246094 479.421875 C 208.292969 480.496094 208.386719 481.335938 208.527344 481.953125 C 208.667969 482.5625 208.894531 483.007813 209.199219 483.269531 C 209.519531 483.527344 209.957031 483.660156 210.507813 483.648438 C 210.96875 483.648438 211.359375 483.550781 211.675781 483.34375 C 211.996094 483.148438 212.242188 482.832031 212.417969 482.410156 C 212.5625 481.984375 212.667969 481.441406 212.738281 480.789063 C 212.808594 480.128906 212.84375 479.347656 212.84375 478.433594 L 212.84375 469.4375 C 212.183594 469.796875 211.546875 470.089844 210.933594 470.296875 C 210.320313 470.5 209.683594 470.609375 209.023438 470.609375 C 207.714844 470.597656 206.582031 470.414063 205.640625 470.046875 C 204.707031 469.675781 203.929688 469.175781 203.304688 468.566406 C 202.679688 467.957031 202.183594 467.296875 201.804688 466.566406 C 201.441406 465.839844 201.15625 465.089844 200.96875 464.328125 C 200.792969 463.570313 200.675781 462.851563 200.613281 462.179688 C 200.554688 461.503906 200.53125 460.949219 200.53125 460.503906 Z M 212.84375 449.097656 C 212.84375 448.890625 212.773438 448.609375 212.632813 448.28125 C 212.492188 447.945313 212.242188 447.640625 211.902344 447.371094 C 211.558594 447.109375 211.097656 446.957031 210.507813 446.945313 C 209.964844 446.957031 209.53125 447.109375 209.175781 447.371094 C 208.835938 447.640625 208.585938 447.945313 208.421875 448.28125 C 208.257813 448.609375 208.175781 448.890625 208.175781 449.097656 L 208.175781 462.984375 C 208.175781 463.1875 208.257813 463.472656 208.421875 463.796875 C 208.585938 464.132813 208.835938 464.4375 209.175781 464.710938 C 209.53125 464.972656 209.964844 465.125 210.507813 465.132813 C 211.050781 465.125 211.488281 465.003906 211.816406 464.785156 C 212.160156 464.570313 212.40625 464.308594 212.574219 464.003906 C 212.726563 463.699219 212.820313 463.429688 212.84375 463.179688 Z M 212.84375 449.097656 "/>
<path style=" stroke:none;fill-rule:evenodd;fill:rgb(10.594177%,18.041992%,19.993591%);fill-opacity:1;" d="M 248.957031 479.410156 C 248.957031 480.390625 248.792969 481.3125 248.578125 482.191406 C 248.367188 483.0625 248.0625 483.871094 247.683594 484.625 C 247.355469 485.273438 246.957031 485.910156 246.457031 486.507813 C 245.953125 487.105469 245.339844 487.648438 244.640625 488.148438 C 243.925781 488.65625 243.097656 489.070313 242.128906 489.351563 C 241.160156 489.636719 239.902344 489.777344 238.628906 489.777344 C 237.355469 489.777344 236.082031 489.636719 235.09375 489.351563 C 234.101563 489.070313 233.261719 488.65625 232.546875 488.148438 C 231.84375 487.648438 231.246094 487.105469 230.765625 486.507813 C 230.28125 485.910156 229.898438 485.273438 229.574219 484.625 C 229.191406 483.871094 228.886719 483.0625 228.675781 482.191406 C 228.464844 481.3125 228.300781 480.390625 228.300781 479.410156 L 228.300781 451.183594 C 228.300781 450.238281 228.464844 449.324219 228.675781 448.457031 C 228.886719 447.597656 229.195313 446.789063 229.574219 446.03125 C 229.902344 445.375 230.28125 444.738281 230.765625 444.121094 C 231.246094 443.5 231.835938 442.945313 232.546875 442.445313 C 233.253906 441.949219 234.101563 441.554688 235.09375 441.261719 C 236.082031 440.96875 237.355469 440.816406 238.628906 440.816406 C 239.902344 440.816406 241.160156 440.96875 242.128906 441.261719 C 243.097656 441.554688 243.933594 441.949219 244.640625 442.445313 C 245.347656 442.945313 245.953125 443.5 246.457031 444.121094 C 246.957031 444.738281 247.355469 445.375 247.683594 446.03125 C 248.0625 446.789063 248.367188 447.597656 248.578125 448.457031 C 248.792969 449.324219 248.957031 450.238281 248.957031 451.183594 Z M 241.316406 451.183594 C 241.316406 450.53125 241.238281 449.96875 241.078125 449.488281 C 240.917969 449 240.6875 448.554688 240.324219 448.183594 C 240.15625 448.011719 239.921875 447.894531 239.652344 447.804688 C 239.378906 447.710938 238.945313 447.664063 238.628906 447.664063 C 238.179688 447.664063 237.675781 447.765625 237.367188 447.933594 C 237.0625 448.101563 236.820313 448.320313 236.636719 448.585938 C 236.453125 448.851563 236.328125 449.132813 236.222656 449.421875 C 236.128906 449.6875 236.042969 449.953125 236 450.25 C 235.960938 450.542969 235.941406 450.855469 235.941406 451.183594 L 235.941406 479.410156 C 235.941406 480.085938 236.039063 480.671875 236.210938 481.148438 C 236.390625 481.636719 236.644531 482.058594 237.003906 482.410156 C 237.175781 482.578125 237.394531 482.699219 237.640625 482.789063 C 237.890625 482.882813 238.308594 482.933594 238.628906 482.929688 C 239.289063 482.925781 239.949219 482.75 240.300781 482.421875 C 240.65625 482.085938 240.875 481.664063 241.03125 481.171875 C 241.109375 480.933594 241.214844 480.683594 241.257813 480.390625 C 241.296875 480.097656 241.316406 479.769531 241.316406 479.410156 Z M 241.316406 451.183594 "/>
<path style=" stroke:none;fill-rule:evenodd;fill:rgb(10.594177%,18.041992%,19.993591%);fill-opacity:1;" d="M 268.148438 478.824219 L 256.332031 478.824219 L 256.332031 472.632813 L 267.511719 441.339844 L 275.15625 441.339844 L 275.15625 472.632813 L 278.691406 472.632813 L 278.691406 478.824219 L 275.15625 478.824219 L 275.15625 489.253906 L 268.148438 489.253906 Z M 262.84375 472.632813 L 268.148438 472.632813 L 268.148438 456.203125 L 267.726563 456.203125 L 267.300781 457.636719 Z M 262.84375 472.632813 "/>
<path style=" stroke:none;fill-rule:evenodd;fill:rgb(100%,100%,100%);fill-opacity:1;" d="M 304.273438 17.84375 L 313.738281 19.03125 L 306.65625 75.367188 L 297.191406 74.179688 Z M 304.273438 17.84375 "/>
<path style=" stroke:none;fill-rule:evenodd;fill:rgb(100%,100%,100%);fill-opacity:1;" d="M 354.347656 26.234375 L 352.535156 35.597656 L 342.847656 33.726563 L 333.882813 80.109375 L 324.519531 78.300781 L 333.484375 31.914063 L 323.621094 30.007813 L 325.433594 20.644531 Z M 354.347656 26.234375 "/>
<path style=" stroke:none;fill-rule:evenodd;fill:rgb(100%,100%,100%);fill-opacity:1;" d="M 275.015625 14.613281 C 285.9375 15.429688 290.039063 22.617188 289.644531 27.894531 L 289.257813 33.058594 L 279.746094 32.347656 L 280.015625 28.722656 C 280.328125 24.585938 277.851563 23.136719 273.78125 22.824219 C 269.914063 22.523438 267.246094 23.804688 266.984375 27.3125 L 264.671875 58.179688 C 264.410156 61.683594 266.859375 63.347656 270.726563 63.628906 C 274.796875 63.925781 277.460938 62.859375 277.769531 58.722656 L 278.042969 55.097656 L 287.554688 55.808594 L 287.167969 60.972656 C 286.769531 66.253906 281.648438 72.75 270.722656 71.929688 C 257.945313 70.972656 254.722656 63.316406 255.160156 57.464844 L 257.472656 26.601563 C 257.910156 20.746094 262.375 13.667969 275.015625 14.613281 Z M 275.015625 14.613281 "/>
<path style=" stroke:none;fill-rule:evenodd;fill:rgb(100%,100%,100%);fill-opacity:1;" d="M 133.933594 79.1875 C 145.230469 76.96875 148.035156 69.425781 147.011719 64.230469 L 138.363281 20.207031 L 129.003906 22.042969 L 137.359375 64.558594 C 138.15625 68.625 135.871094 70.363281 131.867188 71.15625 C 128.066406 71.914063 125.261719 70.960938 124.585938 67.507813 L 116.140625 24.539063 L 106.753906 26.238281 L 115.226563 69.347656 C 116.359375 75.105469 121.359375 81.660156 133.933594 79.1875 Z M 133.933594 79.1875 "/>
<path style=" stroke:none;fill-rule:evenodd;fill:rgb(100%,100%,100%);fill-opacity:1;" d="M 63.710938 37.253906 L 72.917969 34.769531 L 79.042969 57.472656 L 91.019531 54.242188 L 84.894531 31.539063 L 94.105469 29.054688 L 108.890625 83.875 L 99.683594 86.359375 L 93.378906 62.988281 L 81.402344 66.21875 L 87.707031 89.589844 L 78.496094 92.074219 Z M 63.710938 37.253906 "/>
<path style=" stroke:none;fill-rule:evenodd;fill:rgb(100%,100%,100%);fill-opacity:1;" d="M 159.042969 74.296875 L 185.277344 71.421875 L 184.355469 63.011719 L 167.601563 64.847656 L 162.367188 17.09375 L 152.886719 18.132813 Z M 159.042969 74.296875 "/>
<path style=" stroke:none;fill-rule:evenodd;fill:rgb(100%,100%,100%);fill-opacity:1;" d="M 194 70.65625 L 220.375 69.617188 L 220.039063 61.160156 L 203.195313 61.828125 L 201.300781 13.824219 L 191.769531 14.203125 Z M 194 70.65625 "/>
<path style=" stroke:none;fill-rule:evenodd;fill:rgb(100%,100%,100%);fill-opacity:1;" d="M 376.21875 65.757813 L 369.617188 89.21875 L 360.4375 86.636719 L 366.984375 63.363281 L 363.125 28.550781 L 372.304688 31.136719 L 374.210938 55.144531 L 388.238281 35.621094 L 397.417969 38.203125 Z M 376.21875 65.757813 "/>
<path style=" stroke:none;fill-rule:evenodd;fill:rgb(88.671875%,43.920898%,1.960754%);fill-opacity:1;" d="M 106.25 224.226563 C 104.640625 222.964844 103.128906 221.6875 102.46875 220.152344 C 100.667969 215.96875 100.765625 205.65625 103.140625 195.464844 C 103.542969 193.730469 103.597656 191.996094 104.132813 190.300781 C 104.972656 187.648438 105.78125 185.082031 107.050781 182.714844 C 108.679688 179.671875 110.894531 176.960938 112.996094 174.832031 C 119.417969 168.324219 128.144531 157.125 137.277344 149.402344 C 144.179688 143.5625 151.539063 138.851563 159.148438 134.386719 C 162.996094 132.125 166.914063 130.246094 170.867188 128.238281 C 173.796875 126.75 176.539063 125.167969 179.289063 123.832031 C 181.957031 122.539063 184.636719 121.480469 187.519531 120.4375 C 195.792969 117.441406 204.785156 115.714844 212.449219 116.195313 C 219.925781 114.269531 233.628906 115.777344 242.949219 116.238281 C 252.914063 116.726563 261.996094 116.910156 276.300781 120.75 C 288.777344 123.140625 302.109375 128.972656 309.339844 132.402344 C 311.339844 133.351563 312.59375 134.625 314.347656 135.804688 C 315.714844 136.71875 317.28125 137.300781 318.949219 137.902344 C 320.121094 138.324219 321.929688 137.507813 323.09375 137.988281 C 332.324219 141.804688 341.515625 146.09375 351.738281 151.636719 C 358.410156 148.75 367.773438 145.824219 376.078125 143.652344 C 382.746094 141.910156 388.167969 140.921875 392.511719 144.554688 C 396.167969 147.613281 398.464844 150.488281 399.316406 155.433594 C 401.34375 167.144531 397.988281 183.410156 398.066406 190.347656 C 401.128906 195.140625 407.183594 204.390625 410.75 213.46875 C 412.585938 218.136719 412.078125 221.152344 411.636719 226.167969 C 410.757813 236.121094 408.050781 241.121094 404.003906 244.910156 C 403.625 248.308594 402.722656 252.390625 401.699219 254.515625 C 400.546875 256.910156 398.285156 259.929688 396.035156 262.253906 C 395.476563 264.601563 394.441406 269.140625 391.976563 272.035156 C 388.179688 272.859375 384.710938 273.925781 381.523438 274.6875 C 379.851563 284.546875 377.9375 296.671875 374.671875 308.382813 C 374.132813 310.308594 373.554688 312.214844 372.945313 314.097656 C 372.191406 316.4375 372.222656 318.75 371.386719 321.023438 C 369.75 325.488281 370.292969 330.019531 368.578125 333.667969 C 366.867188 337.316406 363.085938 341.785156 361.324219 344.046875 C 360.046875 345.980469 359.605469 348.144531 358.539063 350.457031 C 356.347656 355.191406 353.746094 360.550781 351.519531 365.804688 C 349.101563 371.511719 346.0625 377.125 343.089844 381.644531 C 341.53125 384.011719 339.957031 385.644531 337.800781 387.394531 C 335.359375 389.378906 332.25 391.804688 329.039063 395.347656 C 324.859375 399.960938 322.617188 406.441406 320.753906 407.691406 C 318.476563 407.453125 316.980469 407.988281 315.386719 409.09375 C 314.125 407.59375 313.203125 406.515625 312.234375 404.789063 C 309.691406 412.007813 306.519531 414.515625 304.328125 415.554688 C 301.996094 416.660156 296.808594 414.25 293.726563 409.828125 C 288.097656 406.96875 281.011719 404.199219 275.769531 402.703125 C 263.261719 393.003906 246.722656 383.121094 232.195313 379.710938 C 218.207031 389.378906 204.214844 397.320313 190.226563 406.988281 C 186.183594 408.414063 181.96875 408.671875 177.738281 408.777344 C 163.917969 409.128906 149.914063 403.859375 141.125 398.625 C 137.082031 396.214844 133.214844 391.820313 131.179688 386.660156 C 127.789063 378.054688 128.238281 367.316406 132.300781 360.066406 C 129.175781 352.976563 131.957031 347.394531 136.199219 345.800781 C 137.855469 345.175781 139.742188 345.28125 141.582031 345.96875 C 145.34375 339.898438 146.097656 333.078125 144.730469 327.289063 C 143.273438 321.128906 138.566406 315.734375 133.769531 311.761719 C 129.855469 311.363281 127.96875 312.769531 127.261719 315.8125 C 126.554688 318.859375 128.765625 323.398438 130.710938 329.265625 C 131.523438 331.722656 130.917969 332.234375 130.105469 332.222656 C 125.507813 332.167969 122.128906 330.246094 119.449219 328.511719 C 112.90625 324.269531 113.761719 321.726563 112.589844 315.96875 C 112.324219 314.667969 110.179688 314.222656 109.363281 313.339844 C 108.542969 312.453125 108.433594 311.566406 107.46875 310.71875 C 105.84375 309.484375 101.097656 308.210938 99.585938 309.328125 C 94.835938 313.328125 90.308594 322.101563 87.183594 326.523438 C 89.621094 317.9375 93.863281 311.726563 97.160156 307.023438 C 96.542969 306.097656 95.28125 303.8125 94.664063 302.886719 C 92.984375 300.90625 83.875 312.011719 77.515625 321.339844 C 80.351563 312.8125 87.109375 306.054688 91.855469 300.320313 C 92.878906 299.082031 90.199219 295.855469 88.835938 296.699219 C 79.285156 302.597656 70.300781 315.433594 62.964844 326.015625 C 66.121094 317.597656 78.890625 301.90625 86.789063 294.707031 C 89.257813 292.460938 88.894531 289.84375 88.355469 287.601563 C 87.324219 283.316406 87.183594 278.628906 85.492188 273.722656 C 70.386719 269.949219 59.394531 268.195313 43.160156 265.386719 C 56.859375 265.628906 72.230469 267.117188 84.746094 269.03125 C 85.054688 266.96875 86.308594 263.9375 84.011719 262.921875 C 72.214844 257.699219 58.070313 254.371094 38.222656 253.46875 C 56.238281 251.398438 69.515625 254.972656 82.78125 259.382813 C 85.542969 260.296875 85.617188 257.945313 85.433594 255.289063 C 85.328125 253.738281 83.410156 251.292969 81.910156 251.308594 C 78.554688 251.34375 71.679688 252.101563 64.140625 252.5 C 70.332031 251.207031 73.453125 250.035156 77.550781 249.238281 C 78.765625 249.003906 78.808594 248.265625 77.132813 247.886719 C 63.460938 244.769531 44.96875 245.753906 32.359375 245.417969 C 50.671875 243.265625 60.167969 243.8125 72.757813 244.316406 C 73.398438 244.34375 77.261719 244.578125 73.367188 242.460938 C 64.296875 237.53125 49.730469 233.117188 37.914063 228.445313 C 57.183594 232.625 72.496094 239.742188 89.828125 243.652344 C 92.597656 244.277344 92.457031 241.527344 91.390625 240.515625 C 84.984375 234.445313 78.644531 231.5 69.886719 225.859375 C 78.988281 226.664063 86.847656 231.9375 93.148438 238.9375 C 97.46875 235.378906 105.644531 230.855469 106.25 224.226563 Z M 106.25 224.226563 "/>
<path style=" stroke:none;fill-rule:evenodd;fill:rgb(10.594177%,18.041992%,19.993591%);fill-opacity:1;" d="M 151.019531 229.273438 C 148.753906 231.800781 143.6875 234.160156 138.535156 235.90625 L 135.628906 235.921875 C 133.285156 237.457031 130.871094 238.582031 128.742188 239.257813 L 128.152344 238.953125 C 128.335938 238.292969 128.375 237.632813 128.277344 236.972656 L 130.136719 234.0625 L 132.84375 234.179688 C 132.816406 231.5625 132.621094 229.847656 134.414063 229.34375 C 134.828125 229.226563 135.085938 229.296875 135.773438 229.273438 L 136.421875 228.363281 L 138.199219 228.152344 L 136.136719 230.609375 C 135.933594 231.710938 135.785156 232.824219 136.355469 233.902344 C 138.609375 233.113281 140.335938 231.148438 142.492188 230.375 C 145.265625 229.378906 147.933594 229.144531 151.019531 229.273438 Z M 103.625 192.628906 C 103.746094 191.847656 103.890625 191.070313 104.132813 190.300781 C 104.972656 187.648438 105.78125 185.082031 107.050781 182.714844 C 108.679688 179.671875 110.894531 176.960938 112.996094 174.832031 C 119.417969 168.324219 128.144531 157.125 137.277344 149.402344 C 144.179688 143.5625 151.539063 138.851563 159.148438 134.386719 C 162.996094 132.125 166.914063 130.246094 170.867188 128.238281 C 173.796875 126.75 176.539063 125.167969 179.289063 123.832031 C 181.957031 122.539063 184.636719 121.480469 187.519531 120.4375 C 193.601563 118.234375 200.070313 116.71875 206.113281 116.261719 C 201.261719 117.664063 196.386719 119.246094 195.726563 122.347656 C 193.949219 123.101563 192.3125 125.511719 192.636719 126.265625 C 194.867188 128.398438 204.097656 129.308594 212.367188 128.847656 L 213.226563 130.167969 C 208.328125 131.511719 202.40625 133.007813 197.503906 133.65625 C 194.003906 132.363281 192.925781 129.660156 187.328125 130.46875 C 164.851563 135.429688 151.042969 142.589844 145.320313 146.902344 C 143.222656 148.488281 140.589844 150.699219 138.421875 152.960938 C 135.636719 155.871094 133.425781 158.863281 132.160156 160.707031 C 131.269531 162 130.726563 162.984375 131.648438 164.675781 C 133.179688 167.472656 135.550781 170.273438 137.082031 173.074219 C 137.566406 172.644531 138.050781 172.214844 138.535156 171.78125 C 139.722656 171.835938 140.90625 171.890625 142.089844 171.945313 C 143.273438 175.5 144.710938 177.554688 147.507813 178.523438 L 145.183594 184.75 C 143.535156 189.15625 138.96875 182.546875 136.746094 179.636719 C 134.230469 176.339844 126.941406 173.351563 122.703125 174.207031 C 113.777344 176.003906 109.128906 182.707031 103.625 192.628906 Z M 330.628906 343.519531 L 323.25 367.105469 L 324.929688 376.949219 L 326.636719 380.851563 L 331.273438 386.167969 L 335.152344 368.234375 L 335.152344 362.257813 L 332.566406 361.773438 L 332.082031 343.195313 Z M 351.835938 317.832031 C 350.8125 318.90625 350.253906 319.824219 350.261719 321.0625 L 350.335938 331.722656 C 349.382813 335.769531 347.300781 338.914063 335.453125 338.929688 C 335.964844 344.367188 335.824219 349.386719 335.472656 354.828125 C 337.460938 360.0625 338.949219 364.355469 338.9375 369.164063 C 338.929688 371.683594 338.453125 374.210938 337.753906 376.746094 C 337.277344 378.480469 334.953125 379.71875 335.738281 382.109375 C 337.75 382.101563 340.710938 380.59375 340.945313 377.953125 C 341.503906 374.929688 341.300781 371.476563 341.722656 368.332031 C 342.007813 366.179688 342.949219 364.234375 344.050781 362.824219 C 344.214844 360.667969 343.308594 356.09375 344.359375 354.34375 C 346.246094 353.601563 347.996094 354.164063 349.882813 355.148438 L 353.773438 355.304688 C 354.40625 351.703125 352.539063 347.777344 353.410156 345.144531 C 353.777344 344.039063 354.664063 343.148438 355.820313 342.996094 C 357.074219 342.832031 358.058594 343.117188 358.910156 342.28125 C 360.234375 340.988281 360.15625 340.007813 359.988281 337.445313 C 357.710938 334.941406 352.878906 331.070313 352.878906 326.988281 L 352.878906 323.484375 L 353.8125 322.113281 C 353.304688 320.140625 352.773438 318.722656 351.835938 317.832031 Z M 396.792969 203.859375 L 397.773438 213.214844 C 397.878906 214.203125 398.019531 215.160156 398.289063 216.03125 C 399.292969 219.308594 400.949219 221.292969 403.167969 224.570313 C 403.273438 229.820313 402.816406 234.441406 402.035156 240.746094 L 401.042969 239.660156 C 399.984375 236.511719 398.632813 229.65625 397 227.023438 C 395.757813 225.015625 394.570313 224.117188 393.773438 222.617188 C 392.527344 220.273438 392.21875 217.800781 392.886719 215.917969 Z M 378.058594 245.203125 C 379.933594 247.144531 380.773438 248.835938 382.378906 251.105469 C 383.339844 252.460938 384.703125 253.832031 385.652344 255.144531 C 387.585938 258.867188 388.792969 261.863281 391.128906 265.101563 C 391.476563 265.582031 391.582031 267.65625 391.859375 268.1875 L 387.496094 268.554688 C 383.886719 266.375 381.988281 265.042969 380.484375 262.050781 C 379.695313 260.484375 379.554688 258.132813 379.066406 256.464844 C 378.136719 253.296875 376.730469 249.605469 376.140625 246.070313 C 375.980469 245.097656 376.90625 244.011719 378.058594 245.203125 Z M 367.300781 223.804688 L 371.214844 234.628906 L 382.003906 242.382813 L 389.089844 251.289063 L 392.179688 262.921875 L 394.28125 260.21875 L 388.140625 243.023438 L 374.734375 232.207031 L 367.574219 223.824219 Z M 389.757813 211.429688 C 389.851563 214.308594 388.972656 217.960938 388.824219 221.453125 C 388.699219 224.34375 389.167969 227.125 390.316406 229.253906 L 399.105469 245.550781 L 399.191406 246.929688 L 368.796875 218.859375 C 373.804688 219.144531 378.394531 219.089844 381.921875 217.792969 C 385.238281 216.570313 387.953125 213.785156 389.757813 211.429688 Z M 136.46875 357.21875 C 137.960938 360.550781 140.15625 363.65625 142.664063 365.855469 C 143.929688 366.964844 145.789063 367.90625 147.726563 369.214844 C 149.054688 370.113281 150.648438 371.332031 151.234375 372.308594 C 151.214844 376.070313 148.960938 378.640625 149.980469 381.242188 C 151.171875 384.269531 154.824219 386.894531 154.761719 389.746094 C 154.707031 392.152344 153.574219 394.851563 150.816406 396.875 L 156.710938 402.726563 C 159.914063 404.777344 161.03125 405.695313 164.273438 405.855469 C 165.796875 405.929688 166.316406 406.582031 169.179688 404.035156 C 168.566406 403.214844 167.558594 402.160156 166.503906 401.566406 L 157.09375 396.28125 C 157.769531 394.34375 158.691406 391.625 160.050781 391.042969 C 161.410156 390.464844 164.707031 393.164063 165.871094 392.265625 C 166.464844 391.804688 166.773438 390.957031 166.773438 389.839844 C 161.527344 387.746094 156.5625 384.484375 154.363281 380.671875 C 152.296875 377.089844 154.675781 370.988281 152.804688 367.75 Z M 143.300781 399.863281 C 142.546875 399.449219 141.820313 399.039063 141.125 398.625 C 137.082031 396.214844 133.214844 391.820313 131.179688 386.660156 C 127.789063 378.054688 128.238281 367.316406 132.300781 360.066406 C 129.175781 352.976563 131.957031 347.394531 136.199219 345.800781 C 136.867188 345.550781 137.570313 345.417969 138.292969 345.394531 L 138.292969 345.390625 L 138.746094 345.390625 L 138.792969 345.394531 L 138.855469 345.394531 L 138.921875 345.398438 L 138.949219 345.398438 L 138.984375 345.402344 L 139.003906 345.402344 L 139.050781 345.40625 L 139.054688 345.40625 L 139.105469 345.410156 L 139.113281 345.410156 L 139.179688 345.414063 L 139.207031 345.417969 L 139.242188 345.421875 L 139.257813 345.421875 L 139.359375 345.433594 L 139.371094 345.433594 L 139.410156 345.4375 L 139.4375 345.441406 L 139.503906 345.449219 L 139.515625 345.449219 L 139.617188 345.464844 L 139.632813 345.464844 L 139.667969 345.46875 L 139.695313 345.472656 L 139.71875 345.476563 L 139.761719 345.484375 L 139.773438 345.484375 L 139.824219 345.492188 L 139.828125 345.492188 L 139.875 345.5 L 139.890625 345.503906 L 139.925781 345.511719 L 139.957031 345.515625 L 139.976563 345.519531 L 140.023438 345.527344 L 140.03125 345.53125 L 140.082031 345.539063 L 140.089844 345.539063 L 140.132813 345.550781 L 140.152344 345.554688 L 140.1875 345.558594 L 140.21875 345.566406 C 140.671875 345.664063 141.128906 345.796875 141.582031 345.96875 C 145.34375 339.894531 146.101563 333.074219 144.730469 327.285156 C 143.273438 321.125 138.566406 315.730469 133.769531 311.757813 C 129.855469 311.363281 127.96875 312.765625 127.261719 315.8125 C 126.554688 318.855469 128.765625 323.394531 130.710938 329.265625 C 131.527344 331.722656 130.917969 332.230469 130.105469 332.21875 C 125.507813 332.167969 122.128906 330.242188 119.449219 328.507813 C 112.90625 324.265625 113.765625 321.722656 112.589844 315.964844 C 112.324219 314.664063 110.179688 314.222656 109.363281 313.335938 C 108.542969 312.449219 108.433594 311.5625 107.46875 310.714844 C 105.84375 309.484375 101.097656 308.207031 99.589844 309.328125 C 94.839844 313.328125 90.308594 322.097656 87.183594 326.519531 C 89.621094 317.9375 93.863281 311.722656 97.160156 307.019531 C 96.542969 306.09375 95.28125 303.808594 94.664063 302.882813 C 92.984375 300.902344 83.878906 312.011719 77.515625 321.339844 C 80.351563 312.808594 87.109375 306.054688 91.855469 300.316406 C 92.878906 299.082031 90.199219 295.851563 88.835938 296.695313 C 79.285156 302.59375 70.300781 315.429688 62.96875 326.011719 C 66.125 317.59375 78.890625 301.902344 86.789063 294.707031 C 89.257813 292.457031 88.894531 289.84375 88.355469 287.597656 C 87.324219 283.316406 87.183594 278.628906 85.492188 273.722656 C 70.386719 269.945313 59.394531 268.191406 43.160156 265.382813 C 56.859375 265.625 72.230469 267.117188 84.746094 269.027344 C 85.054688 266.964844 86.308594 263.9375 84.011719 262.917969 C 72.214844 257.695313 58.070313 254.367188 38.222656 253.464844 C 56.238281 251.398438 69.515625 254.972656 82.78125 259.378906 C 85.542969 260.296875 85.617188 257.941406 85.433594 255.289063 C 85.328125 253.734375 83.410156 251.289063 81.910156 251.304688 C 78.554688 251.339844 71.679688 252.097656 64.144531 252.496094 C 70.335938 251.203125 73.457031 250.03125 77.554688 249.238281 C 78.765625 249 78.808594 248.265625 77.132813 247.882813 C 63.464844 244.769531 44.96875 245.753906 32.359375 245.414063 C 50.675781 243.261719 60.167969 243.808594 72.757813 244.316406 C 73.402344 244.339844 77.261719 244.574219 73.367188 242.457031 C 64.296875 237.527344 49.730469 233.113281 37.914063 228.441406 C 57.183594 232.621094 72.496094 239.738281 89.828125 243.652344 C 92.597656 244.277344 92.460938 241.527344 91.390625 240.515625 C 84.984375 234.445313 78.648438 231.496094 69.886719 225.855469 C 78.988281 226.660156 86.851563 231.933594 93.148438 238.933594 C 97.46875 235.378906 105.644531 230.851563 106.25 224.226563 C 104.644531 222.960938 103.128906 221.6875 102.46875 220.152344 C 101.226563 217.265625 100.890625 211.46875 101.578125 204.804688 C 102.972656 198.148438 105.625 191.425781 108.800781 186.921875 C 109.226563 186.265625 109.894531 186.933594 110.542969 186.5 C 111.863281 185.613281 112.082031 185.054688 113.835938 184.246094 C 115.808594 183.339844 119.367188 182.226563 121.617188 182.054688 C 125.035156 181.789063 136.410156 184.882813 140.867188 188.824219 C 142.117188 191.101563 142.960938 195.921875 142.644531 198.78125 C 140.683594 203.421875 137.15625 207.5 130.910156 211.40625 C 133.28125 211.566406 135.648438 211.199219 138.019531 208.777344 C 137.519531 213.878906 136.257813 216.300781 131.136719 221.605469 C 132.984375 221.238281 135.261719 220.351563 136.867188 218.941406 L 139.3125 215.289063 C 139.5625 214.425781 139.523438 213.164063 139.546875 212.054688 C 139.574219 211.070313 139.546875 210.273438 139.621094 209.578125 C 139.742188 208.414063 140.285156 207.515625 141.675781 206.449219 C 144.96875 203.917969 148.734375 200.707031 151.988281 198.113281 L 155.820313 198.738281 C 153.722656 200.785156 149.898438 203.257813 147.800781 205.304688 C 151.042969 204.796875 155.480469 202.421875 159.429688 200.117188 C 160.476563 199.503906 162.40625 198.929688 164.75 200.023438 C 167.097656 201.117188 169.855469 203.9375 172.582031 204.121094 C 176.164063 204.363281 178.601563 200.824219 186.5625 200.601563 C 182.070313 205.195313 176.007813 208.753906 170.074219 211.726563 C 166.265625 213.636719 162.082031 213.75 157.914063 215.082031 C 153.1875 216.589844 146.898438 219.753906 144.039063 222.324219 C 145.742188 218.21875 148.558594 215.976563 151.257813 213.488281 C 153.050781 211.835938 154.433594 210.085938 156.640625 208.808594 C 158.996094 207.449219 162.210938 206.304688 165.324219 205.382813 C 161.539063 205.429688 157.785156 206.300781 154.070313 208.429688 C 149.292969 211.167969 145.136719 215.984375 140.515625 223.800781 C 135.65625 224.15625 129.226563 225.921875 128.972656 231.554688 C 126.1875 234.519531 122.640625 236.214844 126.183594 240.851563 C 124.890625 242.46875 123.398438 244.640625 121.460938 246.257813 C 127.148438 245.96875 131.191406 242.355469 135.972656 239.457031 C 137.84375 238.324219 140.066406 237.53125 142.191406 236.738281 C 152.207031 232.992188 162.734375 230.132813 173.886719 226.953125 C 173.347656 225.929688 172.96875 224.699219 171.871094 224.589844 C 164.761719 223.867188 153.046875 224.046875 143.429688 227.679688 C 143.339844 227.316406 143.40625 226.34375 143.800781 226.019531 C 146.476563 223.851563 154.398438 219.121094 159.96875 218.210938 C 162.765625 217.75 165.105469 217.589844 167.898438 218.0625 C 170.46875 218.496094 172.871094 219.195313 174.875 219.152344 C 177.234375 219.101563 178.625 217.886719 179.894531 216.835938 L 180.007813 211.96875 C 183 211.453125 184.371094 210.632813 185.949219 208.351563 C 189.183594 203.679688 191.3125 196.230469 195.625 193.445313 C 196.671875 192.769531 197.722656 192.375 198.871094 192.800781 C 199.882813 193.179688 200.835938 194.347656 202.078125 194.316406 C 205.246094 194.234375 208.253906 190.207031 212.21875 190.246094 C 213.433594 190.253906 214.753906 190.648438 216.210938 191.652344 C 216.980469 192.15625 216.582031 193.949219 216.660156 194.800781 C 216.730469 195.507813 216.992188 195.539063 217.472656 195.75 C 219.867188 196.804688 225.621094 199.40625 232.761719 202.71875 C 239.4375 201.53125 244.164063 196.0625 245.105469 191.125 C 245.378906 189.695313 240.84375 187.675781 241.554688 185.210938 C 242.195313 182.984375 244.390625 183.058594 247.152344 182.605469 C 243.625 176.707031 239.449219 170.40625 238.75 165.074219 C 245.730469 166.015625 252.316406 166.585938 256.277344 166.449219 C 256.167969 171.871094 254.03125 177.355469 254.410156 179 C 254.710938 180.296875 255.488281 183.476563 256.960938 186.078125 C 257.445313 183.929688 257.363281 182.109375 257.808594 181.398438 C 261.429688 175.609375 264.53125 172.214844 269 166.96875 C 269.5625 166.304688 272.597656 167.089844 272.875 167.917969 C 273.867188 170.875 274.53125 173.28125 275.304688 175.617188 C 275.773438 178.039063 273.988281 184.980469 276.636719 184.21875 L 284.152344 182.058594 C 286.867188 182.160156 290.859375 181.90625 293.714844 181.542969 C 294.972656 181.378906 295.246094 180.15625 293.1875 179.75 C 289.808594 179.082031 285.191406 179.453125 281.027344 179.117188 L 272.890625 157.078125 C 276.03125 153.929688 279.070313 153.347656 283.796875 155.09375 C 285.507813 155.726563 287.746094 156.945313 290.15625 158.058594 C 291.09375 158.496094 291.371094 158.550781 292.445313 159.058594 C 293.625 159.617188 295.140625 160.882813 296.507813 161.519531 C 298.660156 160.472656 301.445313 158.496094 304.296875 155.183594 L 301.410156 152.808594 L 295.457031 152.714844 C 293.511719 152.484375 297.140625 144.011719 294.714844 139.820313 C 290.117188 131.886719 281.863281 125.507813 274.328125 120.234375 C 274.976563 120.398438 275.632813 120.570313 276.300781 120.746094 C 288.777344 123.140625 302.109375 128.96875 309.339844 132.398438 C 311.339844 133.347656 312.59375 134.625 314.351563 135.800781 C 315.71875 136.714844 317.28125 137.296875 318.953125 137.898438 C 320.121094 138.320313 321.929688 137.507813 323.09375 137.988281 C 331.632813 141.515625 340.140625 145.453125 349.457031 150.410156 C 340.652344 148.59375 332.171875 147.320313 324.535156 146.902344 C 334.328125 151.542969 344.929688 153.003906 351.921875 151.828125 L 357.515625 149.355469 C 363.28125 147.257813 369.96875 145.246094 376.082031 143.648438 C 382.75 141.910156 388.167969 140.917969 392.511719 144.550781 C 396.167969 147.609375 398.464844 150.484375 399.320313 155.429688 C 401.34375 167.144531 397.988281 183.40625 398.070313 190.347656 C 401.132813 195.136719 407.183594 204.386719 410.753906 213.464844 C 411.964844 216.550781 412.15625 218.914063 412.015625 221.609375 C 411.25 219.1875 410.320313 216.734375 409.230469 214.261719 C 409.46875 213.949219 409.738281 213.597656 410.054688 213.183594 C 409.695313 213.402344 409.359375 213.625 409.046875 213.851563 C 407.421875 210.222656 405.453125 206.539063 403.132813 202.800781 C 403.644531 205.035156 405.589844 210.484375 407.152344 215.496094 C 406.449219 216.257813 405.941406 217.046875 405.609375 217.875 C 405.390625 218.414063 405.195313 219.03125 405.015625 219.703125 L 404.964844 219.4375 C 403.492188 211.785156 398.453125 201.691406 396.347656 196.820313 C 391.15625 204.476563 385.578125 210.894531 378.84375 213.550781 C 377.335938 214.144531 375.191406 214.757813 373.507813 214.746094 C 372.359375 214.738281 371.6875 214.226563 370.5625 214.070313 C 369.480469 213.917969 368.707031 214.402344 367.589844 213.867188 C 366.566406 213.371094 366.246094 210.730469 367.507813 210.09375 L 359.152344 203.117188 L 349.820313 187.515625 L 341.125 187.546875 L 334.339844 182.863281 L 330.515625 183.25 L 324.214844 178.402344 L 317.1875 178.082031 L 314 181.210938 C 309.527344 181.101563 307.0625 181.285156 306.039063 182.039063 L 310.386719 182.988281 C 311.703125 183.273438 306.941406 190.007813 306.792969 192.835938 L 306.28125 202.554688 L 307.273438 205.707031 L 300.515625 199.183594 L 292.355469 196.054688 C 290.550781 195.003906 289.085938 194.03125 286.359375 193.386719 C 284.390625 192.917969 279.949219 193.148438 276.472656 193.507813 C 284.078125 197.453125 289.085938 198.492188 295.417969 201.789063 C 299.480469 203.902344 303.683594 207.632813 307.699219 209.746094 L 307.050781 214.527344 L 312.054688 217.410156 C 314.5 220.472656 315.4375 222.160156 317.933594 225.222656 C 320.675781 228.582031 324.984375 233.320313 327.78125 236.683594 C 327.347656 240.386719 327.558594 245.21875 326.476563 247.792969 C 322.4375 244.535156 312.621094 236.914063 307.609375 238.4375 C 305.703125 239.015625 305.234375 240.917969 305.566406 243.195313 C 305.765625 244.558594 306.433594 246.0625 306.75 247.492188 C 307.125 249.175781 305.921875 249.519531 306.015625 251.269531 C 306.105469 253.015625 307.179688 254.722656 307 256.226563 C 306.855469 257.410156 305.929688 258.480469 305.230469 259.34375 C 303.886719 261.007813 302.503906 261.75 301.097656 261.148438 C 299.546875 260.484375 296.882813 257.703125 295.027344 255.46875 C 293.175781 253.234375 292.125 251.539063 291.011719 253.042969 C 290.296875 254.011719 289.890625 254.683594 289.710938 255.238281 C 289.160156 256.960938 290.945313 258.738281 292.25 259.550781 C 293.242188 260.164063 294.375 260.730469 295.257813 261.667969 C 297.882813 264.449219 300.511719 268.332031 303.558594 269.503906 C 305.25 270.15625 308.246094 267.921875 309.9375 265.828125 L 312.339844 242.378906 L 329.765625 253.917969 C 324.71875 264.96875 317.125 273.332031 305.769531 278.40625 C 304.609375 278.925781 305.167969 279.859375 306.3125 280.410156 L 319.09375 286.550781 L 318.238281 287.449219 L 300.382813 291.007813 L 314.4375 293.753906 C 316.214844 304.363281 320.253906 320.457031 324.132813 330.90625 L 319.835938 296.503906 C 320.984375 295.277344 323.308594 292.394531 324.730469 289.707031 C 326.148438 287.019531 326.820313 284.078125 326.027344 283.644531 L 314.171875 277.144531 L 316.863281 275.5 C 317.199219 275.628906 317.457031 275.882813 317.878906 275.808594 C 322.292969 275.03125 328.691406 273.722656 331.804688 275.683594 L 331.726563 276.953125 L 340.367188 284.058594 C 341.257813 284.613281 341.433594 285.320313 340.574219 287.566406 L 330.757813 313.140625 C 337.367188 307.371094 342.199219 302.242188 348.644531 295.339844 L 345.457031 269.359375 L 320.902344 271.785156 L 334.8125 260.554688 C 332.976563 253.566406 333.238281 248.503906 336.574219 246.257813 C 338.378906 249.125 339.734375 250.492188 341.996094 250.761719 C 344.558594 251.070313 347.402344 249.964844 349.820313 248.035156 C 351.4375 252.261719 354.019531 255.683594 353.859375 258.941406 C 353.699219 262.199219 349.175781 262.871094 347.71875 265.804688 L 353.050781 290.6875 C 353.976563 283.6875 354.5 272.320313 356.28125 268.390625 C 358.894531 271.457031 358.628906 279.636719 359.816406 287.011719 C 360.320313 290.125 361.480469 293.230469 362.582031 295.53125 C 362.527344 291.601563 362.152344 288.640625 361.9375 285.191406 C 362.019531 284.089844 363.875 282.824219 363.957031 281.71875 C 364.035156 280.617188 361.855469 279.027344 361.9375 277.921875 C 362.152344 276.039063 362.207031 274.636719 362.421875 272.753906 C 364.230469 272.710938 365.597656 274.945313 366.777344 278.808594 C 368.621094 284.832031 370.988281 294.445313 372.113281 299.085938 C 371.089844 302.371094 367.082031 300.777344 366.785156 304.09375 C 366.46875 307.597656 368.722656 307.863281 369.53125 309.75 L 362.90625 335.921875 C 361.679688 335.003906 360.675781 334.144531 359.855469 333.328125 C 358.75 332.226563 358.257813 330.367188 357.730469 329.402344 C 356.566406 327.273438 356.28125 326.226563 356.367188 324.242188 C 356.476563 321.730469 357.214844 320.230469 358.136719 317.550781 L 358.113281 303.234375 L 354.894531 307.382813 L 354.183594 313.304688 L 350.382813 308.671875 L 349.734375 306.488281 L 348.152344 306.699219 C 347.148438 314.945313 344.851563 320.375 345.140625 330.882813 L 343.679688 335.746094 L 339.320313 324.613281 L 339.15625 330.816406 C 335.433594 334.066406 332.636719 334.589844 327.78125 336.546875 C 326.015625 341.339844 326.898438 345.28125 324.851563 351.4375 C 323.050781 356.867188 318.960938 361.277344 319.097656 368.535156 C 319.269531 377.617188 324.300781 379.207031 325.402344 385.222656 C 326.503906 391.234375 323.902344 394.410156 322.472656 400.15625 C 319.324219 401.785156 318.105469 402.867188 317.972656 405.355469 L 317.1875 405.390625 C 314.125 402.015625 312.960938 391.734375 311.101563 385.472656 L 310.445313 361.382813 L 304.390625 357.011719 C 305.34375 368.050781 306.714844 379.648438 308.925781 390.691406 C 304.832031 383.148438 299.4375 371.570313 296.152344 362.253906 L 298.671875 386.5625 C 302.734375 393.066406 305.183594 395.441406 309.894531 400.332031 L 306.582031 409.335938 C 305.777344 411.527344 303.800781 412.328125 302.429688 412.179688 C 300.144531 411.933594 298.035156 409.050781 294.835938 405.574219 C 290.027344 400.351563 284.554688 393.808594 282.773438 392.304688 C 282.976563 387.566406 283.539063 382.828125 284.28125 378.089844 C 282.28125 378.191406 281.058594 377.378906 280.347656 375.960938 C 279.273438 373.820313 278.792969 370.007813 279.082031 366.121094 C 279.476563 360.796875 280.5625 356.191406 280.324219 352.175781 C 278.257813 347.800781 275.617188 342.039063 272.433594 338.507813 L 271.230469 338.460938 C 272.195313 346.03125 272.691406 352.523438 271.972656 359.675781 C 270.527344 360.894531 270.765625 363.304688 271.824219 365.585938 L 275.34375 373.1875 C 274.648438 377.128906 273.910156 383.269531 271.335938 383.976563 C 270.585938 384.183594 269.613281 382.203125 268.488281 380.347656 L 268.257813 377.84375 C 266.554688 375.125 264.574219 373.933594 261.902344 372.667969 L 262.183594 375.152344 L 272.191406 390.234375 L 273.75 390.226563 L 277.535156 380.503906 L 278.121094 381.113281 L 277.074219 394.363281 C 278.988281 398.742188 283.175781 403.117188 290.691406 407.492188 L 275.3125 402.160156 L 267.335938 396.445313 L 262.421875 393.261719 C 261.671875 392.160156 261.480469 388.824219 260.953125 387.511719 C 259.660156 384.429688 257.34375 379.203125 255.011719 375.28125 C 253.011719 371.917969 249.757813 368.398438 246.597656 366.050781 C 244.140625 364.226563 241.722656 363.617188 240.027344 361.125 C 235.722656 354.796875 238.648438 351.550781 236.054688 347.664063 C 234.835938 345.835938 231.96875 344.3125 229.570313 343.039063 C 228.480469 342.464844 227.929688 341.9375 226.898438 341.457031 C 227.082031 342.40625 227.324219 343.359375 227.410156 344.3125 C 227.609375 346.410156 227.617188 348.515625 228.527344 350.625 C 230.230469 354.570313 232.664063 355.132813 234.234375 362.421875 C 234.777344 364.941406 234.253906 367.804688 234.015625 370.476563 C 233.773438 373.148438 233.773438 375.640625 233.542969 377.441406 L 232.351563 377.351563 L 231.945313 368.480469 C 230.953125 365.9375 224.925781 364.359375 223.9375 361.820313 C 222.664063 358.550781 224.367188 355.355469 225.839844 351.601563 C 224.914063 349.230469 222.496094 348.207031 221.484375 345.71875 C 220.34375 342.917969 222.074219 340.171875 219.011719 336.328125 C 218.65625 335.882813 218.746094 332.890625 219.28125 330.105469 L 211.203125 345.128906 L 184.0625 373.566406 L 160.296875 371.214844 L 137.859375 355.953125 L 138.277344 345.800781 C 137.097656 346.078125 136.03125 346.628906 135.046875 347.617188 C 134.464844 348.199219 133.984375 348.871094 133.578125 349.5 C 132.65625 350.9375 132.328125 352.894531 132.460938 354.867188 C 132.6875 358.3125 135.164063 362.132813 140.25 367.828125 L 136.132813 374.328125 C 135.589844 375.1875 135.203125 375.90625 135.8125 377.183594 L 139.523438 384.953125 C 139.976563 388.285156 140.996094 391.035156 141.957031 394.359375 C 142.449219 396.050781 142.921875 397.984375 143.300781 399.859375 Z M 138.050781 378.1875 L 143.542969 383.582031 C 143.929688 384.289063 144.511719 386.03125 144.828125 388.230469 C 145.039063 389.71875 145.070313 391.140625 145.265625 392.878906 C 145.550781 395.417969 146.023438 398.3125 146.613281 400.453125 C 148.203125 401.742188 149.910156 402.507813 151.902344 403.152344 C 149.351563 399.894531 147.949219 397.144531 147.6875 394.363281 C 147.527344 392.695313 148.21875 391.1875 148.066406 389.050781 C 147.988281 387.960938 147.515625 386.898438 147.339844 385.816406 C 146.863281 382.886719 147.082031 379.363281 146.789063 376.414063 C 146.609375 374.644531 146.140625 373.621094 145.644531 371.542969 L 138.835938 374.632813 C 138.085938 375.710938 137.730469 376.894531 138.050781 378.1875 Z M 212.757813 347.300781 C 215.394531 350.636719 217.765625 357.34375 219.09375 363.453125 C 220.761719 365.257813 223.335938 365.804688 225.171875 367.414063 C 227.039063 369.050781 227.703125 371.726563 227.210938 374.125 C 226.675781 376.742188 225.242188 379.535156 225.820313 381.042969 C 223.503906 382.011719 222.113281 382.453125 220.121094 384.230469 C 220.445313 382.613281 220.769531 381 221.09375 379.382813 L 214.578125 388.480469 L 209.988281 393.558594 C 213.085938 385.910156 217.058594 377.222656 217.964844 372.898438 C 218.894531 368.449219 214.160156 368.613281 214.027344 366.78125 C 214.382813 373.253906 213.101563 375.730469 208.652344 377.464844 C 209.03125 386.246094 209.269531 396.445313 202.160156 401.398438 L 189.75 406.523438 C 192.226563 404.746094 194.816406 402.703125 197.183594 400.914063 C 200.148438 398.667969 203.433594 394.734375 204.125 391.210938 C 204.976563 386.875 202.570313 384.457031 202.6875 381.289063 C 202.804688 378.117188 205.328125 375.746094 205.601563 373.148438 C 205.9375 369.917969 203.667969 369.742188 202.9375 368.097656 C 202.367188 366.824219 203.324219 365.632813 204.289063 364.683594 C 208.863281 360.183594 211.410156 353.921875 212.757813 347.300781 Z M 239.089844 367.566406 C 240.527344 369.683594 241.21875 370.84375 241.589844 373.285156 C 241.957031 375.722656 242.003906 379.300781 241.726563 382.066406 L 251.957031 386.933594 C 248.210938 378.410156 244.019531 371.132813 239.089844 367.566406 Z M 158.515625 377.671875 C 162.988281 378.316406 167.734375 379.382813 172.207031 380.03125 C 175.222656 382.398438 178.375 385.1875 181.394531 387.558594 C 181.394531 388.582031 181.671875 389.183594 181.671875 390.207031 C 186.140625 387.828125 186.085938 385.085938 187.804688 382.382813 C 188.964844 380.5625 192.515625 379.628906 193.816406 377.90625 C 194.832031 376.570313 193.746094 374.261719 194.757813 372.921875 C 196.480469 372.273438 198.34375 370.929688 200.066406 368.828125 C 199.570313 376.921875 196.832031 376.503906 196.175781 380.394531 C 195.597656 383.824219 196.933594 388.066406 196.351563 391.5 C 194.628906 392.46875 192.625 393.859375 190.902344 394.828125 L 192.753906 398.828125 C 191.761719 402.476563 186.382813 406.191406 182.804688 407.582031 C 179.410156 407.816406 177.136719 407.773438 173.742188 407.449219 C 176.855469 405.707031 179.070313 404.234375 179.714844 402.839844 C 180.542969 401.046875 178.386719 399.320313 175.113281 397.640625 L 168.5625 386.40625 C 169.007813 385.09375 168.296875 384.335938 167.085938 383.839844 C 165.566406 383.21875 163.011719 383.363281 161.269531 382.878906 C 158.851563 382.203125 158.066406 380.050781 158.515625 377.671875 Z M 249.773438 128 L 269.488281 134.246094 C 270.359375 134.519531 271.636719 134.972656 271.984375 137.171875 C 270.667969 138.171875 268.441406 139.261719 266.917969 140.375 C 265.691406 141.269531 264.921875 142.128906 265.441406 143.347656 L 269.074219 151.910156 C 272.074219 152.472656 275.355469 151.738281 278.359375 149.714844 L 275.332031 146.859375 C 275.027344 146.574219 275.210938 145.875 276.21875 146.074219 C 279.738281 146.769531 283.878906 148.179688 288.652344 149.21875 C 288.96875 149.289063 290.40625 149.214844 290.722656 149.28125 C 288.648438 147.871094 287.738281 147.160156 287.117188 145.769531 C 285.644531 142.480469 285.617188 136.941406 284.25 135.0625 C 283.398438 133.886719 282.585938 132.78125 280.425781 131.511719 L 271.820313 131.761719 L 271.660156 128.164063 L 258.863281 125.9375 C 257.1875 125.660156 256.582031 125.8125 254.964844 126.324219 Z M 350.640625 199.777344 C 339.96875 197.375 330.433594 194.832031 326.039063 192.667969 L 325.757813 196.449219 C 329.15625 198.363281 332.859375 199.617188 336.671875 200.664063 C 338.816406 201.253906 341.210938 201.855469 343.53125 202.355469 C 346.519531 202.996094 349.394531 203.558594 351.46875 204.667969 C 352.277344 209.160156 351.425781 215.746094 350.640625 220.078125 L 349.539063 220.167969 L 339.835938 211.6875 C 332.46875 211.960938 326.300781 213.328125 323.671875 215.757813 L 323.722656 217.277344 C 328.625 218.324219 332.996094 219.363281 338.707031 221.960938 C 339.464844 223.832031 340.53125 225.054688 341.742188 226.582031 C 344.054688 229.5 346.769531 231.597656 349.066406 235.089844 L 347.871094 240.679688 C 345.332031 236.738281 342.375 232.519531 339.417969 228.855469 C 341.148438 234.242188 343.175781 237.519531 344.203125 241.820313 C 344.742188 244.074219 344.875 246.109375 343.691406 247.554688 C 336.183594 246.738281 338.453125 235.253906 332.148438 228.550781 C 330.542969 226.839844 328.246094 225.441406 325.621094 224.613281 C 321.507813 221.488281 317.742188 217.074219 313.480469 211.363281 C 314.335938 207.507813 310.25 204.855469 311.105469 199.222656 C 311.972656 193.515625 317.765625 187.714844 319.664063 182.886719 L 321.601563 182.886719 C 329.191406 186.242188 344.3125 189.09375 349.058594 195.097656 C 350.152344 196.480469 350.84375 197.824219 350.640625 199.777344 Z M 355.164063 200.617188 L 352.152344 244.460938 L 351.664063 244.5625 L 351.585938 245.453125 C 354.722656 249.613281 359.511719 253.21875 365.664063 256.519531 L 364.210938 262.417969 L 363.746094 269.6875 C 367.460938 273.265625 370.910156 279.46875 373.761719 291.453125 L 373.117188 267.746094 L 374.207031 268.410156 L 374.152344 269 L 378.683594 270.171875 C 377.285156 257.285156 374.476563 250.589844 372.273438 246.429688 L 371.535156 246.457031 C 368.730469 241.925781 365.414063 237.929688 361.75 233.828125 C 361.394531 229.039063 362.824219 224.253906 364.628906 219.464844 C 359.859375 213.828125 358.316406 206.898438 355.164063 200.617188 Z M 223.796875 141.625 L 190.882813 157.082031 C 196.082031 156.132813 200.789063 155.65625 204.863281 156.085938 C 208.035156 156.421875 210.824219 157.359375 213.175781 158.695313 L 227.445313 158.777344 C 229.457031 159.058594 230.253906 161.039063 230.75 163.441406 C 231.226563 165.746094 230.84375 167.953125 231.210938 169.234375 C 231.496094 170.234375 232.613281 171.644531 234.683594 170.167969 L 233.558594 160.238281 C 232.554688 158.429688 232.386719 156.484375 232.21875 154.679688 C 233.765625 156.699219 235.035156 158.71875 238.78125 160.738281 C 241.449219 161.480469 244.757813 161.972656 246.78125 159.160156 L 237.90625 153.101563 C 235.75 151.445313 231.1875 149.382813 229.070313 148.558594 C 227.285156 147.863281 225.117188 148.523438 224.042969 147.339844 C 222.921875 146.109375 223.144531 144.433594 223.796875 141.625 Z M 157.011719 178.699219 C 155.90625 182.28125 153.789063 185.078125 151.40625 187.058594 C 150.621094 187.714844 149.964844 188.171875 148.953125 188.421875 C 147.664063 188.734375 146.867188 188.027344 147.40625 186.003906 C 147.992188 183.804688 148.957031 181.9375 150.308594 180.082031 C 152.414063 181.484375 154.691406 180.371094 157.011719 178.699219 Z M 198.394531 175.015625 C 194.707031 178.25 191.839844 181.558594 189.660156 185.011719 C 188.972656 186.101563 187.539063 186.601563 186.1875 186.394531 C 184.453125 186.128906 182.398438 185.003906 181.210938 185.636719 C 179.109375 186.757813 179.203125 188.5625 177.425781 190.21875 C 174.457031 192.984375 168.429688 196.71875 166.164063 197.273438 C 165.960938 197.320313 165.757813 197.066406 165.816406 196.867188 C 167.832031 190.007813 172.210938 185.566406 174.039063 183.617188 C 175.148438 182.433594 176.550781 181.429688 178.109375 180.835938 C 180.539063 179.90625 183.355469 179.769531 186.0625 179.933594 C 186.59375 179.964844 188.0625 179.085938 188.585938 178.707031 C 190.710938 177.167969 194.21875 174.234375 198.394531 175.015625 Z M 147.339844 196.179688 L 155.011719 188.832031 L 155.902344 186.886719 C 157.839844 185.960938 159.207031 184.71875 159.417969 184.378906 C 159.972656 183.492188 159.804688 182.125 160.105469 180.265625 L 161.398438 177.277344 L 168.667969 176.792969 C 171.628906 175.445313 173.886719 173.9375 178.140625 172.753906 C 179.269531 175.796875 177.867188 177.589844 175.371094 178.488281 C 172.675781 179.457031 166.527344 180.976563 165.023438 182.164063 C 163.652344 183.246094 164.59375 187.050781 164.074219 189.320313 C 163.503906 191.808594 159.953125 194.046875 157.4375 194.644531 L 147.582031 196.984375 C 146.90625 197.148438 146.835938 196.664063 147.339844 196.179688 Z M 146.292969 162.492188 C 146.472656 165.679688 146.382813 168.066406 146.679688 169.859375 C 147.25 173.308594 149.027344 176.179688 150.492188 176.953125 L 154.65625 169.441406 C 156.082031 171.054688 157.707031 173.992188 158.488281 177.761719 L 159.378906 175.984375 L 159.863281 166.96875 C 159.921875 165.890625 160.425781 164.808594 161.476563 164.109375 L 161.640625 159.261719 C 155.210938 159.269531 150.78125 159.957031 146.292969 162.492188 Z M 192.902344 135.59375 L 191.851563 136.484375 C 189.375 137.183594 186.027344 137.828125 183.160156 138.441406 C 180.296875 139.054688 177.34375 140.121094 174.539063 140.691406 C 172.507813 141.101563 170.269531 141.160156 168.585938 141.710938 C 166.417969 142.640625 164.757813 143.703125 162.734375 145.808594 C 161.382813 147.210938 160.574219 148.921875 160.664063 151.105469 L 160.832031 155.140625 L 154.125 154.980469 L 153.078125 152.878906 L 151.21875 152.878906 L 150.519531 154.527344 L 147.203125 156.796875 L 143.707031 157.242188 L 141.363281 162.171875 L 143.222656 163.707031 L 145.160156 169.683594 L 138.132813 170.734375 L 135.953125 164.753906 C 135.109375 162.445313 135.597656 160.289063 137.347656 158.324219 C 138.703125 156.792969 141.015625 155.375 142.816406 154.09375 L 144.433594 149.972656 L 151.621094 147.46875 C 153.480469 145.851563 155.523438 143.558594 158.164063 142.296875 C 160.25 141.304688 164.292969 140.367188 167.597656 139.265625 C 173.300781 137.359375 179.476563 134.964844 181.996094 135.109375 Z M 223.816406 129.152344 C 225.648438 131.121094 226.023438 133.414063 226.402344 135.058594 C 223.65625 138.125 220.878906 139.09375 216.730469 139.308594 L 213.015625 142.144531 L 205.914063 143.1875 C 201.121094 145.664063 193.859375 150.039063 187.371094 152.6875 C 186.234375 153.152344 184.96875 153.117188 183.835938 152.632813 C 181.039063 158.824219 178.152344 160.355469 170.128906 161.378906 C 168.578125 157.445313 168.359375 153.65625 168.101563 149.722656 C 171.566406 146.328125 175.757813 148.195313 180.167969 147.203125 C 182.992188 146.5625 185.101563 145.703125 188.039063 144.15625 C 188.4375 143.300781 190.714844 140.503906 192.246094 139.808594 C 197.714844 137.328125 203.992188 137.105469 209.460938 134.625 C 210.753906 133.710938 211.765625 132.792969 212.917969 131.878906 C 216.96875 133.433594 220.644531 131.113281 223.816406 129.152344 Z M 227.027344 173.3125 C 223.335938 166.902344 212.933594 162.488281 202.996094 160.386719 L 185.496094 164.351563 L 184.03125 159.019531 C 176.996094 162.199219 170.589844 163.433594 164.4375 168.089844 C 163.035156 169.148438 162.273438 172.28125 164.472656 173.816406 C 169.742188 172.582031 175.101563 168.917969 179.238281 165.253906 L 180.320313 165.464844 L 185.871094 175.175781 C 189.480469 172.535156 194.167969 170.328125 199.929688 168.550781 C 206.445313 168.5 215.015625 170.78125 227.027344 173.3125 Z M 232.5625 178.082031 C 220.105469 176.140625 216.152344 175.871094 209.734375 176.75 C 205.988281 177.261719 200.203125 178.675781 199.609375 182.535156 C 199.414063 183.816406 201.109375 185.105469 202.558594 186.894531 C 208.484375 183.765625 216.828125 181.277344 222.308594 183.164063 C 226.308594 184.539063 229.28125 192.742188 230.753906 195.898438 C 231.347656 197.167969 233.890625 196.855469 235.949219 195.792969 C 238.007813 194.730469 239.578125 192.914063 239.347656 192.300781 C 237.082031 186.257813 235.363281 182.390625 232.5625 178.082031 Z M 214.839844 115.71875 C 222.59375 114.554688 234.550781 115.824219 242.949219 116.238281 C 245.109375 116.34375 247.230469 116.433594 249.371094 116.554688 C 257.554688 118.429688 265.511719 121.328125 270.042969 121.863281 L 273.519531 124.167969 C 270.183594 125.121094 264.195313 123.046875 259.597656 122.351563 C 256.023438 121.808594 252.6875 121.84375 250.035156 122.191406 C 245.011719 122.847656 241.722656 124.6875 238.195313 128 C 243.265625 130.800781 250.261719 132.660156 257.121094 135.011719 C 258.898438 136.84375 261.121094 139.515625 261.964844 141.34375 L 244.042969 139.632813 L 243.179688 140.875 L 263.582031 148.355469 C 265.574219 152.019531 267.847656 156.605469 267.039063 159.621094 C 267.792969 160.105469 270.382813 162.042969 269.582031 163.628906 C 268.914063 164.953125 266.816406 163.539063 265.425781 163.128906 C 264.371094 162.816406 263.316406 163.042969 262.316406 162.585938 C 257.066406 160.175781 250.589844 154.933594 245.324219 149.328125 C 237.25 150.449219 231.144531 145.703125 231.152344 142.195313 C 231.160156 138.605469 231.183594 135.925781 230.730469 133.882813 C 229.574219 128.652344 226.84375 127.527344 224.175781 125.707031 C 222.300781 124.429688 220.03125 123.832031 217.835938 123.960938 C 214.621094 124.152344 211.980469 125.847656 208.789063 126.226563 C 204.867188 126.691406 199.804688 125.566406 197.019531 123.640625 L 202.789063 119.269531 C 207.378906 118.742188 211.039063 117.359375 214.839844 115.71875 Z M 130.542969 213.183594 C 128.90625 215.351563 128.460938 215.757813 127.558594 217.964844 C 125.832031 222.183594 126.246094 227.828125 123.113281 231.71875 C 124.164063 228.488281 124.65625 221.441406 126.097656 217.878906 C 126.785156 216.175781 128.199219 214.640625 130.542969 213.183594 Z M 407.566406 216.835938 C 408.414063 219.644531 409.085938 222.203125 409.242188 223.820313 C 408.175781 228.5 406.140625 234.472656 405.234375 237.375 C 405.6875 231.140625 405.921875 227.542969 405.597656 223.835938 C 405.992188 221.785156 406.335938 219.75 407.066406 217.964844 C 407.246094 217.527344 407.410156 217.160156 407.566406 216.835938 Z M 297.082031 132.933594 L 315.601563 162.347656 L 325.800781 170.09375 L 325.621094 168.121094 C 325.457031 166.378906 327.335938 165.960938 328.660156 166.109375 C 330.722656 166.339844 332.921875 168.335938 336.398438 168.511719 C 337.292969 168.558594 340.109375 167.820313 341.253906 167.140625 L 351.308594 161.1875 C 343.777344 163.5625 336.839844 163.75 330.5 160.636719 C 324.15625 157.519531 318.402344 151.515625 313.246094 142.90625 L 308.332031 140.488281 L 306.324219 136.570313 Z M 270.042969 198.945313 L 279.203125 204.039063 L 280.425781 204.429688 C 289.152344 214.015625 298.15625 224.71875 306.878906 234.304688 C 300.847656 234.199219 293.835938 234.089844 287.804688 233.980469 C 287.265625 242.976563 287.640625 246.636719 285.648438 249.816406 C 283.28125 250.460938 278.390625 251.105469 277.476563 252.398438 C 277.527344 254.445313 283.171875 254.230469 284.839844 257.085938 C 286.402344 266.214844 292.683594 276.648438 300.277344 284.484375 C 299.367188 286.636719 295.648438 286.695313 293.355469 287.0625 C 290.96875 287.449219 291.480469 288.238281 292.371094 289.765625 L 299.921875 301.261719 L 303.105469 314.4375 L 303.972656 315.570313 L 304.851563 337.851563 C 303.382813 333.742188 302.398438 328.019531 300.929688 323.914063 C 298.039063 315.835938 295.484375 307.4375 292.464844 299.796875 C 291.457031 297.253906 289.964844 295.507813 288.96875 292.929688 C 287.523438 289.203125 286.097656 285.417969 284.703125 281.523438 L 281.832031 279.542969 L 278.890625 279.1875 L 279.273438 282.125 C 279.550781 282.859375 280.105469 283.035156 280.382813 283.769531 C 284.535156 294.773438 289.492188 307.617188 292.660156 318.464844 C 284.027344 304.535156 281.589844 303.761719 277.761719 297.75 C 276.089844 295.121094 277.5 292.53125 276.601563 289.277344 C 274.554688 287.554688 273.867188 286.109375 276.828125 284.386719 C 276.722656 283.742188 276.519531 283.65625 276.410156 283.007813 C 264.617188 273.234375 252.824219 264.824219 245.066406 261.402344 L 242.515625 257.238281 L 241.449219 257.246094 C 234.878906 262.953125 230.410156 263.0625 221.253906 258.863281 C 220.765625 264.765625 225.984375 266.015625 232.457031 268.453125 C 233.5625 268.871094 235.207031 269.546875 234.984375 270.96875 C 234.84375 271.875 234.207031 272.972656 234.035156 274.367188 C 233.757813 276.59375 234.660156 279.574219 236.171875 280.355469 C 256.0625 290.648438 262.351563 293.878906 272.304688 302.804688 C 273.058594 304.382813 274.121094 306.300781 273.71875 307.582031 C 276.324219 313.304688 279.304688 317.683594 282.320313 324.777344 L 281.417969 325.363281 C 280.9375 325.675781 273.585938 318.328125 269.816406 315.503906 C 266.746094 320.457031 267.621094 324.667969 267.296875 329.300781 C 266.632813 332.519531 261.101563 324.253906 259.4375 326.980469 C 258.65625 328.265625 258.15625 331.5625 258.863281 335.3125 C 259.960938 341.164063 261.164063 346.03125 262.007813 350.304688 C 260.125 351.8125 259.5625 354.890625 258.648438 358.015625 C 256.925781 345.410156 254.296875 337.953125 250.65625 337.746094 C 248.335938 337.613281 246.476563 337.835938 244.109375 338.582031 C 243.980469 343.859375 243.992188 348.578125 244.421875 353.855469 L 243.066406 353.300781 C 239.269531 346.617188 235.859375 337.960938 233.375 330 C 232.632813 321.632813 232.046875 314.40625 230.601563 308.621094 C 229.066406 302.460938 226.914063 298.507813 223.191406 295.792969 C 225.359375 296.214844 230.230469 295.761719 232.390625 300.292969 C 233.492188 302.601563 234.117188 306.640625 235.035156 310.914063 C 236.296875 316.765625 237.601563 323.058594 238.21875 325.929688 C 240.84375 328.796875 244.476563 332.261719 247.878906 331.914063 C 249.613281 331.738281 251.9375 330.84375 253.371094 328.578125 C 255.21875 325.667969 255.441406 321.953125 257.347656 320.429688 C 259.183594 318.960938 261.890625 320.207031 264.390625 322.234375 C 264.585938 318.449219 263.996094 307.675781 263.242188 303.503906 C 261.289063 300.015625 257.921875 294.824219 256.472656 294.082031 C 255.464844 293.5625 254.121094 294.472656 253.964844 295.902344 C 253.765625 297.738281 254.875 300.433594 254.390625 302.046875 C 253.804688 304.007813 251.183594 302.308594 250.367188 303.695313 C 248.601563 306.707031 246.53125 309.703125 245.207031 312.378906 C 243.074219 311.160156 243.007813 308.652344 243.4375 305.679688 C 244.0625 301.335938 245.777344 296 245.644531 292.238281 C 245.507813 288.441406 242.804688 286.355469 240.117188 286.773438 C 232.765625 287.914063 224.1875 289.199219 221.277344 286.921875 C 219.875 285.824219 221.234375 283.046875 222.152344 282.175781 C 223.332031 281.054688 226.300781 282.691406 227.394531 281.480469 C 229.007813 280.242188 230.707031 276.960938 230.945313 275.015625 C 231.066406 274.035156 226.632813 272.136719 222.515625 269.925781 C 217.214844 267.089844 211.519531 263.726563 207.035156 261.125 C 206.929688 256.0625 208.21875 251.417969 208.109375 246.355469 C 213.882813 244.933594 218.882813 243.351563 231.640625 245.738281 C 233.332031 244.796875 233.964844 244.035156 235.933594 243.945313 C 238.839844 245.347656 241.050781 246.046875 243.957031 247.449219 C 246.371094 245.554688 250.152344 241.789063 250.125 239.027344 C 250.101563 236.878906 248.796875 235.003906 245.898438 233.34375 C 246.804688 230.839844 248.425781 226.386719 247.890625 223.449219 C 245.679688 224.472656 242.054688 226.011719 238.554688 224.933594 C 238.445313 224.503906 238.335938 223.792969 238.230469 223.363281 C 241.191406 221.8125 243.96875 220.257813 246.769531 218.148438 C 246.738281 217.367188 246.828125 214.875 247.328125 213.675781 C 249.527344 210.996094 253.289063 208.480469 255.128906 207.015625 C 256.230469 206.140625 256.417969 205.3125 255.554688 205.226563 C 250.765625 204.742188 245.59375 204.804688 240.964844 205.226563 C 247.535156 202.1875 253.964844 200.433594 260.535156 199.679688 C 262.15625 207.925781 263.265625 220.945313 261.644531 220.574219 C 257.699219 219.667969 255.367188 219.734375 252.996094 219.441406 C 251.542969 223.425781 251.65625 226.574219 254.402344 230.558594 C 252.304688 237.558594 251.679688 241.101563 251.355469 249.070313 L 269.914063 257.796875 L 253.476563 254.433594 C 253.371094 261.328125 257.820313 260.457031 263.527344 261.535156 C 267.136719 265.410156 279.921875 278.144531 279.972656 271.769531 L 280.058594 260.878906 C 280.070313 259.726563 280.484375 258.714844 278.53125 258.0625 C 276.792969 257.480469 274.125 257.3125 271.210938 255.226563 C 270.019531 254.375 268.804688 253.039063 267.628906 251.425781 C 266.714844 250.167969 266.664063 248.039063 264.992188 247.230469 C 265.757813 246.796875 266.855469 246.664063 268.109375 247.167969 C 269.214844 247.617188 270.441406 248.652344 271.660156 249.09375 C 273.363281 249.710938 275.691406 250.035156 276.976563 249.46875 C 280.15625 248.078125 268.3125 232.871094 266.855469 230.191406 L 271.011719 229.136719 L 284.261719 238.828125 L 278.070313 229.597656 C 277.53125 227.550781 280.746094 226.203125 295.71875 231.429688 L 297.628906 231.457031 L 282.644531 218.796875 C 278.875 212.546875 273.8125 205.191406 270.042969 198.945313 Z M 248.386719 252.808594 C 238.890625 245.917969 220.398438 247.054688 215.597656 248.617188 C 212.386719 249.664063 214.726563 251.597656 215.761719 252.171875 C 220.238281 254.660156 225.554688 256.675781 230.742188 256.921875 C 231.640625 256.964844 233.925781 256.097656 235.644531 255.210938 C 237.363281 254.320313 238.515625 253.410156 239.941406 253.371094 C 243.695313 253.265625 244.664063 255.011719 246.578125 254.828125 C 247.398438 254.75 250.480469 254.332031 248.386719 252.808594 Z M 248.386719 252.808594 "/>
<path style=" stroke:none;fill-rule:evenodd;fill:rgb(100%,100%,100%);fill-opacity:1;" d="M 119.617188 285.203125 C 121.066406 285.203125 122.800781 286.578125 122.800781 288.410156 C 122.800781 290.671875 121.625 291.761719 119.894531 291.761719 C 118.304688 291.761719 116.992188 289.828125 116.992188 288.132813 C 116.992188 286.4375 118.445313 285.203125 119.617188 285.203125 Z M 222.0625 207.25 C 215.65625 210.714844 211.816406 211.304688 207.828125 211.246094 C 201.609375 211.15625 197.019531 207.316406 197.773438 201.023438 C 197.128906 200.078125 196.324219 199.730469 195.058594 199.570313 C 193.3125 202.152344 189.949219 210.386719 197.972656 214.847656 C 199.730469 215.824219 202.175781 216.089844 205.171875 216.675781 L 197.9375 218.726563 C 189.789063 217.476563 186.769531 217.011719 178.96875 222.167969 C 181.507813 221.71875 185.203125 220.601563 188.109375 220.664063 C 193.789063 220.789063 199.441406 221.96875 204.859375 222.257813 C 209.347656 222.5 213.65625 222.035156 217.742188 221.113281 C 222.910156 219.949219 229.675781 217.394531 233.207031 210.234375 C 231.378906 207.503906 228.964844 207.164063 226.152344 208.605469 C 224.167969 209.621094 222.265625 211.304688 220.5625 212.730469 C 218.835938 214.175781 216.972656 215.644531 214.144531 216.371094 C 211.800781 216.976563 210.746094 215.863281 210.753906 214.757813 C 214.523438 213.25 218.777344 211.695313 222.0625 207.25 Z M 213.441406 191.574219 C 212 193.039063 210.363281 194.304688 207.84375 195.128906 C 207.769531 197.082031 207.019531 198.871094 207.742188 200.09375 C 208.445313 201.285156 211.773438 204.324219 212.601563 204.625 C 214.148438 205.1875 217.210938 200.839844 215.644531 196.625 C 216.691406 196.167969 219.050781 196.566406 221.394531 196.539063 C 219.554688 194.535156 216.800781 192.011719 213.441406 191.574219 Z M 135.769531 190.824219 C 136.328125 192.503906 136.25 192.875 136 194.199219 C 135.675781 195.914063 134.300781 198.53125 132.304688 200.746094 C 131.488281 201.652344 129.816406 202.386719 128.519531 203.449219 C 128.695313 209.738281 125.351563 209.839844 121.59375 210.144531 L 121.449219 212.921875 C 120.433594 213.378906 119.53125 214.027344 118.6875 214.984375 C 116.953125 216.945313 116 218.289063 113.699219 221.660156 L 113.332031 220.117188 C 114.242188 218.832031 114.921875 217.933594 115.597656 216.609375 C 116.121094 215.578125 116.476563 214.425781 116.5 212.496094 C 114.367188 212.421875 111.972656 210.996094 110.183594 208.660156 C 108.15625 206.015625 106.445313 202.203125 106.457031 197.863281 C 106.46875 194.910156 107.757813 191.589844 109.273438 188.542969 C 109.613281 187.664063 109.582031 187.011719 109.839844 186.507813 C 110.09375 186 110.644531 185.636719 111.019531 185.335938 C 112.371094 184.257813 113.875 183.488281 115.660156 183.121094 C 114.394531 184.386719 112.660156 185.703125 112.042969 187.292969 C 114.921875 188.289063 119.496094 185.59375 123.621094 185.535156 C 125.195313 185.515625 128.722656 188.710938 129.746094 191.535156 C 128.617188 193.476563 125.476563 195.410156 125.375 194.929688 C 125.203125 194.097656 125.359375 193.566406 125.0625 192.824219 C 124.175781 190.585938 122.515625 188.9375 120.441406 189.1875 C 115.679688 189.761719 114.449219 196.066406 116.324219 199.410156 C 118.125 202.621094 123.703125 203.777344 126.582031 202.867188 C 128.375 202.300781 128.042969 200.703125 129.648438 199.328125 C 130.492188 198.609375 131.402344 197.953125 132.234375 197.46875 C 133.234375 196.375 135.15625 193.394531 135.769531 190.824219 Z M 112.203125 194.5625 C 111.421875 198.0625 111.425781 204.136719 113.4375 205.511719 C 114.898438 206.511719 121.46875 206.484375 124.78125 205.8125 C 120.394531 205.746094 117.023438 204.902344 114.949219 203.003906 C 112.875 201.105469 112.121094 198.371094 112.203125 194.5625 Z M 226.585938 301.027344 C 227.824219 307.8125 226.90625 316.324219 223.839844 326.554688 C 217.785156 333.933594 212.605469 346.714844 204.917969 357.734375 C 198.75 366.585938 190.183594 375.273438 181.996094 377.1875 C 174.035156 379.046875 164.953125 376.140625 156.253906 372.042969 C 151.015625 369.578125 145.875 366.726563 141.847656 363.585938 C 139.335938 361.628906 136.402344 359.074219 135.128906 355.949219 C 134.238281 353.765625 134.128906 350.914063 135.328125 348.828125 C 136.441406 346.894531 138.644531 345.386719 141.660156 345.898438 C 139.757813 347.835938 139.15625 349.007813 139.230469 350.671875 C 139.386719 354.175781 143.230469 357.714844 148.390625 360.714844 C 153.472656 363.667969 159.789063 366.253906 166.105469 367.902344 C 172.042969 369.449219 178.011719 370.445313 181.972656 369.433594 C 176.9375 362.984375 175.054688 358.667969 177.773438 354.371094 C 181.058594 356.722656 183.148438 358.519531 185.054688 359.4375 C 189.925781 361.789063 191.164063 359.839844 191.183594 358.410156 L 191.246094 353.371094 C 205.339844 352.199219 206.84375 346.488281 206.230469 340.125 L 209.613281 337.953125 C 212.148438 334.28125 216.3125 326.875 218.035156 322.898438 C 219.015625 320.640625 219.425781 318.367188 218.851563 316.097656 C 222.191406 312.113281 222.601563 306.628906 226.585938 301.027344 Z M 149.910156 312.175781 C 157.839844 314.59375 166.085938 316.578125 172.074219 316.839844 C 168.332031 322.386719 167.308594 328.679688 167.875 333.609375 C 167.910156 333.921875 167.851563 334.765625 166.625 334.050781 C 161.246094 330.914063 158.929688 323.140625 157.71875 316.816406 C 157.496094 315.652344 153.980469 315.636719 152.070313 314.953125 C 150.757813 314.488281 150.003906 313.753906 149.910156 312.175781 Z M 115.550781 313.929688 C 114.507813 316.019531 114.820313 318.203125 116.78125 320.675781 C 118.871094 323.3125 122.882813 326.210938 125.804688 327.136719 C 126.003906 327.199219 126.390625 327.191406 126.3125 326.996094 C 125.148438 324.152344 123.636719 320.65625 123.351563 317.140625 C 123.039063 313.292969 117.789063 313.65625 115.550781 313.929688 Z M 115.433594 266.777344 C 120.792969 268.984375 126.328125 269.792969 132.117188 268.554688 C 138.496094 259.957031 141.042969 251.714844 147.460938 246.941406 C 155.210938 241.179688 165.957031 238.386719 176.480469 238.894531 L 172.507813 247.886719 L 170.765625 248.058594 C 168.804688 249.171875 167.816406 247.886719 165.375 246.023438 C 163 245.742188 160.621094 246.160156 158.242188 246.855469 C 148.019531 253.449219 138.339844 263.832031 133.71875 271.667969 C 134.398438 277.886719 133.855469 282.929688 131.90625 287.207031 C 129.835938 291.761719 126.089844 295.398438 120.121094 298.121094 L 120.238281 301.425781 C 140.714844 305.933594 163.839844 312.265625 178.152344 312.039063 C 182.160156 311.976563 186.285156 311.222656 188.804688 309.5625 C 191.324219 307.898438 192.242188 305.324219 191.527344 302.730469 L 184.625 303.011719 L 184.300781 300.21875 C 189.542969 297.601563 193.726563 295.332031 197.308594 292.582031 C 199.457031 290.929688 200.550781 288.824219 203.203125 286.929688 L 203.203125 284.507813 C 196.511719 282.636719 199.050781 277.953125 197.042969 274.46875 C 200.328125 274.535156 205.574219 278.707031 206.757813 282.222656 C 207.726563 280.714844 208.339844 277.726563 209.269531 275.691406 C 210.195313 273.652344 212.300781 272.105469 213.972656 272.757813 L 222.089844 275.910156 L 224.160156 275.589844 L 217.539063 270.171875 C 214.953125 269.472656 212.066406 269.988281 210.203125 268.070313 C 209.210938 267.050781 208.910156 264.171875 211.324219 264.773438 C 213.285156 265.265625 214.511719 267.089844 217.3125 268.597656 L 221.738281 268.738281 C 214.921875 261.675781 212.625 250.414063 210.011719 245.613281 C 206.160156 240.566406 201.804688 237.167969 197.828125 235.273438 L 189.589844 235.273438 C 186.792969 240.335938 182.25 244.417969 176.730469 246.035156 L 179.558594 237.679688 C 179.875 236.742188 179.273438 236.109375 178.292969 236.0625 C 165.21875 235.410156 154.554688 238.253906 147.195313 242.816406 C 138.027344 248.496094 132.941406 257.058594 127.925781 266.132813 Z M 206.542969 246.722656 C 207.867188 246.738281 204.984375 244.160156 202.019531 242.949219 C 198.839844 242.996094 196.492188 243.039063 193.53125 243.085938 C 191.636719 243.113281 191.320313 243.4375 189.910156 244.734375 C 187.34375 247.09375 184.710938 249.484375 181.046875 251.328125 C 180.875 251.414063 181.160156 251.84375 181.347656 251.894531 C 185.515625 252.953125 189.675781 248.765625 193.765625 246.339844 C 198.398438 246.261719 202.640625 246.679688 206.542969 246.722656 Z M 177.550781 251.996094 C 176.824219 251.65625 176.121094 251.753906 175.261719 251.953125 C 173.300781 252.410156 171.332031 253.261719 169.425781 254.164063 C 166.808594 255.402344 164.296875 256.867188 162.042969 258.683594 L 162.042969 261.6875 C 159.984375 263.949219 158.433594 266.082031 157.234375 268.128906 C 158.632813 270.363281 159.808594 271.03125 161.316406 270.414063 C 162.636719 269.871094 163.996094 268.238281 165.398438 265.511719 C 166.511719 263.34375 168.957031 263.585938 171.496094 262.460938 L 176.980469 255.882813 C 177.65625 254.34375 177.605469 253.371094 177.550781 251.996094 Z M 154.898438 270.492188 C 151.808594 272.300781 152.105469 275.859375 153.457031 276.390625 C 154.535156 276.816406 155.960938 275.941406 156.449219 274.894531 C 157.601563 272.40625 156.125 269.777344 154.898438 270.492188 Z M 150.453125 276.046875 C 149.191406 276.757813 148.484375 277.46875 148.1875 278.5625 C 147.957031 279.417969 147.976563 280.617188 148.171875 281.523438 C 148.445313 282.789063 151.328125 280.960938 151.820313 279.761719 C 152.300781 278.589844 151.554688 275.421875 150.453125 276.046875 Z M 148.390625 288.726563 C 149.253906 287.117188 153.75 288.242188 152.695313 290.609375 C 152.398438 291.269531 150.71875 291.742188 149.53125 291.34375 C 148.089844 290.863281 147.925781 289.597656 148.390625 288.726563 Z M 179.710938 276.488281 C 180.167969 275.632813 181.648438 273.746094 183.511719 273.371094 C 184.96875 273.078125 186.203125 273.484375 186.136719 274.695313 C 186.003906 277.132813 183.605469 278.820313 182.363281 278.984375 C 179.957031 279.308594 179.246094 277.355469 179.710938 276.488281 Z M 191.550781 271.273438 C 191.289063 270.421875 192.035156 269.507813 192.972656 268.960938 C 193.910156 268.417969 195.03125 268.242188 195.523438 269.417969 C 195.800781 270.082031 195.210938 271.09375 194.132813 271.722656 C 192.820313 272.488281 191.839844 272.214844 191.550781 271.273438 Z M 187.535156 288.457031 C 187.269531 287.605469 187.996094 285.097656 189.417969 283.988281 C 190.273438 283.320313 193.417969 283.0625 193.90625 284.238281 C 194.183594 284.898438 194.703125 287.628906 193.140625 288.5 C 191.816406 289.242188 187.824219 289.398438 187.535156 288.457031 Z M 174.46875 293.527344 C 174.691406 291.863281 175.953125 290.027344 176.898438 289.5 C 179.042969 288.308594 182.304688 288.921875 182.636719 289.691406 C 182.917969 290.351563 181.234375 293.0625 180.15625 293.695313 C 178.847656 294.460938 174.339844 294.5 174.46875 293.527344 Z M 174.65625 306.289063 C 174.484375 305.414063 175.117188 303.882813 176.492188 303.417969 C 177.519531 303.070313 178.695313 302.699219 179.183594 303.871094 C 179.460938 304.535156 179.507813 306.082031 178.378906 306.617188 C 177.914063 306.839844 177.027344 306.851563 176.238281 306.832031 C 175.445313 306.8125 174.746094 306.757813 174.65625 306.289063 Z M 152.167969 296.160156 C 152.804688 295.027344 155.097656 294.742188 156.621094 295.582031 C 157.660156 296.15625 158.429688 297.34375 158.28125 298.371094 C 158.0625 299.851563 155.386719 300.417969 153.816406 299.902344 C 151.875 299.269531 151.457031 297.425781 152.167969 296.160156 Z M 164.226563 294.515625 C 165.390625 294.164063 167.121094 294.324219 168.269531 294.480469 C 169.304688 294.621094 169.992188 295.761719 169.28125 296.804688 C 168.246094 298.324219 165.976563 299.832031 164.28125 299.277344 C 161.789063 298.46875 161.992188 295.195313 164.226563 294.515625 Z M 156.953125 288.910156 C 156.488281 287.824219 157.996094 285.445313 160.265625 284.550781 C 161.871094 283.914063 163.054688 284.375 163.5625 285.332031 C 164.109375 286.355469 163.890625 287.933594 162.625 288.734375 C 161.886719 289.203125 160.1875 289.859375 159.027344 289.953125 C 157.871094 290.046875 157.238281 289.578125 156.953125 288.910156 Z M 167.960938 283.519531 C 167.53125 282.421875 167.207031 280.355469 169.476563 279.460938 C 171.078125 278.828125 174.941406 278.800781 175.234375 279.847656 C 176.183594 283.242188 174.277344 284.765625 172.308594 285.082031 C 171.0625 285.285156 168.601563 285.148438 167.960938 283.519531 Z M 376.972656 172.472656 C 374.785156 174.222656 372.527344 175.960938 370.242188 177.679688 C 367.730469 179.566406 365.183594 181.292969 362.667969 183.128906 C 360.148438 184.960938 357.65625 186.761719 355.25 188.800781 C 355.445313 193.96875 357.058594 198.441406 358.652344 203.609375 L 365.523438 211.042969 C 367.246094 211.742188 368.96875 212.441406 370.695313 213.140625 C 375.375 212.648438 379.640625 209.839844 383.261719 205.835938 C 385.429688 203.429688 387.371094 200.683594 389.023438 197.496094 C 393.273438 189.3125 394.511719 177.445313 394.671875 168.300781 C 394.820313 159.480469 392.957031 152.136719 388.625 148.425781 C 385.5 145.753906 382.230469 145.539063 378.378906 146.773438 C 373.242188 148.421875 366.960938 152.898438 361.175781 158.21875 C 355.300781 163.625 349.933594 170.164063 346.785156 174.207031 C 345.488281 176.792969 344.988281 179.128906 346.160156 180.851563 C 346.835938 181.542969 349.023438 181.574219 352.578125 180.390625 C 356.1875 178.613281 359.859375 172.730469 363.953125 171.113281 C 369.660156 170.386719 374.710938 170.183594 376.972656 172.472656 Z M 108.972656 263.0625 C 103.828125 259.585938 102.476563 258.429688 102.007813 256.175781 C 100.941406 251.035156 107.457031 245.601563 107.3125 240.789063 C 107.242188 238.46875 104.320313 239.148438 103.378906 240.46875 C 101.59375 242.972656 99.644531 245.027344 97.714844 246.953125 C 96.109375 248.550781 94.472656 249.945313 93.941406 252.171875 C 93.453125 254.207031 92.972656 257.203125 92.3125 259.746094 C 91.566406 262.628906 90.667969 265.097656 90.722656 267.832031 C 90.785156 270.925781 93.90625 273.445313 93.441406 276.105469 C 92.671875 280.460938 92.742188 282.1875 93.816406 285.769531 C 94.234375 287.167969 94.785156 288.652344 95.234375 289.964844 C 95.808594 291.65625 96.304688 293.4375 97.097656 295.074219 C 98.125 297.207031 99.453125 298.988281 100.9375 301.160156 C 102.417969 303.335938 104.058594 305.761719 106.269531 308.34375 C 107.425781 309.691406 111.324219 309.195313 113.28125 307.707031 C 114.800781 306.554688 115.195313 304.929688 114.765625 303.613281 C 113.355469 299.28125 107.484375 292.78125 105.578125 290.203125 C 104.847656 289.214844 105.445313 288.507813 106.0625 288.265625 C 107.566406 287.671875 109.410156 289.179688 111.234375 288.183594 C 112.75 287.355469 112.792969 285.972656 112.203125 285.035156 C 111.453125 283.839844 110.09375 283.261719 108.445313 283.742188 C 107.375 284.054688 106.566406 285.410156 105.804688 286.304688 C 105.214844 286.996094 104.648438 287.355469 104.007813 287.074219 C 100.691406 285.632813 97.789063 281.832031 97.105469 277.355469 C 96.425781 272.878906 97.195313 267.097656 99.519531 262.78125 C 100.902344 260.222656 104.933594 261.582031 108.972656 263.0625 Z M 108.972656 263.0625 "/>
</g>
</svg>
