<?xml version="1.0" encoding="UTF-8" standalone="no"?>
<svg
   width="2500"
   height="2500"
   viewBox="0 0 192.756 192.756"
   version="1.1"
   id="svg34"
   sodipodi:docname="Ipswich Town.svg"
   inkscape:version="1.1.1 (3bf5ae0d25, 2021-09-20)"
   xmlns:inkscape="http://www.inkscape.org/namespaces/inkscape"
   xmlns:sodipodi="http://sodipodi.sourceforge.net/DTD/sodipodi-0.dtd"
   xmlns="http://www.w3.org/2000/svg"
   xmlns:svg="http://www.w3.org/2000/svg">
  <defs
     id="defs38" />
  <sodipodi:namedview
     id="namedview36"
     pagecolor="#ffffff"
     bordercolor="#666666"
     borderopacity="1.0"
     inkscape:pageshadow="2"
     inkscape:pageopacity="0.0"
     inkscape:pagecheckerboard="0"
     showgrid="false"
     inkscape:zoom="0.2276"
     inkscape:cx="1250"
     inkscape:cy="1250"
     inkscape:window-width="1920"
     inkscape:window-height="1137"
     inkscape:window-x="1592"
     inkscape:window-y="-8"
     inkscape:window-maximized="1"
     inkscape:current-layer="svg34" />
  <path
     d="m 107.189,9.744 v 6.513 h 8.16 V 9.744 h 21.617 v 6.513 h 8.154 V 9.744 h 21.619 v 37.195 h -4.197 c -3.898,0 -7.076,2.763 -7.076,6.664 v 104.928 l -59.089,24.48 -59.089,-24.48 V 53.603 c 0,-3.901 -3.178,-6.664 -7.075,-6.664 H 26.016 V 9.744 h 21.619 v 6.513 H 55.79 V 9.744 h 21.616 v 6.513 h 8.161 V 9.744 Z"
     fill="#cd3529"
     id="path4"
     style="clip-rule:evenodd;fill-rule:evenodd" />
  <path
     d="m 41.625,52.294 c 0,-6.239 -4.998,-9.648 -11.272,-9.69 V 14.082 h 12.946 v 6.513 h 16.828 v -6.513 h 12.944 v 6.513 h 16.836 v -6.513 h 12.943 v 6.513 h 16.836 v -6.513 h 12.943 v 6.513 h 16.828 v -6.513 h 12.947 v 28.523 c -6.275,0.042 -11.273,3.451 -11.273,9.69 l 0.006,103.34 L 96.378,178.32 41.62,155.635 Z M 88.46,12.636 v 6.513 H 74.517 V 12.636 H 58.68 v 6.513 H 44.744 V 12.636 H 28.908 v 31.411 h 1.304 c 5.485,0 9.958,3.114 9.961,8.606 v 103.945 l 56.204,23.275 56.204,-23.275 V 52.653 c 0.004,-5.492 4.477,-8.606 9.961,-8.606 h 1.305 V 12.636 h -15.836 v 6.513 h -13.936 v -6.513 h -15.838 v 6.513 h -13.943 v -6.513 z"
     fill="#ffffff"
     id="path6"
     style="clip-rule:evenodd;fill-rule:evenodd" />
  <path
     fill="#ffffff"
     d="M 47.365,120.457 V 44.609 h 98.028 v 75.848 z"
     id="path8"
     style="clip-rule:evenodd;fill-rule:evenodd" />
  <path
     fill="#374689"
     d="M 48.81,119.012 V 46.054 h 95.137 v 72.958 z"
     id="path10"
     style="clip-rule:evenodd;fill-rule:evenodd" />
  <path
     fill="#ffffff"
     d="M 40.176,41.826 V 25.205 H 152.58 v 16.621 z"
     id="path12"
     style="clip-rule:evenodd;fill-rule:evenodd" />
  <path
     fill="#374689"
     d="M 151.131,40.38 V 26.649 H 41.625 V 40.38 Z M 47.365,122.555 c 32.682,0 65.344,0.008 98.028,0.008 v 16.25 c -32.684,0 -65.346,-0.008 -98.028,-0.008 z"
     id="path14"
     style="clip-rule:evenodd;fill-rule:evenodd" />
  <path
     fill="#ffffff"
     d="m 47.365,140.906 h 98.028 v 13.606 H 47.365 Z"
     id="path16"
     style="clip-rule:evenodd;fill-rule:evenodd" />
  <path
     fill="#374689"
     d="m 48.81,142.355 v 10.707 h 95.137 v -10.707 z"
     id="path18"
     style="clip-rule:evenodd;fill-rule:evenodd" />
  <path
     d="M 98.062,66.739 C 87.307,66.163 86.935,53.193 69.354,52.357 c -4.017,-0.134 -8.683,0.069 -11.038,2.152 -1.442,-1.54 -3.684,-2.231 -5.158,-2.183 -0.045,0.548 0.317,1.507 0.902,2.123 l -0.002,5.876 c -0.521,-0.006 -0.615,0.386 -0.664,1.094 -0.057,0.807 0.103,1.222 0.646,1.296 l -0.128,3.986 c -0.042,1.313 0.409,1.093 0.702,2.392 0.166,0.739 0.235,1.611 0.259,2.522 0.023,0.911 -0.018,1.701 -0.031,2.596 0.454,-0.033 0.811,-0.027 0.775,0.424 -0.023,0.293 -0.276,0.325 -0.763,0.266 l -10e-4,0.453 c 0.848,0.817 2.402,2.695 3.538,3.854 0,0.224 1.876,-0.003 2.1,-0.003 -1.557,-2.735 2.187,-3.256 2.187,-0.815 0.325,0.325 1.527,-0.396 1.383,-1.051 -0.084,-0.384 -0.718,-0.44 -0.591,-2.361 2.416,-1.487 2.417,-4.478 3.732,-5.591 1.517,-1.038 2.718,0.629 2.589,1.571 -0.323,2.347 1.554,4.918 2.22,4.918 0.189,1.453 -1.174,4.801 -1.112,7.852 0.118,5.828 7.213,7.612 7.826,8.366 0.176,1.32 2.07,5.413 4.418,8.336 0.543,2.316 2.334,4.359 2.939,4.754 0.343,0.764 0.945,2.65 1.604,3.791 -0.093,0.652 0.459,3.334 -0.458,4.258 -0.189,0.705 -0.955,2.717 -0.963,3.619 0.67,0 4.755,-0.16 4.755,-1.053 0.048,-1.908 1.179,-2.652 1.625,-2.652 0,-0.223 0.416,-2.178 -0.489,-3.025 l -0.49,-0.93 0.272,-0.766 c -2.21,-1.359 -2.613,-4.406 -3.024,-5.537 -1.376,-3.785 -0.876,-7.556 -0.876,-11.8 1.897,1.174 5.31,1.929 8.122,1.823 6.479,-0.248 13.873,-3.94 16.086,-5.426 -0.521,-0.388 -1.037,-0.947 -1.727,-1.794 l 1.133,-0.005 c 3.566,4.054 15.258,8.887 14.332,8.515 -0.068,-0.028 2.189,1.624 3.352,2.01 l 2.064,2.549 c 0,1.305 -1.455,8.611 -1.777,11.355 -0.545,0.785 -4.152,2.6 -4.152,4.236 l 5.682,0.029 c -0.336,-1.062 2.086,-2.982 3.801,-4.354 l -0.033,-1.082 c -0.475,0 -1.006,-1.76 -0.875,-3.297 0.273,-3.227 2.229,-8.764 3.467,-11.928 -2.381,-1.469 -3.777,-2.077 -5.855,-4.187 -0.605,-0.343 -0.957,-2.457 -3.338,-3.777 -2.834,-0.009 -6.236,-1.185 -6.445,-5.785 -0.094,-2.044 1.549,-4.495 5.234,-5.766 1.76,-0.607 5.17,-1.968 7.484,-3.509 a 5.476,5.476 0 0 0 -0.398,-0.739 16.908,16.908 0 0 0 -2.246,-2.785 c 2.613,-0.789 5.289,-0.118 5.508,1.347 0.383,2.642 -7.496,5.55 -10.098,6.588 -3.291,1.313 -4.666,3.126 -4.582,4.98 0.268,5.88 8.328,5.179 8.781,4.326 -1.643,-1.458 -1.455,-2.817 -1.002,-3.865 0.83,-1.92 4.461,-4.032 7.684,-6.383 1.859,-1.355 3.9,-3.938 3.838,-5.584 -0.115,-3.085 -3.166,-3.742 -6.234,-3.664 -1.727,0.044 -4.117,0.373 -5.637,0.76 -2.982,-2.181 -6.484,-3.021 -10.096,-3.038 -8.56,-0.039 -17.734,4.066 -22.049,4.1 z"
     fill="#ffffff"
     id="path20"
     style="clip-rule:evenodd;fill-rule:evenodd" />
  <path
     d="m 131.98,83.445 c 1.404,-1.573 2.395,-3.699 2.9,-5.865 -1.109,0.758 -2.863,2.063 -3.441,3.441 -0.334,0.795 -0.251,1.649 0.541,2.424 z"
     fill="#ffffff"
     id="path22"
     style="clip-rule:evenodd;fill-rule:evenodd" />
  <path
     d="m 55.049,62.045 c -0.311,1.021 -0.298,2.367 -0.053,3.525 0.241,-0.449 1.237,-0.941 1.775,-0.92 0,-1.372 -1.542,-1.937 -1.622,-2.523 z"
     fill="#374689"
     id="path24"
     style="clip-rule:evenodd;fill-rule:evenodd" />
  <path
     d="m 107.234,111.629 c -0.047,-0.145 2.494,0.248 3.076,0.344 0.418,0 1.545,-1.414 1.949,-1.682 0.773,-0.486 1.938,-0.775 2.809,-1.164 1.357,-0.775 0.91,-1.908 0.91,-3.457 0.029,-1.045 3.605,-4.656 4.814,-5.473 1.064,-0.717 1.857,-2.4 1.758,-3.449 -0.129,-1.346 -1.053,-2.31 -0.553,-3.27 -2.082,-0.944 -5.408,-2.596 -7.885,-4.448 -1.842,-0.291 -2.162,1.863 -1.49,2.835 1.07,1.546 3.996,4.744 3.816,7.908 -0.996,3.225 -3.676,3.896 -4.951,7.258 -1.235,1.657 -4.471,2.766 -4.253,4.598 z m -48.672,-8.531 a 17.022,17.022 0 0 1 4.281,-2.615 c -0.601,-2.168 0.828,-3.092 1.059,-3.479 -0.555,-0.536 -1.329,-1.205 -1.706,-1.969 -1.433,-2.902 -1.085,-4.927 -1.085,-5.818 2.655,-0.144 3.349,2.53 13.163,3.372 0.544,0.046 1.506,-0.066 1.596,-0.522 a 0.65,0.65 0 0 0 -0.377,-0.714 c -0.496,-0.137 -1.067,-0.496 -1.548,-0.776 -1.943,-1.132 -3.47,-3.354 -3.692,-4.407 -1.748,-1.081 -7.96,-1.338 -12.12,-1.338 -0.339,0.231 -3.131,1.336 -3.354,1.783 -1.107,2.215 4.13,7.76 4.186,11.688 0.017,1.215 -0.73,3.812 -0.403,4.795 z M 88.688,55.027 a 14.34,14.34 0 0 0 -1.124,-0.864 l -2.022,2.718 c 0.395,0.306 0.782,0.695 1.114,0.994 z m -3.603,-2.23 C 84.679,52.58 84.234,52.284 83.799,52.073 l -1.531,2.685 c 0.423,0.239 0.853,0.526 1.245,0.772 z m -4.541,-2.213 c -0.44,-0.169 -0.884,-0.331 -1.332,-0.486 l -1.041,2.77 c 0.447,0.171 0.885,0.35 1.314,0.537 z m -5.075,-1.576 a 32.982,32.982 0 0 0 -1.43,-0.291 l -0.583,2.796 c 0.467,0.09 0.972,0.192 1.428,0.305 z m -5.036,-0.76 a 41.888,41.888 0 0 0 -1.417,-0.053 v 2.859 c 0.483,0.008 0.955,0.029 1.417,0.062 z m -4.926,-0.051 c -0.467,0.031 -0.938,0.069 -1.413,0.117 l 0.278,2.931 c 0.477,-0.072 0.948,-0.069 1.41,-0.116 z m -5.006,0.484 c -0.464,0.09 -0.947,0.253 -1.407,0.363 l 0.928,3.021 c 0.462,-0.138 0.979,-0.324 1.428,-0.438 z"
     fill="#ffffff"
     id="path26"
     style="clip-rule:evenodd;fill-rule:evenodd" />
  <path
     fill="#374689"
     d="M 96.378,175.201 53.775,157.58 h 85.205 z"
     id="path28"
     style="clip-rule:evenodd;fill-rule:evenodd" />
  <path
     d="M 46.992,37.824 V 29.2 h 1.939 v 8.624 z m 3.626,0 V 29.2 H 53.5 c 1.101,0 1.705,0.044 2.04,0.129 0.513,0.13 0.942,0.411 1.29,0.845 0.346,0.433 0.519,0.993 0.519,1.679 0,0.53 -0.1,0.974 -0.301,1.336 a 2.386,2.386 0 0 1 -0.76,0.849 2.606,2.606 0 0 1 -0.939,0.41 c -0.431,0.084 -0.944,0.123 -1.764,0.123 h -1.18 v 3.253 z m 1.841,-7.165 v 2.447 h 1.02 c 0.735,0 1.114,-0.046 1.361,-0.136 0.247,-0.09 0.44,-0.23 0.581,-0.423 a 1.1,1.1 0 0 0 0.211,-0.67 c 0,-0.315 -0.098,-0.573 -0.294,-0.777 A 1.325,1.325 0 0 0 54.589,30.717 C 54.366,30.679 54.032,30.658 53.36,30.658 h -0.901 z m 5.673,4.359 1.715,-10e-4 c 0.11,0.49 0.305,0.847 0.585,1.088 0.31,0.267 0.729,0.401 1.255,0.401 0.557,0 0.978,-0.119 1.26,-0.355 0.283,-0.238 0.423,-0.515 0.423,-0.833 a 0.795,0.795 0 0 0 -0.178,-0.521 c -0.12,-0.144 -0.326,-0.269 -0.623,-0.374 -0.203,-0.07 -0.665,-0.196 -1.386,-0.376 -0.928,-0.23 -1.58,-0.516 -1.954,-0.853 -0.525,-0.474 -0.789,-1.052 -0.789,-1.736 0,-0.438 0.125,-0.849 0.372,-1.232 0.249,-0.382 0.605,-0.673 1.07,-0.874 0.465,-0.2 1.029,-0.3 1.687,-0.3 1.077,0 1.886,0.237 2.43,0.711 0.543,0.476 0.829,1.108 0.856,1.9 l -1.746,-0.001 c -0.079,-0.4 -0.234,-0.696 -0.461,-0.878 -0.243,-0.194 -0.609,-0.29 -1.097,-0.29 -0.503,0 -0.897,0.104 -1.182,0.312 a 0.63,0.63 0 0 0 -0.273,0.535 c 0,0.205 0.084,0.38 0.255,0.524 0.219,0.183 0.748,0.376 1.591,0.576 0.841,0.201 1.464,0.407 1.868,0.621 0.404,0.214 0.719,0.506 0.948,0.876 0.227,0.371 0.341,0.829 0.341,1.374 0,0.494 -0.136,0.956 -0.409,1.388 a 2.456,2.456 0 0 1 -1.158,0.962 c -0.499,0.209 -1.12,0.314 -1.865,0.314 -1.084,0 -1.917,-0.253 -2.497,-0.756 -0.578,-0.503 -0.923,-1.238 -1.038,-2.202 z m 22.225,2.806 V 29.2 h 1.95 v 8.624 z m 9.245,-3.17 1.89,0.044 c -0.124,1.076 -0.82,2.131 -1.465,2.588 -0.644,0.457 -1.461,0.685 -2.452,0.685 -1.225,0 -2.231,-0.392 -3.021,-1.175 -0.788,-0.781 -1.183,-1.851 -1.183,-3.208 0,-1.436 0.396,-2.55 1.189,-3.344 0.793,-0.795 1.837,-1.191 3.129,-1.191 1.128,0 2.044,0.312 2.75,0.936 0.418,0.369 1.004,1.287 1.012,1.995 l -1.912,0.006 a 1.818,1.818 0 0 0 -0.683,-1.06 c -0.346,-0.259 -0.767,-0.389 -1.262,-0.389 -0.683,0 -1.238,0.229 -1.663,0.689 -0.427,0.459 -0.64,1.201 -0.64,2.229 0,1.09 0.211,1.866 0.63,2.328 0.418,0.464 0.965,0.695 1.637,0.695 0.494,0 0.92,-0.146 1.277,-0.442 0.355,-0.292 0.612,-0.755 0.767,-1.386 z m 3.248,3.17 V 29.2 h 1.862 v 3.361 h 3.651 V 29.2 h 1.861 v 8.624 h -1.861 v -3.603 h -3.651 v 3.603 z m 15.793,0 v -7.071 h -2.738 V 29.2 h 7.332 v 1.553 h -2.732 v 7.071 z m 6.699,-4.318 c 0,0.976 0.248,1.717 0.738,2.22 0.494,0.504 1.117,0.756 1.875,0.756 0.758,0 1.379,-0.25 1.865,-0.75 0.484,-0.5 0.729,-1.25 0.729,-2.25 0,-0.988 -0.238,-1.726 -0.711,-2.212 -0.471,-0.484 -1.102,-0.729 -1.883,-0.729 -0.783,0 -1.414,0.247 -1.893,0.738 -0.48,0.493 -0.72,1.235 -0.72,2.227 z m -1.772,0.059 c 0,-0.878 0.135,-1.617 0.412,-2.212 0.203,-0.44 0.484,-0.832 0.84,-1.182 a 3.534,3.534 0 0 1 1.166,-0.777 c 0.562,-0.227 1.211,-0.341 1.945,-0.341 1.33,0 2.393,0.394 3.191,1.183 0.797,0.787 1.195,1.884 1.195,3.289 0,1.391 -0.396,2.479 -1.188,3.266 -0.792,0.787 -1.85,1.181 -3.176,1.181 -1.34,0 -2.406,-0.393 -3.199,-1.175 -0.789,-0.782 -1.186,-1.86 -1.186,-3.232 z m 23.678,4.259 V 29.2 h 1.891 l 4.822,5.76 V 29.2 h 1.805 v 8.624 h -1.949 l -4.764,-5.623 v 5.623 z m -7.898,-5.792 -0.01,-0.029 -0.008,0.029 -2.469,5.787 -1.654,-0.004 -3.006,-8.608 1.996,10e-4 1.947,5.603 2.408,-5.604 h 1.572 l 2.408,5.604 1.947,-5.603 1.996,-10e-4 -3.008,8.608 -1.652,0.004 z m -56.977,0 -0.008,-0.029 -0.009,0.029 -2.469,5.787 -1.652,-0.004 -3.008,-8.608 1.997,10e-4 1.948,5.603 2.407,-5.604 h 1.572 l 2.408,5.604 1.948,-5.603 1.996,-10e-4 -3.008,8.608 -1.652,0.004 z M 51.856,150.928 v -6.438 h 5.217 v 1.166 h -3.681 v 1.432 h 3.177 v 1.135 h -3.177 v 2.705 z m 6.173,-3.178 c 0,-0.656 0.115,-1.207 0.347,-1.652 0.174,-0.328 0.41,-0.621 0.709,-0.883 0.299,-0.262 0.627,-0.453 0.983,-0.58 0.474,-0.17 1.021,-0.254 1.64,-0.254 1.122,0 2.018,0.293 2.692,0.883 0.672,0.588 1.008,1.406 1.008,2.455 0,1.039 -0.333,1.852 -1.001,2.438 -0.667,0.588 -1.56,0.883 -2.678,0.883 -1.133,0 -2.032,-0.293 -2.699,-0.877 -0.668,-0.585 -1.001,-1.39 -1.001,-2.413 z m 1.583,-0.045 c 0,0.729 0.199,1.281 0.596,1.656 0.398,0.377 0.903,0.564 1.517,0.564 0.612,0 1.115,-0.186 1.508,-0.559 0.392,-0.375 0.589,-0.934 0.589,-1.68 0,-0.738 -0.192,-1.289 -0.574,-1.652 -0.382,-0.361 -0.891,-0.543 -1.523,-0.543 -0.634,0 -1.145,0.184 -1.531,0.551 -0.388,0.368 -0.582,0.923 -0.582,1.663 z m 6.686,0.045 c 0,-0.656 0.115,-1.207 0.347,-1.652 0.174,-0.328 0.409,-0.621 0.709,-0.883 0.299,-0.262 0.627,-0.453 0.983,-0.58 0.475,-0.17 1.021,-0.254 1.64,-0.254 1.122,0 2.019,0.293 2.693,0.883 0.672,0.588 1.008,1.406 1.008,2.455 0,1.039 -0.333,1.852 -1.002,2.438 -0.667,0.588 -1.559,0.883 -2.677,0.883 -1.132,0 -2.032,-0.293 -2.699,-0.877 -0.668,-0.585 -1.002,-1.39 -1.002,-2.413 z m 1.583,-0.045 c 0,0.729 0.199,1.281 0.597,1.656 0.398,0.377 0.903,0.564 1.517,0.564 0.612,0 1.114,-0.186 1.508,-0.559 0.392,-0.375 0.589,-0.934 0.589,-1.68 0,-0.738 -0.191,-1.289 -0.574,-1.652 -0.381,-0.361 -0.89,-0.543 -1.522,-0.543 -0.635,0 -1.145,0.184 -1.531,0.551 -0.39,0.368 -0.584,0.923 -0.584,1.663 z m 8.711,3.223 v -5.271 h -2.258 v -1.166 h 6.048 v 1.166 h -2.254 v 5.271 z m 4.787,-6.438 h 3.042 c 0.603,0 1.052,0.021 1.349,0.064 0.294,0.043 0.561,0.131 0.793,0.264 0.234,0.135 0.43,0.316 0.585,0.539 0.155,0.225 0.233,0.475 0.233,0.754 0,0.301 -0.097,0.578 -0.288,0.83 a 1.751,1.751 0 0 1 -0.781,0.566 c 0.464,0.113 0.82,0.309 1.069,0.584 0.249,0.273 0.374,0.598 0.374,0.971 0,0.291 -0.081,0.578 -0.242,0.854 -0.16,0.277 -0.38,0.496 -0.659,0.662 -0.279,0.166 -0.622,0.268 -1.03,0.307 -0.256,0.023 -0.874,0.037 -1.853,0.043 H 81.38 v -6.438 z m 1.537,1.072 v 1.488 h 1.006 c 0.6,0 0.971,-0.008 1.117,-0.021 0.263,-0.025 0.469,-0.105 0.621,-0.232 a 0.625,0.625 0 0 0 0.226,-0.502 0.64,0.64 0 0 0 -0.195,-0.484 c -0.131,-0.125 -0.323,-0.199 -0.579,-0.227 -0.153,-0.016 -0.59,-0.021 -1.314,-0.021 h -0.882 z m 0,2.559 v 1.723 h 1.422 c 0.553,0 0.904,-0.014 1.053,-0.039 0.229,-0.035 0.415,-0.121 0.558,-0.258 0.143,-0.137 0.217,-0.318 0.217,-0.547 a 0.75,0.75 0 0 0 -0.167,-0.492 0.955,0.955 0 0 0 -0.48,-0.293 c -0.209,-0.062 -0.663,-0.094 -1.362,-0.094 z m 12.998,2.807 h -1.672 l -0.665,-1.463 h -3.042 l -0.627,1.463 h -1.631 l 2.964,-6.438 h 1.625 z m -2.83,-2.547 -1.048,-2.389 -1.027,2.389 z m 3.686,2.547 v -6.385 h 1.537 v 5.27 h 3.584 v 1.115 z m 6.494,0 v -6.385 h 1.537 v 5.27 h 3.504 v 1.115 z m 14.277,-2.367 1.559,-0.004 c -0.148,0.922 -0.676,1.629 -1.209,1.971 -0.529,0.34 -1.205,0.512 -2.021,0.512 -1.01,0 -1.842,-0.293 -2.492,-0.877 -0.65,-0.584 -0.975,-1.383 -0.975,-2.396 0,-1.07 0.326,-1.902 0.98,-2.496 0.652,-0.594 1.514,-0.889 2.58,-0.889 0.93,0 1.686,0.232 2.27,0.697 0.344,0.277 0.73,0.879 0.812,1.498 l -1.557,-0.004 a 1.35,1.35 0 0 0 -0.562,-0.791 c -0.287,-0.193 -0.633,-0.289 -1.041,-0.289 -0.562,0 -1.021,0.17 -1.373,0.514 -0.352,0.342 -0.527,0.896 -0.527,1.664 0,0.814 0.174,1.393 0.52,1.738 0.346,0.345 0.795,0.518 1.35,0.518 0.408,0 0.76,-0.109 1.055,-0.328 0.291,-0.22 0.502,-0.566 0.631,-1.038 z m 2.848,2.367 v -6.385 h 1.539 v 5.254 h 3.504 v 1.131 z m 6.443,-6.438 h 1.537 v 3.486 c 0,0.553 0.02,0.912 0.057,1.076 0.066,0.264 0.223,0.475 0.471,0.635 0.246,0.158 0.586,0.238 1.014,0.238 0.438,0 0.766,-0.074 0.988,-0.225 0.219,-0.15 0.354,-0.336 0.398,-0.557 0.045,-0.219 0.066,-0.584 0.066,-1.094 v -3.561 h 1.537 v 3.381 c 0,0.773 -0.041,1.318 -0.123,1.639 a 1.744,1.744 0 0 1 -0.461,0.809 c -0.223,0.219 -0.521,0.395 -0.895,0.525 -0.375,0.129 -0.861,0.195 -1.465,0.195 -0.727,0 -1.277,-0.072 -1.652,-0.215 -0.377,-0.141 -0.674,-0.326 -0.891,-0.553 -0.217,-0.227 -0.361,-0.465 -0.43,-0.715 -0.102,-0.367 -0.152,-0.912 -0.152,-1.633 v -3.431 z m 7.693,0 h 3.043 c 0.602,0 1.051,0.021 1.348,0.064 0.293,0.043 0.559,0.131 0.793,0.264 0.232,0.135 0.428,0.316 0.584,0.539 0.156,0.225 0.234,0.475 0.234,0.754 0,0.301 -0.098,0.578 -0.289,0.83 a 1.751,1.751 0 0 1 -0.781,0.566 c 0.463,0.113 0.82,0.309 1.07,0.584 0.248,0.273 0.373,0.598 0.373,0.971 0,0.291 -0.08,0.578 -0.242,0.854 -0.16,0.277 -0.379,0.496 -0.658,0.662 -0.279,0.166 -0.623,0.268 -1.031,0.307 -0.256,0.023 -0.875,0.037 -1.854,0.043 h -2.59 z m 1.536,1.072 v 1.488 h 1.008 c 0.6,0 0.971,-0.008 1.117,-0.021 0.264,-0.025 0.469,-0.105 0.619,-0.232 a 0.62,0.62 0 0 0 0.227,-0.502 0.636,0.636 0 0 0 -0.195,-0.484 c -0.129,-0.125 -0.322,-0.199 -0.578,-0.227 -0.152,-0.016 -0.59,-0.021 -1.314,-0.021 h -0.884 z m 0,2.559 v 1.723 h 1.424 c 0.553,0 0.904,-0.014 1.053,-0.039 0.229,-0.035 0.416,-0.121 0.559,-0.258 0.143,-0.137 0.217,-0.318 0.217,-0.547 a 0.76,0.76 0 0 0 -0.166,-0.492 0.952,0.952 0 0 0 -0.482,-0.293 c -0.207,-0.062 -0.662,-0.094 -1.361,-0.094 z m -70.487,-45.84 a 7.418,7.418 0 0 0 -4.553,1.775 c 0.303,0.377 0.688,0.764 1.123,1.143 0.648,-0.931 2.035,-2.129 3.43,-2.918 z m -5.324,2.535 a 7.53,7.53 0 0 0 -1.063,1.576 c 2.076,2.332 5.818,4.68 8.013,5.527 a 6.778,6.778 0 0 0 -0.139,-2.23 c -2.553,-1.335 -5.346,-2.916 -6.811,-4.873 z m -1.519,2.704 a 7.382,7.382 0 0 0 -0.33,2.416 c 2.244,1.896 6.047,4.072 8.008,4.754 a 8.88,8.88 0 0 0 0.596,-1.654 c -2.116,-0.661 -6.093,-3.061 -8.274,-5.516 z m -0.125,3.951 a 7.475,7.475 0 0 0 6.157,5.617 8.84,8.84 0 0 0 1.128,-1.455 c -1.831,-0.653 -5.076,-2.436 -7.285,-4.162 z m 7.5,5.691 a 7.411,7.411 0 0 0 2.811,-0.662 c 1.279,-2.273 1.885,-5.719 1.249,-9.279 -0.986,0.479 -1.684,1.111 -2.068,1.922 0.801,2.695 -0.433,6.201 -1.992,8.019 z m 4.631,-1.84 a 7.43,7.43 0 0 0 2.551,-5.602 7.374,7.374 0 0 0 -0.756,-3.26 c -0.443,0.09 -0.858,0.197 -1.243,0.32 0.6,2.456 0.32,6.324 -0.552,8.542 z m 1.21,-9.853 a 7.516,7.516 0 0 0 -1.367,-1.482 c -2.169,0.678 -4.341,2.004 -5.232,3.51 a 30.65,30.65 0 0 0 1.806,1.025 c 0.576,-1.344 2.364,-2.489 4.793,-3.053 z m -2.523,-2.27 a 7.377,7.377 0 0 0 -1.9,-0.73 c -1.796,0.768 -3.816,2.33 -4.5,3.449 0.457,0.348 0.939,0.688 1.419,1.004 0.807,-1.463 2.89,-2.916 4.981,-3.723 z m 75.967,30.332 c -5.672,0 -6.018,2.988 -12.256,2.949 -6.238,0.039 -6.58,-2.949 -12.252,-2.949 -5.672,0 -6.014,2.99 -12.252,2.949 -6.24,0.041 -6.58,-2.949 -12.255,-2.949 -5.674,0 -6.015,2.988 -12.254,2.949 -6.239,0.039 -6.581,-2.949 -12.252,-2.949 -5.671,0 -6.013,2.99 -12.252,2.949 -6.239,0.041 -6.58,-2.949 -12.253,-2.949 v -2.168 c 5.673,0 6.014,2.988 12.253,2.949 6.239,0.039 6.58,-2.949 12.252,-2.951 5.672,0 6.013,2.99 12.252,2.951 6.239,0.039 6.58,-2.951 12.254,-2.951 5.675,0.002 6.015,2.99 12.255,2.951 6.238,0.039 6.58,-2.949 12.252,-2.951 5.672,0 6.014,2.99 12.252,2.951 6.238,0.039 6.584,-2.951 12.256,-2.951 z m 0,-8.677 c -5.672,0 -6.012,2.99 -12.252,2.949 -6.238,0.041 -6.58,-2.949 -12.252,-2.949 -5.672,0 -6.014,2.99 -12.252,2.951 -6.24,0.039 -6.58,-2.951 -12.255,-2.951 -5.674,0 -6.015,2.99 -12.254,2.949 -6.239,0.041 -6.58,-2.949 -12.252,-2.949 -5.672,0 -6.013,2.99 -12.252,2.951 -6.239,0.039 -6.58,-2.951 -12.252,-2.951 v 2.168 c 5.672,0 6.013,2.99 12.252,2.951 6.24,0.039 6.58,-2.951 12.252,-2.951 5.672,0 6.013,2.99 12.252,2.951 6.239,0.039 6.58,-2.951 12.254,-2.951 5.675,0 6.015,2.99 12.255,2.951 6.238,0.039 6.58,-2.951 12.252,-2.951 5.672,0 6.014,2.99 12.252,2.951 6.24,0.039 6.58,-2.951 12.252,-2.951 z"
     fill="#ffffff"
     id="path30"
     style="clip-rule:evenodd;fill-rule:evenodd" />
</svg>
