<?xml version="1.0" encoding="UTF-8" standalone="no"?>
<svg
   width="2500"
   height="2500"
   viewBox="0 0 192.756 192.756"
   version="1.1"
   id="svg38"
   sodipodi:docname="Norwich City.svg"
   inkscape:version="1.1.1 (3bf5ae0d25, 2021-09-20)"
   xmlns:inkscape="http://www.inkscape.org/namespaces/inkscape"
   xmlns:sodipodi="http://sodipodi.sourceforge.net/DTD/sodipodi-0.dtd"
   xmlns="http://www.w3.org/2000/svg"
   xmlns:svg="http://www.w3.org/2000/svg">
  <defs
     id="defs42" />
  <sodipodi:namedview
     id="namedview40"
     pagecolor="#ffffff"
     bordercolor="#666666"
     borderopacity="1.0"
     inkscape:pageshadow="2"
     inkscape:pageopacity="0.0"
     inkscape:pagecheckerboard="0"
     showgrid="false"
     inkscape:zoom="0.2276"
     inkscape:cx="1250"
     inkscape:cy="1250"
     inkscape:window-width="1920"
     inkscape:window-height="1137"
     inkscape:window-x="1592"
     inkscape:window-y="-8"
     inkscape:window-maximized="1"
     inkscape:current-layer="svg38" />
  <path
     d="m 96.405,11.998 h 74.671 c 1.727,20.088 1.887,32.198 1.887,51.248 0,29.715 -3.912,57.635 -22.594,83.09 -12.844,17.504 -30.836,30.475 -53.964,34.422 C 73.274,176.811 55.154,163.84 42.31,146.336 23.63,120.881 19.793,92.961 19.793,63.246 c 0,-19.05 0.211,-31.16 1.938,-51.248 z"
     fill="#409e54"
     id="path4"
     style="clip-rule:evenodd;fill-rule:evenodd" />
  <path
     d="m 58.029,62.84 c 1.811,0.138 3.557,-0.022 4.137,0.622 -1.479,0.827 -2.372,1.536 -2.997,2.192 2.632,1.479 7.177,-0.645 8.109,-1.203 4.199,0.869 7.547,0.45 9.732,-0.457 1.264,-1.315 2.125,-4.125 2.777,-5.866 3.935,-0.984 10.594,-2.631 9.757,-0.055 -1.179,2.107 -0.9,3.812 1.735,3.28 0.631,0.76 1.514,2.33 2.797,3.546 -0.475,-1.503 -0.923,-2.08 -0.694,-3.411 0.995,1.085 4.852,-1.323 2.166,-6.396 -0.316,0.832 -1.147,1.964 -1.676,1.799 -1.416,-0.943 -2.994,-3.879 -11.249,-2.194 0.405,-1.007 0.69,-1.743 1.351,-2.646 3.725,-0.522 9.264,0.414 10.179,-5.326 -0.105,-2.978 -3.368,-4.451 -4.741,-4.16 -2.764,-0.59 -6.277,0.383 -11.104,-0.32 -4.172,-0.607 -5.072,-1.798 -9.6,-1.529 -2.158,1.514 2.183,2.748 1.114,2.889 -3.833,0.508 -5.811,0.501 -9.172,-0.141 -2.619,-0.764 -2.092,-3.041 -0.158,-3.962 2.075,-0.709 4.439,-0.97 6.933,-0.958 6.187,0.031 12.998,1.19 19.18,1.841 3.939,0.415 7.632,0.959 9.454,1.858 -0.321,-3.094 -1.794,-2.544 -2.767,-2.509 -2.177,-1.214 -5.188,-3.895 -8.579,-3.596 -1.131,0.005 -0.292,1.686 -0.163,2.075 -0.582,0.247 -1.561,0.21 -2.507,0.053 -8.882,-1.466 -19.955,-2.785 -23.919,-0.055 -1.516,1.043 -3.086,3.337 -1.524,5.678 1.453,2.178 5.227,2.242 8.266,2.098 l 17.49,-1.455 c 1.176,0 5.487,-0.322 7.41,0.63 1.154,0.572 2.086,1.197 0.639,3.03 -1.696,1.269 -4.936,1.36 -7.68,0.836 -5.69,-1.086 -10.736,-1.682 -16.936,-1.586 -6.199,0.097 -9.237,-0.868 -16.038,0.816 -2.332,1 -4.641,0.93 -4.43,0.93 0,-0.105 3.556,-6.475 4.462,-9.634 -0.813,-0.098 -2.437,0.756 -3.2,1.146 0.175,-0.826 0.039,-2.506 -0.292,-3.332 -1.638,0.548 -2.41,1.659 -3.25,2.303 -0.214,-0.815 0.434,-1.579 -0.4,-3.217 0,0.315 -1.521,2 -1.626,2.315 -2.64,3.863 -3.39,6.074 -4.063,10.146 -0.044,1.268 0.069,2.607 0.354,4.068 -2.727,1.239 -4.5,-0.017 -5.449,-1.532 -1.163,-1.859 -0.533,-4.728 -0.143,-6.826 0.346,-1.85 0.812,-2.533 2.539,-3.556 0.576,-0.34 1.449,-2.344 1.676,-3.481 -1.008,0.688 -3.145,1.185 -4.272,1.515 -0.34,-0.681 -0.542,-2.877 -3.156,-2.922 0.72,1.238 0.604,2.104 0.807,3.467 -0.53,0.603 -2.664,-0.884 -2.585,-0.758 0.257,2.478 0.435,2.79 1.219,4.979 -0.908,0.332 -0.906,0.568 -1.723,-0.45 -0.664,3.272 1.111,5.019 2.341,5.906 -1.113,0.09 -2.404,0.067 -3.237,-0.457 0.279,1.771 2.327,3.663 3.378,3.663 0.062,1.421 -0.554,1.805 -1.873,1.837 2.241,4.201 9.839,3.457 10.944,1.422 0,2.417 -0.526,6.26 -3.888,5.315 -1.156,-0.315 -3.483,-0.99 -4.219,-1.726 -1.595,-0.936 -2.974,-0.808 -4.89,0.039 1.048,0.319 1.451,0.843 1.717,1.406 -0.688,0.335 -1.353,0.606 -1.903,0.943 l 2.232,1.153 -2.262,1.68 c 5.825,-0.693 7.571,-2.304 6.598,1.511 0.315,0 3.373,-0.894 3.373,-1.314 0.63,0 2.429,-1.003 2.429,0.993 0.685,0 2.161,-1.552 2.161,-2.372 0.611,-0.578 2.753,-0.36 2.753,2.161 3.728,-1.593 2.957,-7.062 2.07,-7.872 1.55,0.825 6.439,1.503 10.615,0.564 6.807,-1.531 7.861,-4.683 13.168,-5.331 1.919,-0.234 4.36,-0.124 7.77,0.538 1.529,0.254 2.097,1.887 -0.088,1.16 -2.721,-0.905 -7.46,-0.53 -7.829,1.331 -0.626,1.837 0.34,2.827 1.519,3.471 0.349,0.19 4.231,1.563 3.379,2.57 -1.448,1.658 -5.477,-1.744 -6.528,-2.27 -1.051,-0.526 -4.51,-1.245 -5.562,-0.93 0.998,1.225 2.353,2.011 2.353,2.746 -1.164,0.15 -3.323,0.458 -4.711,1.284 z M 66.13,33.292 v -5.967 l -8.544,0.016 v 5.951 H 27.488 V 19.381 h 8.155 v 2.913 h 7.088 v -2.913 h 8.253 l -0.001,2.913 h 6.603 v -2.913 h 8.544 v 2.913 h 6.796 v -2.913 h 8.156 v 2.913 h 7.184 v -2.913 h 8.139 v 13.911 z"
     fill="#fff22d"
     id="path6"
     style="clip-rule:evenodd;fill-rule:evenodd" />
  <path
     fill="#409e54"
     d="m 40.301,24.47 h 2.43 v 4.537 h -2.43 z m 40.781,0.126 h 2.43 v 4.537 h -2.43 z"
     id="path8"
     style="clip-rule:evenodd;fill-rule:evenodd" />
  <path
     d="m 70.068,102.67 c 14.074,-15.703 34.775,-39.122 41.02,-46.897 l -4.1,9.825 c -7.186,8.913 -19.903,22.876 -28.956,33.25 -2.203,2.355 -5.424,3.338 -7.964,3.822 z m 87.086,-75.679 c -0.492,-0.984 -1.029,-2.66 -0.828,-3.646 l 6.566,-1.411 c -1.941,1.67 -3.437,3.932 -5.738,5.057 z"
     fill="#fff22d"
     id="path10"
     style="clip-rule:evenodd;fill-rule:evenodd" />
  <path
     d="m 156.402,27.301 c -2.178,9.562 -6.109,10.727 -11.633,10.631 -5.289,-1.602 -4.596,-7.86 -4.705,-11.985 l -0.504,0.221 c -0.572,4.882 -1.551,12.393 6.258,13.221 7.326,0.722 9.715,-4.889 11.014,-11.029 0.113,9.031 0.012,18.085 -1.592,26.54 -2.438,12.833 -8.219,24.289 -22.104,32.199 -10.594,6.036 -25.9,8.107 -39.579,6.956 4.981,-1.519 8.204,-3.8 11.53,-7.026 8.812,-0.771 17.596,-3.158 24.701,-8.094 7.33,-5.092 12.869,-12.868 14.297,-22.303 2.84,-1.134 3.691,-1.521 5.494,-2.607 l 0.088,-1.438 c -5.604,2.996 -12.938,4.965 -21.023,5.604 -5.002,6.255 -13.26,10.024 -20.311,6.91 0.941,-2.526 3.127,-7.334 4.203,-10.5 4.137,-5.731 14.838,-17.669 19.656,-21.995 2.596,-5.04 5.66,-8.617 8.529,-11.457 2.945,-2.916 7.496,-4.183 11.287,-3.67 1.705,0.249 3.439,0.872 4.01,2.193 -0.52,2.966 -1.276,4.81 0.384,7.629 z m -0.015,-4.905 a 9.927,9.927 0 0 1 0.398,-2.493 c 2.385,-0.034 3.512,0.659 5.768,1.401 z"
     fill="#fff22d"
     id="path12"
     style="clip-rule:evenodd;fill-rule:evenodd" />
  <path
     d="m 103.098,71.901 4.406,-5.379 c 3.209,1.375 12.107,3.743 21.758,-6.694 l 2.432,-0.318 c -5.122,10.194 -18.557,14.536 -28.596,12.391 z"
     fill="#fff22d"
     id="path14"
     style="clip-rule:evenodd;fill-rule:evenodd" />
  <path
     d="m 97.043,79.08 5.16,-5.92 c 8.145,0.88 14.248,-0.035 19.271,-2.53 4.514,-2.243 8.793,-5.908 11.861,-11.391 l 4.709,-0.977 C 129.631,79.833 105.123,81.171 97.043,79.08 Z"
     fill="#fff22d"
     id="path16"
     style="clip-rule:evenodd;fill-rule:evenodd" />
  <path
     d="M 82.845,94.814 96.032,80.508 c 20.546,2.696 35.718,-4.612 43.474,-22.577 l 3.281,-0.829 c -3.719,18.052 -19.746,27.464 -38.217,28.733 -4.468,4.209 -8.557,7.851 -21.725,8.979 z m -5.018,10.452 c -0.54,-1.838 0.126,-3.951 0.47,-5.35 l 3.968,-4.233 c 3.198,0.05 5.996,-0.52 8.975,-1.131 -5.823,2.198 -8.239,4.598 -13.413,10.714 z m -24.075,30.496 c -0.771,-3.805 -0.122,-6.9 1.496,-9.654 l 21.784,-24.842 c -0.597,2.42 -0.695,3.908 -0.19,5.068 -2.183,2.938 -11.684,13.002 -18.245,21.057 -2.701,3.314 -3.984,5.398 -4.845,8.371 z m -7.786,-9.307 c 3.124,-0.766 4.248,-1.654 6.609,-4.02 L 69.399,103.55 c 2.208,-0.02 4.18,-0.459 6.766,-2.289 l -21.487,23.844 c -2.563,1.004 -5.528,1.901 -8.712,1.35 z m 55.825,-17.082 -2.391,-9.203 2.473,-4.637 2.305,-0.037 -2.621,4.604 2.209,8.859 z m 8.965,-0.689 c 0.234,-0.01 0.463,-0.012 0.693,-0.012 15.291,0 27.762,12.471 27.762,27.762 0,15.291 -12.471,27.764 -27.762,27.764 -15.291,0 -27.762,-12.473 -27.762,-27.764 0,-13.562 9.81,-24.906 22.696,-27.291 l 1.828,8.617 c -1.816,0.988 -4.342,0.174 -8.398,6.805 2.234,-1.258 4.697,-3.219 9.922,-3.41 1.871,2.781 3.334,6.68 5.865,9.908 0.277,-1.994 0.705,-4.797 -0.475,-8.59 2.941,1.062 6.082,2.84 9.371,5.479 -1.184,-7.24 -5.992,-7.889 -6.965,-8.338 2.988,-0.148 5.594,-0.107 8.582,-0.311 -2.658,-3.25 -8.662,-2.865 -13.725,-2.779 z"
     fill="#fff22d"
     id="path18"
     style="clip-rule:evenodd;fill-rule:evenodd" />
  <path
     d="m 110.24,120.244 c -3.607,0.049 -5.412,0.91 -7.99,1.998 1.998,-1.951 3.838,-2.961 7.275,-3.701 l -3.896,-18.064 3.283,-4.989 2.217,-0.239 -3.33,5.49 c 1.158,5.453 2.529,11.436 3.688,16.889 10.131,-0.828 12.422,0.715 12.799,0.863 -2.025,0.574 -6.383,-0.336 -8.725,0.449 -1.045,0 7.449,4.238 7.676,6.992 0.631,0.197 -10.01,-6.482 -10.521,-6 1.705,1.178 2.324,6.645 2.318,8.719 -1.995,-3.569 -2.182,-4.624 -4.794,-8.407 z"
     fill="#fff22d"
     id="path20"
     style="clip-rule:evenodd;fill-rule:evenodd" />
  <path
     d="m 146.148,26.048 c -1.699,-0.14 -3.221,-0.102 -3.895,-0.198 l 0.002,-0.436 3.699,-0.593 c 0.002,-2.205 1.848,-3.988 4.109,-3.988 2.264,0 4.109,1.783 4.109,3.97 0,2.188 -1.846,4.051 -4.109,4.051 -1.811,0 -3.356,-1.226 -3.915,-2.806 z"
     fill="#409e54"
     id="path22"
     style="clip-rule:evenodd;fill-rule:evenodd" />
  <path
     d="m 150.111,21.345 c 1.951,0 3.541,1.537 3.541,3.42 0,1.885 -1.59,3.421 -3.541,3.421 -1.949,0 -3.539,-1.536 -3.539,-3.421 0,-1.883 1.59,-3.42 3.539,-3.42 z"
     fill="#fff22d"
     id="path24"
     style="clip-rule:evenodd;fill-rule:evenodd" />
  <path
     d="m 149.84,22.211 c 1.395,0 2.529,1.099 2.529,2.445 0,1.346 -1.135,2.445 -2.529,2.445 -1.394,0 -2.531,-1.099 -2.531,-2.445 0,-1.346 1.136,-2.445 2.531,-2.445 z M 46.675,44.575 c -0.284,-0.029 -2.506,-0.169 -2.822,-0.169 0.351,0.597 1.32,1.812 1.922,1.812 z m -7.835,-0.2 c 0.285,0.029 2.665,-0.509 2.98,-0.509 -0.351,-0.597 -1.478,-1.133 -2.08,-1.133 z m 3.014,3.3 c 0.417,0.646 2.251,2.28 2.492,2.461 -1.189,0.153 -4.205,-0.402 -6.46,-0.803 0.994,-0.958 3.349,-1.658 3.968,-1.658 z m 53.228,88.483 0.831,-0.094 c 0.101,0.371 0.384,0.555 0.85,0.555 0.292,0 0.525,-0.072 0.703,-0.219 0.178,-0.147 0.266,-0.33 0.266,-0.553 a 0.712,0.712 0 0 0 -0.238,-0.533 0.881,0.881 0 0 0 -0.622,-0.225 c -0.269,0 -0.538,0.113 -0.807,0.338 l -0.814,-0.129 0.457,-1.996 h 2.712 v 0.641 h -2.16 l -0.196,0.836 a 1.81,1.81 0 0 1 0.97,-0.281 c 0.434,0 0.803,0.131 1.107,0.389 0.305,0.26 0.457,0.58 0.457,0.961 0,0.422 -0.18,0.766 -0.535,1.031 -0.355,0.264 -0.783,0.396 -1.284,0.396 -0.454,0 -0.83,-0.1 -1.127,-0.299 a 1.308,1.308 0 0 1 -0.57,-0.818 z m -3.624,-0.914 c 0,-0.623 0.162,-1.119 0.484,-1.486 0.324,-0.367 0.761,-0.551 1.311,-0.551 0.558,0 0.997,0.186 1.319,0.553 0.32,0.369 0.481,0.863 0.481,1.484 0,0.617 -0.159,1.109 -0.479,1.479 -0.32,0.37 -0.761,0.553 -1.322,0.553 -0.55,0 -0.987,-0.184 -1.311,-0.551 -0.321,-0.366 -0.483,-0.86 -0.483,-1.481 z"
     fill="#409e54"
     id="path26"
     style="clip-rule:evenodd;fill-rule:evenodd" />
  <path
     d="m 92.363,135.244 c 0,0.918 0.296,1.375 0.884,1.375 0.6,0 0.901,-0.457 0.901,-1.375 0,-0.92 -0.298,-1.381 -0.895,-1.381 -0.593,0 -0.89,0.461 -0.89,1.381 z"
     fill="#fff22d"
     id="path28"
     style="clip-rule:evenodd;fill-rule:evenodd" />
  <path
     d="m 87.581,136.305 0.899,-0.096 c 0.086,0.246 0.311,0.369 0.675,0.369 0.717,0 1.088,-0.416 1.115,-1.248 a 1.611,1.611 0 0 1 -1.224,0.535 c -0.408,0 -0.761,-0.119 -1.059,-0.355 -0.297,-0.234 -0.446,-0.555 -0.446,-0.951 0,-0.416 0.16,-0.752 0.479,-1.008 0.319,-0.256 0.724,-0.383 1.211,-0.383 0.669,0 1.157,0.182 1.463,0.547 0.307,0.365 0.459,0.805 0.459,1.32 0,0.65 -0.173,1.182 -0.514,1.588 -0.342,0.408 -0.844,0.613 -1.505,0.613 -0.874,0 -1.392,-0.312 -1.553,-0.931 z"
     fill="#409e54"
     id="path30"
     style="clip-rule:evenodd;fill-rule:evenodd" />
  <path
     d="m 88.446,134.51 c 0,0.467 0.269,0.699 0.808,0.699 a 0.926,0.926 0 0 0 0.635,-0.221 0.664,0.664 0 0 0 0.252,-0.514 0.554,0.554 0 0 0 -0.252,-0.475 1.06,1.06 0 0 0 -0.618,-0.178 c -0.251,0 -0.45,0.066 -0.601,0.199 a 0.633,0.633 0 0 0 -0.224,0.49 z"
     fill="#fff22d"
     id="path32"
     style="clip-rule:evenodd;fill-rule:evenodd" />
  <path
     d="m 85.974,137.18 v -2.715 l -0.712,0.002 v -0.535 c 0.402,-0.115 0.668,-0.41 0.926,-0.725 h 0.622 v 3.973 z"
     fill="#409e54"
     id="path34"
     style="clip-rule:evenodd;fill-rule:evenodd" />
</svg>
